<svg xmlns="http://www.w3.org/2000/svg" xmlns:xlink="http://www.w3.org/1999/xlink" xmlns:lucid="lucid" width="631.4" height="483"><g transform="translate(1025.4786583371424 652.704767990157)" lucid:page-tab-id="0_0"><path d="M-882.16-625.2a6 6 0 0 1 6-6h98a6 6 0 0 1 6 6v8a14.48 14.48 0 0 1-4.24 10.24l-1.52 1.5a14.48 14.48 0 0 1-10.24 4.25h-88a6 6 0 0 1-6-6z" fill="#fff"/><path d="M-772.16-631.2v20l-10 10h-100" stroke="#3a414a" stroke-width="3" fill="none"/><path d="M-882.16-625.2a6 6 0 0 1 6-6h454.58a6 6 0 0 1 6 6v428a6 6 0 0 1-6 6h-454.58a6 6 0 0 1-6-6z" stroke="#3a414a" stroke-width="3" fill="none"/><use xlink:href="#a" transform="matrix(1,0,0,1,-874.1614459063776,-631.204767990157) translate(0 18.6)"/><use xlink:href="#b" transform="matrix(1,0,0,1,-874.1614459063776,-631.204767990157) translate(62.55 18.6)"/><path d="M-944.23-456.4c0 10.9-8.84 19.74-19.75 19.74-10.9 0-19.75-8.84-19.75-19.75 0-10.92 8.84-19.76 19.75-19.76 10.9 0 19.75 8.84 19.75 19.75z" stroke="#3a414a" stroke-width="3" fill="#fff"/><path d="M-963.98-436.66v49.3a20.7 20.7 0 0 0 3.2 11.07l36.8 58.14m-40-63.2l-40 63.2m0-98.75h80" stroke="#3a414a" stroke-width="3" fill="none"/><path d="M-1003.98-470.16a6 6 0 0 1 6-6h68a6 6 0 0 1 6 6v168a6 6 0 0 1-6 6h-68a6 6 0 0 1-6-6z" fill="none"/><use xlink:href="#c" transform="matrix(1,0,0,1,-1083.9786583371424,-318.1604528819644) translate(94.55 14.6)"/><path d="M-504.8-296.2c0 30.37-38.07 55-85 55-46.96 0-85-24.63-85-55 0-30.38 38.04-55 85-55 46.93 0 85 24.62 85 55z" stroke="#3a414a" stroke-width="3" fill="#fff"/><use xlink:href="#d" transform="matrix(1,0,0,1,-674.8140970830636,-351.20476799015705) translate(59.504999999999995 38.4625)"/><use xlink:href="#e" transform="matrix(1,0,0,1,-674.8140970830636,-351.20476799015705) translate(93.505 38.4625)"/><use xlink:href="#f" transform="matrix(1,0,0,1,-674.8140970830636,-351.20476799015705) translate(13.604999999999999 60.0625)"/><use xlink:href="#g" transform="matrix(1,0,0,1,-674.8140970830636,-351.20476799015705) translate(96.45500000000001 60.0625)"/><use xlink:href="#h" transform="matrix(1,0,0,1,-674.8140970830636,-351.20476799015705) translate(122.40500000000002 60.0625)"/><use xlink:href="#i" transform="matrix(1,0,0,1,-674.8140970830636,-351.20476799015705) translate(67.53 81.66250000000001)"/><path d="M-664.97-506.12l-296.1 107.54" stroke="#3a414a" stroke-width="3" fill="none"/><path d="M-663.87-506.94l1.45 1.46-2.08.76-1-2.77.87-.3z" stroke="#3a414a" stroke-width=".05" fill="#3a414a"/><path d="M-961.03-398.6l-4.27 1.56" stroke="#3a414a" stroke-width="3" fill="none"/><path d="M-504.8-536.2c0 30.37-38.07 55-85 55-46.96 0-85-24.63-85-55 0-30.38 38.04-55 85-55 46.93 0 85 24.62 85 55z" stroke="#3a414a" stroke-width="3" fill="#fff"/><use xlink:href="#d" transform="matrix(1,0,0,1,-674.8140970830636,-591.204767990157) translate(59.504999999999995 38.4625)"/><use xlink:href="#e" transform="matrix(1,0,0,1,-674.8140970830636,-591.204767990157) translate(93.505 38.4625)"/><use xlink:href="#f" transform="matrix(1,0,0,1,-674.8140970830636,-591.204767990157) translate(13.604999999999999 60.0625)"/><use xlink:href="#g" transform="matrix(1,0,0,1,-674.8140970830636,-591.204767990157) translate(96.45500000000001 60.0625)"/><use xlink:href="#h" transform="matrix(1,0,0,1,-674.8140970830636,-591.204767990157) translate(122.40500000000002 60.0625)"/><use xlink:href="#j" transform="matrix(1,0,0,1,-674.8140970830636,-591.204767990157) translate(37.60499999999999 81.66250000000001)"/><path d="M-672.46-316.13l-288.57-80.57" stroke="#3a414a" stroke-width="3" fill="none"/><path d="M-670.25-317.04l-.38.6-1.1 2.04-1.16-.32.8-2.84z" stroke="#3a414a" stroke-width=".05" fill="#3a414a"/><path d="M-961-396.7l-4.37-1.2" stroke="#3a414a" stroke-width="3" fill="none"/><path d="M-588.34-354.2h-2.95v-17.5h2.96zm0-34.97h-2.95v-16.37h2.96zm0-52.44h-2.95v-17.48h2.96z" stroke="#3a414a" stroke-width=".05" fill="#3a414a"/><path d="M-588.34-352.66l-1.47-.04-1.5.02v-1.56h2.96z" fill="#3a414a"/><path stroke="#3a414a" stroke-width=".05" fill="#3a414a"/><path d="M-585.18-460.58h-9.27l4.64-14.27z" fill="#3a414a"/><path d="M-583.15-459.1h-13.33l6.67-20.52zm-9.27-2.96h5.2l-2.6-8.02z" stroke="#3a414a" stroke-width=".05" fill="#3a414a"/><g><use xlink:href="#k" transform="matrix(1,0,0,1,-637.221504490471,-426.87143465682374) translate(0.005000000000002558 14.222222222222223)"/></g><defs><path d="M266 0h-40l-56-210L115 0H75L2-248h35L96-30l15-64 43-154h32l59 218 59-218h35" id="l"/><path d="M100-194c62-1 85 37 85 99 1 63-27 99-86 99S16-35 15-95c0-66 28-99 85-99zM99-20c44 1 53-31 53-75 0-43-8-75-51-75s-53 32-53 75 10 74 51 75" id="m"/><path d="M63-220v92h138v28H63V0H30v-248h175v28H63" id="n"/><path d="M27 0v-27h64v-190l-56 39v-29l58-41h29v221h61V0H27" id="o"/><g id="a"><use transform="matrix(0.05,0,0,0.05,0,0)" xlink:href="#l"/><use transform="matrix(0.05,0,0,0.05,16.599999999999998,0)" xlink:href="#m"/><use transform="matrix(0.05,0,0,0.05,26.599999999999994,0)" xlink:href="#m"/><use transform="matrix(0.05,0,0,0.05,36.599999999999994,0)" xlink:href="#n"/><use transform="matrix(0.05,0,0,0.05,47.55,0)" xlink:href="#o"/></g><path d="M205 0l-28-72H64L36 0H1l101-248h38L239 0h-34zm-38-99l-47-123c-12 45-31 82-46 123h93" id="p"/><path d="M33 0v-248h34V0H33" id="q"/><g id="b"><use transform="matrix(0.05,0,0,0.05,0,0)" xlink:href="#p"/><use transform="matrix(0.05,0,0,0.05,12,0)" xlink:href="#q"/></g><path d="M30-248c87 1 191-15 191 75 0 78-77 80-158 76V0H30v-248zm33 125c57 0 124 11 124-50 0-59-68-47-124-48v98" id="r"/><path d="M24 0v-261h32V0H24" id="s"/><path d="M141-36C126-15 110 5 73 4 37 3 15-17 15-53c-1-64 63-63 125-63 3-35-9-54-41-54-24 1-41 7-42 31l-33-3c5-37 33-52 76-52 45 0 72 20 72 64v82c-1 20 7 32 28 27v20c-31 9-61-2-59-35zM48-53c0 20 12 33 32 33 41-3 63-29 60-74-43 2-92-5-92 41" id="t"/><path d="M179-190L93 31C79 59 56 82 12 73V49c39 6 53-20 64-50L1-190h34L92-34l54-156h33" id="u"/><path d="M100-194c63 0 86 42 84 106H49c0 40 14 67 53 68 26 1 43-12 49-29l28 8c-11 28-37 45-77 45C44 4 14-33 15-96c1-61 26-98 85-98zm52 81c6-60-76-77-97-28-3 7-6 17-6 28h103" id="v"/><path d="M114-163C36-179 61-72 57 0H25l-1-190h30c1 12-1 29 2 39 6-27 23-49 58-41v29" id="w"/><g id="c"><use transform="matrix(0.05,0,0,0.05,0,0)" xlink:href="#r"/><use transform="matrix(0.05,0,0,0.05,12,0)" xlink:href="#s"/><use transform="matrix(0.05,0,0,0.05,15.949999999999998,0)" xlink:href="#t"/><use transform="matrix(0.05,0,0,0.05,25.950000000000003,0)" xlink:href="#u"/><use transform="matrix(0.05,0,0,0.05,34.95,0)" xlink:href="#v"/><use transform="matrix(0.05,0,0,0.05,44.95,0)" xlink:href="#w"/></g><path d="M143 4C61 4 22-44 18-125c-5-107 100-154 193-111 17 8 29 25 37 43l-32 9c-13-25-37-40-76-40-61 0-88 39-88 99 0 61 29 100 91 101 35 0 62-11 79-27v-45h-74v-28h105v86C228-13 192 4 143 4" id="x"/><path d="M59-47c-2 24 18 29 38 22v24C64 9 27 4 27-40v-127H5v-23h24l9-43h21v43h35v23H59v120" id="y"/><g id="d"><use transform="matrix(0.05,0,0,0.05,0,0)" xlink:href="#x"/><use transform="matrix(0.05,0,0,0.05,14,0)" xlink:href="#v"/><use transform="matrix(0.05,0,0,0.05,24,0)" xlink:href="#y"/></g><g id="e"><use transform="matrix(0.05,0,0,0.05,0,0)" xlink:href="#p"/><use transform="matrix(0.05,0,0,0.05,12,0)" xlink:href="#q"/></g><path d="M115-194c55 1 70 41 70 98S169 2 115 4C84 4 66-9 55-30l1 105H24l-1-265h31l2 30c10-21 28-34 59-34zm-8 174c40 0 45-34 45-75s-6-73-45-74c-42 0-51 32-51 76 0 43 10 73 51 73" id="z"/><path d="M85-194c31 0 48 13 60 33l-1-100h32l1 261h-30c-2-10 0-23-3-31C134-8 116 4 85 4 32 4 16-35 15-94c0-66 23-100 70-100zm9 24c-40 0-46 34-46 75 0 40 6 74 45 74 42 0 51-32 51-76 0-42-9-74-50-73" id="A"/><path d="M24-231v-30h32v30H24zM24 0v-190h32V0H24" id="B"/><path d="M96-169c-40 0-48 33-48 73s9 75 48 75c24 0 41-14 43-38l32 2c-6 37-31 61-74 61-59 0-76-41-82-99-10-93 101-131 147-64 4 7 5 14 7 22l-32 3c-4-21-16-35-41-35" id="C"/><path d="M117-194c89-4 53 116 60 194h-32v-121c0-31-8-49-39-48C34-167 62-67 57 0H25l-1-190h30c1 10-1 24 2 32 11-22 29-35 61-36" id="D"/><g id="f"><use transform="matrix(0.05,0,0,0.05,0,0)" xlink:href="#z"/><use transform="matrix(0.05,0,0,0.05,10,0)" xlink:href="#w"/><use transform="matrix(0.05,0,0,0.05,15.949999999999998,0)" xlink:href="#v"/><use transform="matrix(0.05,0,0,0.05,25.950000000000003,0)" xlink:href="#A"/><use transform="matrix(0.05,0,0,0.05,35.95,0)" xlink:href="#B"/><use transform="matrix(0.05,0,0,0.05,39.900000000000006,0)" xlink:href="#C"/><use transform="matrix(0.05,0,0,0.05,48.900000000000006,0)" xlink:href="#y"/><use transform="matrix(0.05,0,0,0.05,53.900000000000006,0)" xlink:href="#B"/><use transform="matrix(0.05,0,0,0.05,57.85,0)" xlink:href="#m"/><use transform="matrix(0.05,0,0,0.05,67.85000000000001,0)" xlink:href="#D"/></g><path d="M101-234c-31-9-42 10-38 44h38v23H63V0H32v-167H5v-23h27c-7-52 17-82 69-68v24" id="E"/><g id="g"><use transform="matrix(0.05,0,0,0.05,0,0)" xlink:href="#E"/><use transform="matrix(0.05,0,0,0.05,5,0)" xlink:href="#m"/><use transform="matrix(0.05,0,0,0.05,15,0)" xlink:href="#w"/></g><path d="M141 0L90-78 38 0H4l68-98-65-92h35l48 74 47-74h35l-64 92 68 98h-35" id="F"/><g id="h"><use transform="matrix(0.05,0,0,0.05,0,0)" xlink:href="#D"/><use transform="matrix(0.05,0,0,0.05,10,0)" xlink:href="#v"/><use transform="matrix(0.05,0,0,0.05,20,0)" xlink:href="#F"/><use transform="matrix(0.05,0,0,0.05,29,0)" xlink:href="#y"/></g><g id="i"><use transform="matrix(0.05,0,0,0.05,0,0)" xlink:href="#w"/><use transform="matrix(0.05,0,0,0.05,5.95,0)" xlink:href="#t"/><use transform="matrix(0.05,0,0,0.05,15.949999999999998,0)" xlink:href="#C"/><use transform="matrix(0.05,0,0,0.05,24.95,0)" xlink:href="#v"/></g><path d="M145-31C134-9 116 4 85 4 32 4 16-35 15-94c0-59 17-99 70-100 32-1 48 14 60 33 0-11-1-24 2-32h30l-1 268h-32zM93-21c41 0 51-33 51-76s-8-73-50-73c-40 0-46 35-46 75s5 74 45 74" id="G"/><path d="M84 4C-5 8 30-112 23-190h32v120c0 31 7 50 39 49 72-2 45-101 50-169h31l1 190h-30c-1-10 1-25-2-33-11 22-28 36-60 37" id="H"/><g id="j"><use transform="matrix(0.05,0,0,0.05,0,0)" xlink:href="#G"/><use transform="matrix(0.05,0,0,0.05,10,0)" xlink:href="#H"/><use transform="matrix(0.05,0,0,0.05,20,0)" xlink:href="#t"/><use transform="matrix(0.05,0,0,0.05,30,0)" xlink:href="#s"/><use transform="matrix(0.05,0,0,0.05,33.95,0)" xlink:href="#B"/><use transform="matrix(0.05,0,0,0.05,37.900000000000006,0)" xlink:href="#E"/><use transform="matrix(0.05,0,0,0.05,42.900000000000006,0)" xlink:href="#B"/><use transform="matrix(0.05,0,0,0.05,46.85000000000001,0)" xlink:href="#C"/><use transform="matrix(0.05,0,0,0.05,55.85,0)" xlink:href="#t"/><use transform="matrix(0.05,0,0,0.05,65.85000000000001,0)" xlink:href="#y"/><use transform="matrix(0.05,0,0,0.05,70.85000000000001,0)" xlink:href="#B"/><use transform="matrix(0.05,0,0,0.05,74.80000000000001,0)" xlink:href="#m"/><use transform="matrix(0.05,0,0,0.05,84.80000000000001,0)" xlink:href="#D"/></g><path fill="#333" d="M18-100v-36l175-74v27L42-118l151 64v27" id="I"/><path fill="#333" d="M100-194c63 0 86 42 84 106H49c0 40 14 67 53 68 26 1 43-12 49-29l28 8c-11 28-37 45-77 45C44 4 14-33 15-96c1-61 26-98 85-98zm52 81c6-60-76-77-97-28-3 7-6 17-6 28h103" id="J"/><path fill="#333" d="M141 0L90-78 38 0H4l68-98-65-92h35l48 74 47-74h35l-64 92 68 98h-35" id="K"/><path fill="#333" d="M59-47c-2 24 18 29 38 22v24C64 9 27 4 27-40v-127H5v-23h24l9-43h21v43h35v23H59v120" id="L"/><path fill="#333" d="M117-194c89-4 53 116 60 194h-32v-121c0-31-8-49-39-48C34-167 62-67 57 0H25l-1-190h30c1 10-1 24 2 32 11-22 29-35 61-36" id="M"/><path fill="#333" d="M85-194c31 0 48 13 60 33l-1-100h32l1 261h-30c-2-10 0-23-3-31C134-8 116 4 85 4 32 4 16-35 15-94c0-66 23-100 70-100zm9 24c-40 0-46 34-46 75 0 40 6 74 45 74 42 0 51-32 51-76 0-42-9-74-50-73" id="N"/><path fill="#333" d="M18-27v-27l151-64-151-65v-27l175 74v36" id="O"/><g id="k"><use transform="matrix(0.04938271604938272,0,0,0.04938271604938272,0,0)" xlink:href="#I"/><use transform="matrix(0.04938271604938272,0,0,0.04938271604938272,10.370370370370372,0)" xlink:href="#I"/><use transform="matrix(0.04938271604938272,0,0,0.04938271604938272,20.740740740740744,0)" xlink:href="#J"/><use transform="matrix(0.04938271604938272,0,0,0.04938271604938272,30.617283950617285,0)" xlink:href="#K"/><use transform="matrix(0.04938271604938272,0,0,0.04938271604938272,39.50617283950618,0)" xlink:href="#L"/><use transform="matrix(0.04938271604938272,0,0,0.04938271604938272,44.44444444444445,0)" xlink:href="#J"/><use transform="matrix(0.04938271604938272,0,0,0.04938271604938272,54.320987654320994,0)" xlink:href="#M"/><use transform="matrix(0.04938271604938272,0,0,0.04938271604938272,64.19753086419755,0)" xlink:href="#N"/><use transform="matrix(0.04938271604938272,0,0,0.04938271604938272,74.07407407407409,0)" xlink:href="#O"/><use transform="matrix(0.04938271604938272,0,0,0.04938271604938272,84.44444444444446,0)" xlink:href="#O"/></g></defs></g></svg>