<svg xmlns="http://www.w3.org/2000/svg" xmlns:xlink="http://www.w3.org/1999/xlink" xmlns:lucid="lucid" width="760.88" height="812.04"><g transform="translate(-920.625 -629.4643670927464)" lucid:page-tab-id="0_0"><path d="M1182.78 656.96a6 6 0 0 1 6-6h253a6 6 0 0 1 6 6v8a14.48 14.48 0 0 1-4.24 10.25l-1.5 1.52a14.48 14.48 0 0 1-10.26 4.24h-243a6 6 0 0 1-6-6z" fill="#fff"/><path d="M1447.78 650.96v20l-10 10h-255" stroke="#3a414a" stroke-width="3" fill="none"/><path d="M1182.78 656.96a6 6 0 0 1 6-6H1654a6 6 0 0 1 6 6V1414a6 6 0 0 1-6 6h-465.22a6 6 0 0 1-6-6z" stroke="#3a414a" stroke-width="3" fill="none"/><use xlink:href="#a" transform="matrix(1,0,0,1,1190.783356221215,650.9643670927464) translate(0 18.6)"/><use xlink:href="#b" transform="matrix(1,0,0,1,1190.783356221215,650.9643670927464) translate(118.9 18.6)"/><use xlink:href="#c" transform="matrix(1,0,0,1,1190.783356221215,650.9643670927464) translate(135.9 18.6)"/><path d="M1019.75 730.7c0 10.92-8.84 19.76-19.75 19.76-10.9 0-19.75-8.84-19.75-19.75 0-10.9 8.84-19.74 19.75-19.74 10.9 0 19.75 8.85 19.75 19.75z" stroke="#3a414a" stroke-width="3" fill="#fff"/><path d="M1000 750.46v49.3a20.7 20.7 0 0 0 3.2 11.07l36.8 58.13m-40-63.2l-40 63.2m0-98.75h80" stroke="#3a414a" stroke-width="3" fill="none"/><path d="M960 716.96a6 6 0 0 1 6-6h68a6 6 0 0 1 6 6v168a6 6 0 0 1-6 6h-68a6 6 0 0 1-6-6z" fill="none"/><use xlink:href="#d" transform="matrix(1,0,0,1,880,868.9643670927464) translate(61.62499999999999 14.6)"/><use xlink:href="#e" transform="matrix(1,0,0,1,880,868.9643670927464) translate(143.425 14.6)"/><path d="M1502.78 950.96c0 33.14-35.8 60-80 60-44.18 0-80-26.86-80-60 0-33.13 35.82-60 80-60 44.2 0 80 26.87 80 60z" stroke="#3a414a" stroke-width="3" fill="#fff"/><use xlink:href="#f" transform="matrix(1,0,0,1,1342.783356221215,890.9643670927464) translate(35.529999999999994 51.9)"/><use xlink:href="#g" transform="matrix(1,0,0,1,1342.783356221215,890.9643670927464) translate(84.47999999999999 51.9)"/><use xlink:href="#h" transform="matrix(1,0,0,1,1342.783356221215,890.9643670927464) translate(104.48 51.9)"/><use xlink:href="#i" transform="matrix(1,0,0,1,1342.783356221215,890.9643670927464) translate(48.504999999999995 73.5)"/><path d="M1502.78 760.96c0 33.14-35.8 60-80 60-44.18 0-80-26.86-80-60 0-33.13 35.82-60 80-60 44.2 0 80 26.87 80 60z" stroke="#3a414a" stroke-width="3" fill="#fff"/><use xlink:href="#j" transform="matrix(1,0,0,1,1342.783356221215,700.9643670927464) translate(34.07999999999999 51.9)"/><use xlink:href="#h" transform="matrix(1,0,0,1,1342.783356221215,700.9643670927464) translate(105.93 51.9)"/><use xlink:href="#i" transform="matrix(1,0,0,1,1342.783356221215,700.9643670927464) translate(48.504999999999995 73.5)"/><path d="M1003 789.42l337.43-20.7M1003.04 789.42l-4.53.28" stroke="#3a414a" stroke-width="3" fill="none"/><path d="M1341.7 767.24l.47 2.84-1.7.1-.17-2.94 1.4-.1z" stroke="#3a414a" stroke-width=".05" fill="#3a414a"/><path d="M1002.9 790.73l344.7 133.52M1002.93 790.74l-4.23-1.64" stroke="#3a414a" stroke-width="3" fill="none"/><path d="M1349.84 923.53l-.7 1.02-.9 1.53-1.2-.47 1.07-2.74zM1424.26 887.96h-2.95v-10.84h2.96zm0-32.44h-2.95v-12.44h2.96z" stroke="#3a414a" stroke-width=".05" fill="#3a414a"/><path d="M1424.26 889.5l-1.46-.04h-.95l-.54.03v-1.57h2.96z" fill="#3a414a"/><path stroke="#3a414a" stroke-width=".05" fill="#3a414a"/><path d="M1427.42 841.58h-9.27l4.63-14.26z" fill="#3a414a"/><path d="M1429.45 843.06h-13.33l6.66-20.5zm-9.27-2.95h5.2l-2.6-8z" stroke="#3a414a" stroke-width=".05" fill="#3a414a"/><use xlink:href="#k" transform="matrix(1,0,0,1,1373.333356221215,855.524848086894) translate(0 14.4)"/><path d="M1502.78 1088.5c0 33.13-35.8 60-80 60-44.18 0-80-26.87-80-60 0-33.15 35.82-60 80-60 44.2 0 80 26.85 80 60z" stroke="#3a414a" stroke-width="3" fill="#fff"/><use xlink:href="#l" transform="matrix(1,0,0,1,1342.783356221215,1028.490023160813) translate(52.505 63.15)"/><path d="M1019.75 1019.75c0 10.9-8.84 19.75-19.75 19.75-10.9 0-19.75-8.84-19.75-19.75 0-10.9 8.84-19.75 19.75-19.75 10.9 0 19.75 8.84 19.75 19.75z" stroke="#3a414a" stroke-width="3" fill="#fff"/><path d="M1000 1039.5v49.3a20.7 20.7 0 0 0 3.2 11.07L1040 1158m-40-63.2l-40 63.2m0-98.75h80" stroke="#3a414a" stroke-width="3" fill="none"/><path d="M960 1006a6 6 0 0 1 6-6h68a6 6 0 0 1 6 6v168a6 6 0 0 1-6 6h-68a6 6 0 0 1-6-6z" fill="none"/><use xlink:href="#m" transform="matrix(1,0,0,1,880,1158) translate(94.55 14.6)"/><path d="M1003 1078.73l336.8 10M1003.04 1078.73l-4.54-.13" stroke="#3a414a" stroke-width="3" fill="none"/><path d="M1341.32 1087.3l-.04 1.17v.43l.06 1.36-1.64-.05.1-2.94z" stroke="#3a414a" stroke-width=".05" fill="#3a414a"/><path d="M1019.75 1239.75c0 10.9-8.84 19.75-19.75 19.75-10.9 0-19.75-8.84-19.75-19.75 0-10.9 8.84-19.75 19.75-19.75 10.9 0 19.75 8.84 19.75 19.75z" stroke="#3a414a" stroke-width="3" fill="#fff"/><path d="M1000 1259.5v49.3a20.7 20.7 0 0 0 3.2 11.07L1040 1378m-40-63.2l-40 63.2m0-98.75h80" stroke="#3a414a" stroke-width="3" fill="none"/><path d="M960 1226a6 6 0 0 1 6-6h68a6 6 0 0 1 6 6v168a6 6 0 0 1-6 6h-68a6 6 0 0 1-6-6z" fill="none"/><g><use xlink:href="#n" transform="matrix(1,0,0,1,880,1378) translate(94.55 14.6)"/></g><path d="M1502.78 1300c0 33.14-35.8 60-80 60-44.18 0-80-26.86-80-60s35.82-60 80-60c44.2 0 80 26.86 80 60z" stroke="#3a414a" stroke-width="3" fill="#fff"/><g><use xlink:href="#o" transform="matrix(1,0,0,1,1342.783356221215,1240) translate(48.53 40.65)"/><use xlink:href="#p" transform="matrix(1,0,0,1,1342.783356221215,1240) translate(19.005000000000003 62.25)"/><use xlink:href="#q" transform="matrix(1,0,0,1,1342.783356221215,1240) translate(87.00500000000001 62.25)"/><use xlink:href="#r" transform="matrix(1,0,0,1,1342.783356221215,1240) translate(126.00500000000001 62.25)"/><use xlink:href="#s" transform="matrix(1,0,0,1,1342.783356221215,1240) translate(50.03 83.85000000000001)"/><use xlink:href="#e" transform="matrix(1,0,0,1,1342.783356221215,1240) translate(75.03 83.85000000000001)"/></g><path d="M1003 1298.67l336.85 3.24M1003.04 1298.67l-4.54-.04" stroke="#3a414a" stroke-width="3" fill="none"/><path d="M1341.3 1300.45l.1 2.9v.05h-1.6l.02-2.96z" stroke="#3a414a" stroke-width=".05" fill="#3a414a"/><defs><path d="M205 0l-28-72H64L36 0H1l101-248h38L239 0h-34zm-38-99l-47-123c-12 45-31 82-46 123h93" id="t"/><path d="M84 4C-5 8 30-112 23-190h32v120c0 31 7 50 39 49 72-2 45-101 50-169h31l1 190h-30c-1-10 1-25-2-33-11 22-28 36-60 37" id="u"/><path d="M59-47c-2 24 18 29 38 22v24C64 9 27 4 27-40v-127H5v-23h24l9-43h21v43h35v23H59v120" id="v"/><path d="M106-169C34-169 62-67 57 0H25v-261h32l-1 103c12-21 28-36 61-36 89 0 53 116 60 194h-32v-121c2-32-8-49-39-48" id="w"/><path d="M100-194c63 0 86 42 84 106H49c0 40 14 67 53 68 26 1 43-12 49-29l28 8c-11 28-37 45-77 45C44 4 14-33 15-96c1-61 26-98 85-98zm52 81c6-60-76-77-97-28-3 7-6 17-6 28h103" id="x"/><path d="M117-194c89-4 53 116 60 194h-32v-121c0-31-8-49-39-48C34-167 62-67 57 0H25l-1-190h30c1 10-1 24 2 32 11-22 29-35 61-36" id="y"/><path d="M24-231v-30h32v30H24zM24 0v-190h32V0H24" id="z"/><path d="M96-169c-40 0-48 33-48 73s9 75 48 75c24 0 41-14 43-38l32 2c-6 37-31 61-74 61-59 0-76-41-82-99-10-93 101-131 147-64 4 7 5 14 7 22l-32 3c-4-21-16-35-41-35" id="A"/><path d="M141-36C126-15 110 5 73 4 37 3 15-17 15-53c-1-64 63-63 125-63 3-35-9-54-41-54-24 1-41 7-42 31l-33-3c5-37 33-52 76-52 45 0 72 20 72 64v82c-1 20 7 32 28 27v20c-31 9-61-2-59-35zM48-53c0 20 12 33 32 33 41-3 63-29 60-74-43 2-92-5-92 41" id="B"/><path d="M100-194c62-1 85 37 85 99 1 63-27 99-86 99S16-35 15-95c0-66 28-99 85-99zM99-20c44 1 53-31 53-75 0-43-8-75-51-75s-53 32-53 75 10 74 51 75" id="C"/><g id="a"><use transform="matrix(0.05,0,0,0.05,0,0)" xlink:href="#t"/><use transform="matrix(0.05,0,0,0.05,12,0)" xlink:href="#u"/><use transform="matrix(0.05,0,0,0.05,22,0)" xlink:href="#v"/><use transform="matrix(0.05,0,0,0.05,27,0)" xlink:href="#w"/><use transform="matrix(0.05,0,0,0.05,37,0)" xlink:href="#x"/><use transform="matrix(0.05,0,0,0.05,47,0)" xlink:href="#y"/><use transform="matrix(0.05,0,0,0.05,57,0)" xlink:href="#v"/><use transform="matrix(0.05,0,0,0.05,62,0)" xlink:href="#z"/><use transform="matrix(0.05,0,0,0.05,65.95,0)" xlink:href="#A"/><use transform="matrix(0.05,0,0,0.05,74.95,0)" xlink:href="#B"/><use transform="matrix(0.05,0,0,0.05,84.95,0)" xlink:href="#v"/><use transform="matrix(0.05,0,0,0.05,89.95,0)" xlink:href="#z"/><use transform="matrix(0.05,0,0,0.05,93.9,0)" xlink:href="#C"/><use transform="matrix(0.05,0,0,0.05,103.9,0)" xlink:href="#y"/></g><path d="M234-2c-28 10-62 0-77-18C117 19 8 12 13-65c3-43 29-61 60-76-25-40-17-114 47-108 35 3 59 15 59 50 0 44-40 53-71 69 14 26 32 50 51 72 14-21 24-43 30-72l26 8c-9 33-21 57-38 82 13 13 33 22 57 15v23zM97-151c25-10 52-18 56-48-1-18-13-29-33-29-42 0-39 50-23 77zM42-66c-3 51 71 58 98 28-20-24-41-51-56-80-23 10-40 24-42 52" id="D"/><use transform="matrix(0.05,0,0,0.05,0,0)" xlink:href="#D" id="b"/><path d="M114-163C36-179 61-72 57 0H25l-1-190h30c1 12-1 29 2 39 6-27 23-49 58-41v29" id="E"/><path d="M9 0v-24l116-142H16v-24h144v24L44-24h123V0H9" id="F"/><g id="c"><use transform="matrix(0.05,0,0,0.05,0,0)" xlink:href="#t"/><use transform="matrix(0.05,0,0,0.05,12,0)" xlink:href="#u"/><use transform="matrix(0.05,0,0,0.05,22,0)" xlink:href="#v"/><use transform="matrix(0.05,0,0,0.05,27,0)" xlink:href="#w"/><use transform="matrix(0.05,0,0,0.05,37,0)" xlink:href="#C"/><use transform="matrix(0.05,0,0,0.05,47,0)" xlink:href="#E"/><use transform="matrix(0.05,0,0,0.05,52.95,0)" xlink:href="#z"/><use transform="matrix(0.05,0,0,0.05,56.900000000000006,0)" xlink:href="#F"/><use transform="matrix(0.05,0,0,0.05,65.9,0)" xlink:href="#B"/><use transform="matrix(0.05,0,0,0.05,75.9,0)" xlink:href="#v"/><use transform="matrix(0.05,0,0,0.05,80.9,0)" xlink:href="#z"/><use transform="matrix(0.05,0,0,0.05,84.85000000000001,0)" xlink:href="#C"/><use transform="matrix(0.05,0,0,0.05,94.85000000000001,0)" xlink:href="#y"/></g><path d="M190 0L58-211 59 0H30v-248h39L202-35l-2-213h31V0h-41" id="G"/><path d="M16-82v-28h88v28H16" id="H"/><path d="M24 0v-261h32V0H24" id="I"/><path d="M177-190C167-65 218 103 67 71c-23-6-38-20-44-43l32-5c15 47 100 32 89-28v-30C133-14 115 1 83 1 29 1 15-40 15-95c0-56 16-97 71-98 29-1 48 16 59 35 1-10 0-23 2-32h30zM94-22c36 0 50-32 50-73 0-42-14-75-50-75-39 0-46 34-46 75s6 73 46 73" id="J"/><g id="d"><use transform="matrix(0.05,0,0,0.05,0,0)" xlink:href="#G"/><use transform="matrix(0.05,0,0,0.05,12.950000000000001,0)" xlink:href="#C"/><use transform="matrix(0.05,0,0,0.05,22.950000000000003,0)" xlink:href="#y"/><use transform="matrix(0.05,0,0,0.05,32.95,0)" xlink:href="#H"/><use transform="matrix(0.05,0,0,0.05,38.900000000000006,0)" xlink:href="#I"/><use transform="matrix(0.05,0,0,0.05,42.85000000000001,0)" xlink:href="#C"/><use transform="matrix(0.05,0,0,0.05,52.85,0)" xlink:href="#J"/><use transform="matrix(0.05,0,0,0.05,62.85,0)" xlink:href="#z"/><use transform="matrix(0.05,0,0,0.05,66.80000000000001,0)" xlink:href="#y"/></g><path d="M135-143c-3-34-86-38-87 0 15 53 115 12 119 90S17 21 10-45l28-5c4 36 97 45 98 0-10-56-113-15-118-90-4-57 82-63 122-42 12 7 21 19 24 35" id="K"/><g id="e"><use transform="matrix(0.05,0,0,0.05,0,0)" xlink:href="#u"/><use transform="matrix(0.05,0,0,0.05,10,0)" xlink:href="#K"/><use transform="matrix(0.05,0,0,0.05,19,0)" xlink:href="#x"/><use transform="matrix(0.05,0,0,0.05,29,0)" xlink:href="#E"/></g><path d="M30 0v-248h33v221h125V0H30" id="L"/><g id="f"><use transform="matrix(0.05,0,0,0.05,0,0)" xlink:href="#L"/><use transform="matrix(0.05,0,0,0.05,10,0)" xlink:href="#C"/><use transform="matrix(0.05,0,0,0.05,20,0)" xlink:href="#J"/><use transform="matrix(0.05,0,0,0.05,30,0)" xlink:href="#z"/><use transform="matrix(0.05,0,0,0.05,33.95,0)" xlink:href="#y"/></g><g id="g"><use transform="matrix(0.05,0,0,0.05,0,0)" xlink:href="#v"/><use transform="matrix(0.05,0,0,0.05,5,0)" xlink:href="#C"/></g><g id="h"><use transform="matrix(0.05,0,0,0.05,0,0)" xlink:href="#B"/><use transform="matrix(0.05,0,0,0.05,10,0)" xlink:href="#y"/></g><g id="i"><use transform="matrix(0.05,0,0,0.05,0,0)" xlink:href="#B"/><use transform="matrix(0.05,0,0,0.05,10,0)" xlink:href="#A"/><use transform="matrix(0.05,0,0,0.05,19,0)" xlink:href="#A"/><use transform="matrix(0.05,0,0,0.05,28,0)" xlink:href="#C"/><use transform="matrix(0.05,0,0,0.05,38,0)" xlink:href="#u"/><use transform="matrix(0.05,0,0,0.05,48,0)" xlink:href="#y"/><use transform="matrix(0.05,0,0,0.05,58,0)" xlink:href="#v"/></g><path d="M233-177c-1 41-23 64-60 70L243 0h-38l-65-103H63V0H30v-248c88 3 205-21 203 71zM63-129c60-2 137 13 137-47 0-61-80-42-137-45v92" id="M"/><g id="j"><use transform="matrix(0.05,0,0,0.05,0,0)" xlink:href="#M"/><use transform="matrix(0.05,0,0,0.05,12.950000000000001,0)" xlink:href="#x"/><use transform="matrix(0.05,0,0,0.05,22.950000000000003,0)" xlink:href="#J"/><use transform="matrix(0.05,0,0,0.05,32.95,0)" xlink:href="#z"/><use transform="matrix(0.05,0,0,0.05,36.900000000000006,0)" xlink:href="#K"/><use transform="matrix(0.05,0,0,0.05,45.900000000000006,0)" xlink:href="#v"/><use transform="matrix(0.05,0,0,0.05,50.900000000000006,0)" xlink:href="#x"/><use transform="matrix(0.05,0,0,0.05,60.900000000000006,0)" xlink:href="#E"/></g><path d="M18-100v-36l175-74v27L42-118l151 64v27" id="N"/><path d="M85-194c31 0 48 13 60 33l-1-100h32l1 261h-30c-2-10 0-23-3-31C134-8 116 4 85 4 32 4 16-35 15-94c0-66 23-100 70-100zm9 24c-40 0-46 34-46 75 0 40 6 74 45 74 42 0 51-32 51-76 0-42-9-74-50-73" id="O"/><path d="M18-27v-27l151-64-151-65v-27l175 74v36" id="P"/><g id="k"><use transform="matrix(0.05,0,0,0.05,0,0)" xlink:href="#N"/><use transform="matrix(0.05,0,0,0.05,10.5,0)" xlink:href="#N"/><use transform="matrix(0.05,0,0,0.05,21,0)" xlink:href="#z"/><use transform="matrix(0.05,0,0,0.05,24.95,0)" xlink:href="#y"/><use transform="matrix(0.05,0,0,0.05,34.95,0)" xlink:href="#A"/><use transform="matrix(0.05,0,0,0.05,43.95,0)" xlink:href="#I"/><use transform="matrix(0.05,0,0,0.05,47.900000000000006,0)" xlink:href="#u"/><use transform="matrix(0.05,0,0,0.05,57.900000000000006,0)" xlink:href="#O"/><use transform="matrix(0.05,0,0,0.05,67.9,0)" xlink:href="#x"/><use transform="matrix(0.05,0,0,0.05,77.9,0)" xlink:href="#P"/><use transform="matrix(0.05,0,0,0.05,88.4,0)" xlink:href="#P"/></g><g id="l"><use transform="matrix(0.05,0,0,0.05,0,0)" xlink:href="#L"/><use transform="matrix(0.05,0,0,0.05,10,0)" xlink:href="#C"/><use transform="matrix(0.05,0,0,0.05,20,0)" xlink:href="#J"/><use transform="matrix(0.05,0,0,0.05,30,0)" xlink:href="#C"/><use transform="matrix(0.05,0,0,0.05,40,0)" xlink:href="#u"/><use transform="matrix(0.05,0,0,0.05,50,0)" xlink:href="#v"/></g><path d="M30-248c87 1 191-15 191 75 0 78-77 80-158 76V0H30v-248zm33 125c57 0 124 11 124-50 0-59-68-47-124-48v98" id="Q"/><path d="M179-190L93 31C79 59 56 82 12 73V49c39 6 53-20 64-50L1-190h34L92-34l54-156h33" id="R"/><g id="m"><use transform="matrix(0.05,0,0,0.05,0,0)" xlink:href="#Q"/><use transform="matrix(0.05,0,0,0.05,12,0)" xlink:href="#I"/><use transform="matrix(0.05,0,0,0.05,15.949999999999998,0)" xlink:href="#B"/><use transform="matrix(0.05,0,0,0.05,25.950000000000003,0)" xlink:href="#R"/><use transform="matrix(0.05,0,0,0.05,34.95,0)" xlink:href="#x"/><use transform="matrix(0.05,0,0,0.05,44.95,0)" xlink:href="#E"/></g><path d="M210-169c-67 3-38 105-44 169h-31v-121c0-29-5-50-35-48C34-165 62-65 56 0H25l-1-190h30c1 10-1 24 2 32 10-44 99-50 107 0 11-21 27-35 58-36 85-2 47 119 55 194h-31v-121c0-29-5-49-35-48" id="S"/><g id="n"><use transform="matrix(0.05,0,0,0.05,0,0)" xlink:href="#t"/><use transform="matrix(0.05,0,0,0.05,12,0)" xlink:href="#O"/><use transform="matrix(0.05,0,0,0.05,22,0)" xlink:href="#S"/><use transform="matrix(0.05,0,0,0.05,36.95,0)" xlink:href="#z"/><use transform="matrix(0.05,0,0,0.05,40.900000000000006,0)" xlink:href="#y"/></g><path d="M212-179c-10-28-35-45-73-45-59 0-87 40-87 99 0 60 29 101 89 101 43 0 62-24 78-52l27 14C228-24 195 4 139 4 59 4 22-46 18-125c-6-104 99-153 187-111 19 9 31 26 39 46" id="T"/><g id="o"><use transform="matrix(0.05,0,0,0.05,0,0)" xlink:href="#T"/><use transform="matrix(0.05,0,0,0.05,12.950000000000001,0)" xlink:href="#w"/><use transform="matrix(0.05,0,0,0.05,22.950000000000003,0)" xlink:href="#B"/><use transform="matrix(0.05,0,0,0.05,32.95,0)" xlink:href="#y"/><use transform="matrix(0.05,0,0,0.05,42.95,0)" xlink:href="#J"/><use transform="matrix(0.05,0,0,0.05,52.95,0)" xlink:href="#x"/></g><g id="p"><use transform="matrix(0.05,0,0,0.05,0,0)" xlink:href="#B"/><use transform="matrix(0.05,0,0,0.05,10,0)" xlink:href="#A"/><use transform="matrix(0.05,0,0,0.05,19,0)" xlink:href="#A"/><use transform="matrix(0.05,0,0,0.05,28,0)" xlink:href="#C"/><use transform="matrix(0.05,0,0,0.05,38,0)" xlink:href="#u"/><use transform="matrix(0.05,0,0,0.05,48,0)" xlink:href="#y"/><use transform="matrix(0.05,0,0,0.05,58,0)" xlink:href="#v"/></g><path d="M115-194c55 1 70 41 70 98S169 2 115 4C84 4 66-9 55-30l1 105H24l-1-265h31l2 30c10-21 28-34 59-34zm-8 174c40 0 45-34 45-75s-6-73-45-74c-42 0-51 32-51 76 0 43 10 73 51 73" id="U"/><g id="q"><use transform="matrix(0.05,0,0,0.05,0,0)" xlink:href="#v"/><use transform="matrix(0.05,0,0,0.05,5,0)" xlink:href="#R"/><use transform="matrix(0.05,0,0,0.05,14,0)" xlink:href="#U"/><use transform="matrix(0.05,0,0,0.05,24,0)" xlink:href="#x"/></g><path d="M101-234c-31-9-42 10-38 44h38v23H63V0H32v-167H5v-23h27c-7-52 17-82 69-68v24" id="V"/><g id="r"><use transform="matrix(0.05,0,0,0.05,0,0)" xlink:href="#C"/><use transform="matrix(0.05,0,0,0.05,10,0)" xlink:href="#V"/></g><g id="s"><use transform="matrix(0.05,0,0,0.05,0,0)" xlink:href="#B"/><use transform="matrix(0.05,0,0,0.05,10,0)" xlink:href="#y"/></g></defs></g></svg>