<svg xmlns="http://www.w3.org/2000/svg" xmlns:xlink="http://www.w3.org/1999/xlink" xmlns:lucid="lucid" width="1279.05" height="876.72"><g transform="translate(903.1760198426164 4081.5)" lucid:page-tab-id="0_0"><path d="M-651.34-4040.28a6 6 0 0 1 6-6h253a6 6 0 0 1 6 6v8a14.48 14.48 0 0 1-4.24 10.25l-1.52 1.5a14.48 14.48 0 0 1-10.24 4.25h-243a6 6 0 0 1-6-6z" fill="#fff"/><path d="M-386.34-4046.28v20l-10 10h-255" stroke="#3a414a" stroke-width="3" fill="none"/><path d="M-651.34-4040.28a6 6 0 0 1 6-6H94a6 6 0 0 1 6 6v808a6 6 0 0 1-6 6h-739.34a6 6 0 0 1-6-6z" stroke="#3a414a" stroke-width="3" fill="none"/><use xlink:href="#a" transform="matrix(1,0,0,1,-643.3411207211811,-4046.2764702391414) translate(0 18.6)"/><use xlink:href="#b" transform="matrix(1,0,0,1,-643.3411207211811,-4046.2764702391414) translate(43.900000000000006 18.6)"/><path d="M259.75-3800.25c0 10.9-8.84 19.75-19.75 19.75-10.9 0-19.75-8.84-19.75-19.75 0-10.9 8.84-19.75 19.75-19.75 10.9 0 19.75 8.84 19.75 19.75z" stroke="#3a414a" stroke-width="3" fill="#fff"/><path d="M240-3780.5v49.3a20.7 20.7 0 0 0 3.2 11.07L280-3662m-40-63.2l-40 63.2m0-98.75h80" stroke="#3a414a" stroke-width="3" fill="none"/><path d="M200-3814a6 6 0 0 1 6-6h68a6 6 0 0 1 6 6v168a6 6 0 0 1-6 6h-68a6 6 0 0 1-6-6z" fill="none"/><use xlink:href="#a" transform="matrix(1,0,0,1,120,-3662) translate(5.174999999999983 14.6)"/><use xlink:href="#c" transform="matrix(1,0,0,1,120,-3662) translate(49.07499999999999 14.6)"/><use xlink:href="#d" transform="matrix(1,0,0,1,120,-3662) translate(135.975 14.6)"/><use xlink:href="#e" transform="matrix(1,0,0,1,120,-3662) translate(177.875 14.6)"/><path d="M-439.18-3533.6c0 33.15-35.8 60-80 60-44.18 0-80-26.85-80-60 0-33.12 35.82-60 80-60 44.2 0 80 26.88 80 60z" stroke="#3a414a" stroke-width="3" fill="#fff"/><use xlink:href="#f" transform="matrix(1,0,0,1,-599.1760198426164,-3593.587199824069) translate(24.07999999999999 51.9)"/><use xlink:href="#g" transform="matrix(1,0,0,1,-599.1760198426164,-3593.587199824069) translate(80.03 51.9)"/><use xlink:href="#h" transform="matrix(1,0,0,1,-599.1760198426164,-3593.587199824069) translate(18.554999999999986 73.5)"/><use xlink:href="#i" transform="matrix(1,0,0,1,-599.1760198426164,-3593.587199824069) translate(87.505 73.5)"/><path d="M-812.26-3632.1l215.85 75.44M-812.22-3632.1l-4.3-1.5" stroke="#3a414a" stroke-width="3" fill="none"/><path d="M-594.3-3557.5l-.25.46-1.12 2.2-1.26-.44.97-2.8z" stroke="#3a414a" stroke-width=".05" fill="#3a414a"/><path d="M-69.28-3743.6c0 33.15-42.53 60-95 60-52.46 0-95-26.85-95-60 0-33.12 42.54-60 95-60 52.47 0 95 26.88 95 60z" stroke="#3a414a" stroke-width="3" fill="#fff"/><use xlink:href="#j" transform="matrix(1,0,0,1,-259.27601984261673,-3803.587199824069) translate(79.00500000000001 51.9)"/><use xlink:href="#k" transform="matrix(1,0,0,1,-259.27601984261673,-3803.587199824069) translate(22.180000000000014 73.5)"/><path d="M-59.28-3610.47c0 33.13-42.53 60-95 60-52.46 0-95-26.87-95-60 0-33.14 42.54-60 95-60 52.47 0 95 26.86 95 60z" stroke="#3a414a" stroke-width="3" fill="#fff"/><use xlink:href="#l" transform="matrix(1,0,0,1,-249.27601984261673,-3670.4735140614384) translate(61.55499999999999 51.9)"/><use xlink:href="#k" transform="matrix(1,0,0,1,-249.27601984261673,-3670.4735140614384) translate(22.180000000000014 73.5)"/><path d="M-437.3-3582.03l13.4-7.93m13.4-7.93l26.8-15.85m13.4-7.93l26.8-15.86m13.4-7.93l26.8-15.86m13.4-7.93l26.8-15.85m13.4-7.94l13.4-7.93" stroke="#3a414a" stroke-width="3" fill="none"/><path d="M-450.87-3574l9.92-11.26 4.72 7.98z" stroke="#3a414a" stroke-width="3" fill="#3a414a"/><path d="M-233.67-3700.8l-1.9 1.12-1.5-2.54.73-.44z" stroke="#3a414a" stroke-width=".05" fill="#3a414a"/><use xlink:href="#m" transform="matrix(1,0,0,1,-387.32449052513596,-3686.2407676210555) translate(0.005000000000002558 14.222222222222223)"/><path d="M-405.77-3555.97l-14.43 3.03-.6-2.88 14.42-3.04zm43.27-9.12l-28.85 6.1-.6-2.9 28.85-6.08zm43.28-9.1l-28.85 6.07-.6-2.9 28.84-6.07zm43.28-9.13l-28.86 6.08-.6-2.9 28.85-6.07zm28.84-6.08l-14.42 3.03-.6-2.9 14.42-3.03z" stroke="#3a414a" stroke-width=".05" fill="#3a414a"/><path d="M-421-3549.53l-14.93-1.6 13-7.47z" fill="#3a414a"/><path d="M-419.15-3547.85l-21.45-2.3 18.7-10.75zm-12.1-4.26l8.38.88-1.08-5.1z" stroke="#3a414a" stroke-width=".05" fill="#3a414a"/><path d="M-246.2-3591.64l1 1.83-1.93.4-.6-2.9 1.13-.23z" fill="#3a414a"/><path stroke="#3a414a" stroke-width=".05" fill="#3a414a"/><use xlink:href="#m" transform="matrix(1,0,0,1,-327.78446027264397,-3575.8241617561775) translate(0.005000000000002558 14.222222222222223)"/><path d="M-179.28-3357.36c0 33.14-42.53 60-95 60-52.46 0-95-26.86-95-60s42.54-60 95-60c52.47 0 95 26.86 95 60z" stroke="#3a414a" stroke-width="3" fill="#fff"/><use xlink:href="#n" transform="matrix(1,0,0,1,-369.27601984261673,-3417.359828298808) translate(26.07999999999999 63.15)"/><use xlink:href="#o" transform="matrix(1,0,0,1,-369.27601984261673,-3417.359828298808) translate(93.03 63.15)"/><path d="M-399.68-3341.12c0 33.14-42.53 60-95 60-52.46 0-95-26.86-95-60s42.54-60 95-60c52.47 0 95 26.86 95 60z" stroke="#3a414a" stroke-width="3" fill="#fff"/><use xlink:href="#p" transform="matrix(1,0,0,1,-589.6760198426164,-3401.119325662108) translate(23.604999999999997 63.15)"/><use xlink:href="#o" transform="matrix(1,0,0,1,-589.6760198426164,-3401.119325662108) translate(95.50500000000001 63.15)"/><path d="M-338.63-3405.5l-1.73 2.4-11.55-8.3 1.7-2.4zm-23.1-16.62l-1.73 2.4-15.8-11.38h5.04zm-42.14-30.3h-5.05l-12.3-8.87 1.7-2.38zm-27.2-19.58l-1.7 2.4-11.57-8.32 1.73-2.4z" stroke="#3a414a" stroke-width=".05" fill="#3a414a"/><path d="M-336.83-3404.2l-1.82.98-1.02.62-.72-.52 1.73-2.4z" fill="#3a414a"/><path stroke="#3a414a" stroke-width=".05" fill="#3a414a"/><path d="M-441.98-3483.75l-5.42 7.52-8.87-12.1z" fill="#3a414a"/><path d="M-439.6-3484.54l-7.8 10.82-12.75-17.4zm-7.8 5.8l3.03-4.23-8.03-2.56z" stroke="#3a414a" stroke-width=".05" fill="#3a414a"/><use xlink:href="#m" transform="matrix(1,0,0,1,-438.97834117461207,-3452.43063695899) translate(0.005000000000002558 14.222222222222223)"/><path d="M-501.2-3404.07l-2.93.37-2.04-16 2.93-.38zm-5.04-39.6h-2.98l-1.02-8.05 2.92-.38z" stroke="#3a414a" stroke-width=".05" fill="#3a414a"/><path d="M-501-3402.48h-.52l-2.43.18-.18-1.44 2.92-.37z" fill="#3a414a"/><path stroke="#3a414a" stroke-width=".05" fill="#3a414a"/><path d="M-504.37-3453.98l-9.2 1.17 2.8-14.75z" fill="#3a414a"/><path d="M-502.17-3452.78l-13.22 1.7 4.03-21.2zm-9.57-1.75l5.17-.66-3.6-7.62z" stroke="#3a414a" stroke-width=".05" fill="#3a414a"/><use xlink:href="#m" transform="matrix(1,0,0,1,-553.7794603011469,-3443.6680583482726) translate(0.005000000000002558 14.222222222222223)"/><path d="M-40.94-3477.36c0 33.14-42.53 60-95 60s-95-26.86-95-60 42.53-60 95-60 95 26.86 95 60z" stroke="#3a414a" stroke-width="3" fill="#fff"/><use xlink:href="#q" transform="matrix(1,0,0,1,-230.9405101719658,-3537.359828298808) translate(32.055 51.9)"/><use xlink:href="#r" transform="matrix(1,0,0,1,-230.9405101719658,-3537.359828298808) translate(78.055 51.9)"/><use xlink:href="#g" transform="matrix(1,0,0,1,-230.9405101719658,-3537.359828298808) translate(102.05499999999999 51.9)"/><use xlink:href="#h" transform="matrix(1,0,0,1,-230.9405101719658,-3537.359828298808) translate(33.554999999999986 73.5)"/><use xlink:href="#i" transform="matrix(1,0,0,1,-230.9405101719658,-3537.359828298808) translate(102.505 73.5)"/><path d="M-231.27-3492.84l-.43 2.92-15.6-2.3.43-2.9zm-31.2-4.58l-.44 2.92-24.27-3.56v-2.98zm-119.5-17.53v2.98l-5.8-.85.44-2.9zm-20.96-3.07l-.43 2.9-15.6-2.27.42-2.9z" stroke="#3a414a" stroke-width=".05" fill="#3a414a"/><path d="M-229.47-3492.57l-.17.4-.77 2.15-.1.28-1.23-.18.42-2.92z" fill="#3a414a"/><path stroke="#3a414a" stroke-width=".05" fill="#3a414a"/><path d="M-420.9-3514.5l-13.45-6.64 14.78-2.52z" fill="#3a414a"/><path d="M-419.75-3512.26l-19.33-9.57 21.27-3.62zm-9.88-8.2l7.55 3.75.76-5.16z" stroke="#3a414a" stroke-width=".05" fill="#3a414a"/><use xlink:href="#m" transform="matrix(1,0,0,1,-381.98443376028865,-3517.1699561321766) translate(0.005000000000002558 14.222222222222223)"/><path d="M-429.68-3697.12c0 33.14-35.8 60-80 60-44.18 0-80-26.86-80-60s35.82-60 80-60c44.2 0 80 26.86 80 60z" stroke="#3a414a" stroke-width="3" fill="#fff"/><use xlink:href="#s" transform="matrix(1,0,0,1,-589.6760198426164,-3757.119325662108) translate(22.07999999999999 63.15)"/><use xlink:href="#t" transform="matrix(1,0,0,1,-589.6760198426164,-3757.119325662108) translate(90.03 63.15)"/><path d="M-838.9-3903.2l263.82 167.32M-838.88-3903.17l-3.83-2.43" stroke="#3a414a" stroke-width="3" fill="none"/><path d="M-572.7-3736.1l-.76.67-1.42 1.43-1.02-.65 1.58-2.5z" stroke="#3a414a" stroke-width=".05" fill="#3a414a"/><path d="M-68.3-3522.86l305.58-216.57" stroke="#3a414a" stroke-width="3" fill="none"/><path d="M-67.42-3521.68l-.75.53-2.72-1.68 1.77-1.25z" stroke="#3a414a" stroke-width=".05" fill="#3a414a"/><path d="M237.25-3739.4l3.7-2.63" stroke="#3a414a" stroke-width="3" fill="none"/><path d="M239.75-4040.25c0 10.9-8.84 19.75-19.75 19.75-10.9 0-19.75-8.84-19.75-19.75 0-10.9 8.84-19.75 19.75-19.75 10.9 0 19.75 8.84 19.75 19.75z" stroke="#3a414a" stroke-width="3" fill="#fff"/><path d="M220-4020.5v49.3a20.7 20.7 0 0 0 3.2 11.07L260-3902m-40-63.2l-40 63.2m0-98.75h80" stroke="#3a414a" stroke-width="3" fill="none"/><path d="M180-4054a6 6 0 0 1 6-6h68a6 6 0 0 1 6 6v168a6 6 0 0 1-6 6h-68a6 6 0 0 1-6-6z" fill="none"/><use xlink:href="#u" transform="matrix(1,0,0,1,100,-3902) translate(67.1 14.6)"/><use xlink:href="#v" transform="matrix(1,0,0,1,100,-3902) translate(143.89999999999998 14.6)"/><path d="M-795.43-3692c0 10.9-8.84 19.75-19.75 19.75-10.9 0-19.75-8.84-19.75-19.75 0-10.9 8.85-19.75 19.75-19.75s19.75 8.84 19.75 19.75z" stroke="#3a414a" stroke-width="3" fill="#fff"/><path d="M-815.18-3672.25v49.3a20.7 20.7 0 0 0 3.2 11.07l36.8 58.13m-40-63.2l-40 63.2m0-98.75h80" stroke="#3a414a" stroke-width="3" fill="none"/><path d="M-855.18-3705.75a6 6 0 0 1 6-6h68a6 6 0 0 1 6 6v168a6 6 0 0 1-6 6h-68a6 6 0 0 1-6-6z" fill="none"/><use xlink:href="#w" transform="matrix(1,0,0,1,-935.1760198426164,-3553.7501972005284) translate(94.55 14.6)"/><path d="M-821.93-3963.84c0 10.9-8.84 19.75-19.75 19.75-10.9 0-19.75-8.83-19.75-19.74 0-10.9 8.85-19.75 19.75-19.75s19.75 8.86 19.75 19.76z" stroke="#3a414a" stroke-width="3" fill="#fff"/><path d="M-841.68-3944.1v49.3a20.7 20.7 0 0 0 3.2 11.08l36.8 58.13m-40-63.2l-40 63.2m0-98.74h80" stroke="#3a414a" stroke-width="3" fill="none"/><path d="M-881.68-3977.6a6 6 0 0 1 6-6h68a6 6 0 0 1 6 6v168a6 6 0 0 1-6 6h-68a6 6 0 0 1-6-6z" fill="none"/><use xlink:href="#x" transform="matrix(1,0,0,1,-961.6760198426164,-3825.587199824069) translate(94.55 14.6)"/><path d="M-190-3863.6c0 33.15-42.53 60-95 60s-95-26.85-95-60c0-33.12 42.53-60 95-60s95 26.88 95 60z" stroke="#3a414a" stroke-width="3" fill="#fff"/><use xlink:href="#y" transform="matrix(1,0,0,1,-380,-3923.587199824069) translate(35.605000000000004 40.65)"/><use xlink:href="#z" transform="matrix(1,0,0,1,-380,-3923.587199824069) translate(115.45500000000001 40.65)"/><use xlink:href="#A" transform="matrix(1,0,0,1,-380,-3923.587199824069) translate(26.104999999999997 62.25)"/><use xlink:href="#B" transform="matrix(1,0,0,1,-380,-3923.587199824069) translate(65.055 62.25)"/><use xlink:href="#C" transform="matrix(1,0,0,1,-380,-3923.587199824069) translate(91.005 62.25)"/><use xlink:href="#D" transform="matrix(1,0,0,1,-380,-3923.587199824069) translate(128.95499999999998 62.25)"/><use xlink:href="#E" transform="matrix(1,0,0,1,-380,-3923.587199824069) translate(73.05499999999999 83.85000000000001)"/><path d="M237.04-3742.03l-430.92-98.4M237-3742.04l4.43 1" stroke="#3a414a" stroke-width="3" fill="none"/><path d="M-193.52-3841.87l-.66 2.88-2-.45.28-.43 1.37-2.22z" stroke="#3a414a" stroke-width=".05" fill="#3a414a"/><path d="M-76.84-3966.28c0 33.14-35.82 60-80 60s-80-26.86-80-60c0-33.13 35.82-60 80-60s80 26.87 80 60z" stroke="#3a414a" stroke-width="3" fill="#fff"/><g><use xlink:href="#F" transform="matrix(1,0,0,1,-236.84051017196543,-4026.2764702391414) translate(12.054999999999987 63.15)"/><use xlink:href="#C" transform="matrix(1,0,0,1,-236.84051017196543,-4026.2764702391414) translate(75.005 63.15)"/><use xlink:href="#G" transform="matrix(1,0,0,1,-236.84051017196543,-4026.2764702391414) translate(112.955 63.15)"/></g><path d="M-838.68-3905.2l599.64-52.38M-838.64-3905.2l-4.52.4" stroke="#3a414a" stroke-width="3" fill="none"/><path d="M-237.44-3957.08l.2.82-1.7.15-.26-2.95 1.4-.12z" stroke="#3a414a" stroke-width=".05" fill="#3a414a"/><path d="M201.82-3762.98l-293.36-164.46M201.78-3763l3.96 2.22" stroke="#3a414a" stroke-width="3" fill="none"/><path d="M-90.8-3928.7l-1.43 2.56-1.77-1 .94-.83 1.3-1.3z" stroke="#3a414a" stroke-width=".05" fill="#3a414a"/><path d="M-838.68-3904.7l456.03 35.8M-838.64-3904.7l-4.53-.36" stroke="#3a414a" stroke-width="3" fill="none"/><path d="M-380.94-3870.23l-.06.33-.28 2.1-.04.5-1.48-.12.23-2.94z" stroke="#3a414a" stroke-width=".05" fill="#3a414a"/><path d="M217-3981.22l-290.86 14.07M216.96-3981.22l4.54-.22" stroke="#3a414a" stroke-width="3" fill="none"/><path d="M-73.75-3965.68l-1.6.07v-1.09l-.07-1.86 1.53-.07z" stroke="#3a414a" stroke-width=".05" fill="#3a414a"/><defs><path d="M212-179c-10-28-35-45-73-45-59 0-87 40-87 99 0 60 29 101 89 101 43 0 62-24 78-52l27 14C228-24 195 4 139 4 59 4 22-46 18-125c-6-104 99-153 187-111 19 9 31 26 39 46" id="H"/><path d="M100-194c62-1 85 37 85 99 1 63-27 99-86 99S16-35 15-95c0-66 28-99 85-99zM99-20c44 1 53-31 53-75 0-43-8-75-51-75s-53 32-53 75 10 74 51 75" id="I"/><path d="M114-163C36-179 61-72 57 0H25l-1-190h30c1 12-1 29 2 39 6-27 23-49 58-41v29" id="J"/><path d="M100-194c63 0 86 42 84 106H49c0 40 14 67 53 68 26 1 43-12 49-29l28 8c-11 28-37 45-77 45C44 4 14-33 15-96c1-61 26-98 85-98zm52 81c6-60-76-77-97-28-3 7-6 17-6 28h103" id="K"/><g id="a"><use transform="matrix(0.05,0,0,0.05,0,0)" xlink:href="#H"/><use transform="matrix(0.05,0,0,0.05,12.950000000000001,0)" xlink:href="#I"/><use transform="matrix(0.05,0,0,0.05,22.950000000000003,0)" xlink:href="#J"/><use transform="matrix(0.05,0,0,0.05,28.900000000000002,0)" xlink:href="#K"/></g><path d="M143 4C61 4 22-44 18-125c-5-107 100-154 193-111 17 8 29 25 37 43l-32 9c-13-25-37-40-76-40-61 0-88 39-88 99 0 61 29 100 91 101 35 0 62-11 79-27v-45h-74v-28h105v86C228-13 192 4 143 4" id="L"/><path d="M141-36C126-15 110 5 73 4 37 3 15-17 15-53c-1-64 63-63 125-63 3-35-9-54-41-54-24 1-41 7-42 31l-33-3c5-37 33-52 76-52 45 0 72 20 72 64v82c-1 20 7 32 28 27v20c-31 9-61-2-59-35zM48-53c0 20 12 33 32 33 41-3 63-29 60-74-43 2-92-5-92 41" id="M"/><path d="M210-169c-67 3-38 105-44 169h-31v-121c0-29-5-50-35-48C34-165 62-65 56 0H25l-1-190h30c1 10-1 24 2 32 10-44 99-50 107 0 11-21 27-35 58-36 85-2 47 119 55 194h-31v-121c0-29-5-49-35-48" id="N"/><path d="M115-194c55 1 70 41 70 98S169 2 115 4C84 4 66-9 55-30l1 105H24l-1-265h31l2 30c10-21 28-34 59-34zm-8 174c40 0 45-34 45-75s-6-73-45-74c-42 0-51 32-51 76 0 43 10 73 51 73" id="O"/><path d="M24 0v-261h32V0H24" id="P"/><path d="M179-190L93 31C79 59 56 82 12 73V49c39 6 53-20 64-50L1-190h34L92-34l54-156h33" id="Q"/><g id="b"><use transform="matrix(0.05,0,0,0.05,0,0)" xlink:href="#L"/><use transform="matrix(0.05,0,0,0.05,14,0)" xlink:href="#M"/><use transform="matrix(0.05,0,0,0.05,24,0)" xlink:href="#N"/><use transform="matrix(0.05,0,0,0.05,38.95,0)" xlink:href="#K"/><use transform="matrix(0.05,0,0,0.05,48.95,0)" xlink:href="#O"/><use transform="matrix(0.05,0,0,0.05,58.95,0)" xlink:href="#P"/><use transform="matrix(0.05,0,0,0.05,62.900000000000006,0)" xlink:href="#M"/><use transform="matrix(0.05,0,0,0.05,72.9,0)" xlink:href="#Q"/></g><g id="c"><use transform="matrix(0.05,0,0,0.05,0,0)" xlink:href="#L"/><use transform="matrix(0.05,0,0,0.05,14,0)" xlink:href="#M"/><use transform="matrix(0.05,0,0,0.05,24,0)" xlink:href="#N"/><use transform="matrix(0.05,0,0,0.05,38.95,0)" xlink:href="#K"/><use transform="matrix(0.05,0,0,0.05,48.95,0)" xlink:href="#O"/><use transform="matrix(0.05,0,0,0.05,58.95,0)" xlink:href="#P"/><use transform="matrix(0.05,0,0,0.05,62.900000000000006,0)" xlink:href="#M"/><use transform="matrix(0.05,0,0,0.05,72.9,0)" xlink:href="#Q"/></g><path d="M177-190C167-65 218 103 67 71c-23-6-38-20-44-43l32-5c15 47 100 32 89-28v-30C133-14 115 1 83 1 29 1 15-40 15-95c0-56 16-97 71-98 29-1 48 16 59 35 1-10 0-23 2-32h30zM94-22c36 0 50-32 50-73 0-42-14-75-50-75-39 0-46 34-46 75s6 73 46 73" id="R"/><path d="M24-231v-30h32v30H24zM24 0v-190h32V0H24" id="S"/><path d="M96-169c-40 0-48 33-48 73s9 75 48 75c24 0 41-14 43-38l32 2c-6 37-31 61-74 61-59 0-76-41-82-99-10-93 101-131 147-64 4 7 5 14 7 22l-32 3c-4-21-16-35-41-35" id="T"/><g id="d"><use transform="matrix(0.05,0,0,0.05,0,0)" xlink:href="#P"/><use transform="matrix(0.05,0,0,0.05,3.95,0)" xlink:href="#I"/><use transform="matrix(0.05,0,0,0.05,13.949999999999998,0)" xlink:href="#R"/><use transform="matrix(0.05,0,0,0.05,23.95,0)" xlink:href="#S"/><use transform="matrix(0.05,0,0,0.05,27.899999999999995,0)" xlink:href="#T"/></g><path d="M135-143c-3-34-86-38-87 0 15 53 115 12 119 90S17 21 10-45l28-5c4 36 97 45 98 0-10-56-113-15-118-90-4-57 82-63 122-42 12 7 21 19 24 35" id="U"/><path d="M59-47c-2 24 18 29 38 22v24C64 9 27 4 27-40v-127H5v-23h24l9-43h21v43h35v23H59v120" id="V"/><g id="e"><use transform="matrix(0.05,0,0,0.05,0,0)" xlink:href="#U"/><use transform="matrix(0.05,0,0,0.05,9,0)" xlink:href="#Q"/><use transform="matrix(0.05,0,0,0.05,18,0)" xlink:href="#U"/><use transform="matrix(0.05,0,0,0.05,27,0)" xlink:href="#V"/><use transform="matrix(0.05,0,0,0.05,32,0)" xlink:href="#K"/><use transform="matrix(0.05,0,0,0.05,42,0)" xlink:href="#N"/></g><path d="M106-169C34-169 62-67 57 0H25v-261h32l-1 103c12-21 28-36 61-36 89 0 53 116 60 194h-32v-121c2-32-8-49-39-48" id="W"/><path d="M143 0L79-87 56-68V0H24v-261h32v163l83-92h37l-77 82L181 0h-38" id="X"/><g id="f"><use transform="matrix(0.05,0,0,0.05,0,0)" xlink:href="#H"/><use transform="matrix(0.05,0,0,0.05,12.950000000000001,0)" xlink:href="#W"/><use transform="matrix(0.05,0,0,0.05,22.950000000000003,0)" xlink:href="#K"/><use transform="matrix(0.05,0,0,0.05,32.95,0)" xlink:href="#T"/><use transform="matrix(0.05,0,0,0.05,41.95,0)" xlink:href="#X"/></g><path d="M84 4C-5 8 30-112 23-190h32v120c0 31 7 50 39 49 72-2 45-101 50-169h31l1 190h-30c-1-10 1-25-2-33-11 22-28 36-60 37" id="Y"/><path d="M117-194c89-4 53 116 60 194h-32v-121c0-31-8-49-39-48C34-167 62-67 57 0H25l-1-190h30c1 10-1 24 2 32 11-22 29-35 61-36" id="Z"/><g id="g"><use transform="matrix(0.05,0,0,0.05,0,0)" xlink:href="#T"/><use transform="matrix(0.05,0,0,0.05,9,0)" xlink:href="#Y"/><use transform="matrix(0.05,0,0,0.05,19,0)" xlink:href="#J"/><use transform="matrix(0.05,0,0,0.05,24.95,0)" xlink:href="#J"/><use transform="matrix(0.05,0,0,0.05,30.899999999999995,0)" xlink:href="#K"/><use transform="matrix(0.05,0,0,0.05,40.9,0)" xlink:href="#Z"/><use transform="matrix(0.05,0,0,0.05,50.9,0)" xlink:href="#V"/></g><path d="M63-220v92h138v28H63V0H30v-248h175v28H63" id="aa"/><g id="h"><use transform="matrix(0.05,0,0,0.05,0,0)" xlink:href="#aa"/><use transform="matrix(0.05,0,0,0.05,10.950000000000001,0)" xlink:href="#M"/><use transform="matrix(0.05,0,0,0.05,20.950000000000003,0)" xlink:href="#Z"/><use transform="matrix(0.05,0,0,0.05,30.950000000000003,0)" xlink:href="#V"/><use transform="matrix(0.05,0,0,0.05,35.95,0)" xlink:href="#M"/><use transform="matrix(0.05,0,0,0.05,45.95,0)" xlink:href="#U"/><use transform="matrix(0.05,0,0,0.05,54.95,0)" xlink:href="#Q"/></g><path d="M30 0v-248h33v221h125V0H30" id="ab"/><g id="i"><use transform="matrix(0.05,0,0,0.05,0,0)" xlink:href="#ab"/><use transform="matrix(0.05,0,0,0.05,10,0)" xlink:href="#S"/><use transform="matrix(0.05,0,0,0.05,13.949999999999998,0)" xlink:href="#Z"/><use transform="matrix(0.05,0,0,0.05,23.95,0)" xlink:href="#K"/><use transform="matrix(0.05,0,0,0.05,33.95,0)" xlink:href="#Y"/><use transform="matrix(0.05,0,0,0.05,43.95,0)" xlink:href="#O"/></g><path d="M205 0l-28-72H64L36 0H1l101-248h38L239 0h-34zm-38-99l-47-123c-12 45-31 82-46 123h93" id="ac"/><path d="M85-194c31 0 48 13 60 33l-1-100h32l1 261h-30c-2-10 0-23-3-31C134-8 116 4 85 4 32 4 16-35 15-94c0-66 23-100 70-100zm9 24c-40 0-46 34-46 75 0 40 6 74 45 74 42 0 51-32 51-76 0-42-9-74-50-73" id="ad"/><g id="j"><use transform="matrix(0.05,0,0,0.05,0,0)" xlink:href="#ac"/><use transform="matrix(0.05,0,0,0.05,12,0)" xlink:href="#ad"/><use transform="matrix(0.05,0,0,0.05,22,0)" xlink:href="#ad"/></g><path d="M30-248c118-7 216 8 213 122C240-48 200 0 122 0H30v-248zM63-27c89 8 146-16 146-99s-60-101-146-95v194" id="ae"/><path d="M108 0H70L1-190h34L89-25l56-165h34" id="af"/><path d="M0 4l72-265h28L28 4H0" id="ag"/><g id="k"><use transform="matrix(0.05,0,0,0.05,0,0)" xlink:href="#ae"/><use transform="matrix(0.05,0,0,0.05,12.950000000000001,0)" xlink:href="#J"/><use transform="matrix(0.05,0,0,0.05,18.900000000000002,0)" xlink:href="#S"/><use transform="matrix(0.05,0,0,0.05,22.85,0)" xlink:href="#af"/><use transform="matrix(0.05,0,0,0.05,31.85,0)" xlink:href="#K"/><use transform="matrix(0.05,0,0,0.05,41.85,0)" xlink:href="#J"/><use transform="matrix(0.05,0,0,0.05,47.800000000000004,0)" xlink:href="#ag"/><use transform="matrix(0.05,0,0,0.05,52.800000000000004,0)" xlink:href="#H"/><use transform="matrix(0.05,0,0,0.05,65.75,0)" xlink:href="#I"/><use transform="matrix(0.05,0,0,0.05,75.75,0)" xlink:href="#Z"/><use transform="matrix(0.05,0,0,0.05,85.75,0)" xlink:href="#U"/><use transform="matrix(0.05,0,0,0.05,94.75,0)" xlink:href="#V"/><use transform="matrix(0.05,0,0,0.05,99.75,0)" xlink:href="#J"/><use transform="matrix(0.05,0,0,0.05,105.7,0)" xlink:href="#Y"/><use transform="matrix(0.05,0,0,0.05,115.7,0)" xlink:href="#T"/><use transform="matrix(0.05,0,0,0.05,124.7,0)" xlink:href="#V"/><use transform="matrix(0.05,0,0,0.05,129.7,0)" xlink:href="#I"/><use transform="matrix(0.05,0,0,0.05,139.7,0)" xlink:href="#J"/></g><path d="M233-177c-1 41-23 64-60 70L243 0h-38l-65-103H63V0H30v-248c88 3 205-21 203 71zM63-129c60-2 137 13 137-47 0-61-80-42-137-45v92" id="ah"/><g id="l"><use transform="matrix(0.05,0,0,0.05,0,0)" xlink:href="#ah"/><use transform="matrix(0.05,0,0,0.05,12.950000000000001,0)" xlink:href="#K"/><use transform="matrix(0.05,0,0,0.05,22.950000000000003,0)" xlink:href="#N"/><use transform="matrix(0.05,0,0,0.05,37.900000000000006,0)" xlink:href="#I"/><use transform="matrix(0.05,0,0,0.05,47.900000000000006,0)" xlink:href="#af"/><use transform="matrix(0.05,0,0,0.05,56.900000000000006,0)" xlink:href="#K"/></g><path fill="#333" d="M18-100v-36l175-74v27L42-118l151 64v27" id="ai"/><path fill="#333" d="M100-194c63 0 86 42 84 106H49c0 40 14 67 53 68 26 1 43-12 49-29l28 8c-11 28-37 45-77 45C44 4 14-33 15-96c1-61 26-98 85-98zm52 81c6-60-76-77-97-28-3 7-6 17-6 28h103" id="aj"/><path fill="#333" d="M141 0L90-78 38 0H4l68-98-65-92h35l48 74 47-74h35l-64 92 68 98h-35" id="ak"/><path fill="#333" d="M59-47c-2 24 18 29 38 22v24C64 9 27 4 27-40v-127H5v-23h24l9-43h21v43h35v23H59v120" id="al"/><path fill="#333" d="M117-194c89-4 53 116 60 194h-32v-121c0-31-8-49-39-48C34-167 62-67 57 0H25l-1-190h30c1 10-1 24 2 32 11-22 29-35 61-36" id="am"/><path fill="#333" d="M85-194c31 0 48 13 60 33l-1-100h32l1 261h-30c-2-10 0-23-3-31C134-8 116 4 85 4 32 4 16-35 15-94c0-66 23-100 70-100zm9 24c-40 0-46 34-46 75 0 40 6 74 45 74 42 0 51-32 51-76 0-42-9-74-50-73" id="an"/><path fill="#333" d="M18-27v-27l151-64-151-65v-27l175 74v36" id="ao"/><g id="m"><use transform="matrix(0.04938271604938272,0,0,0.04938271604938272,0,0)" xlink:href="#ai"/><use transform="matrix(0.04938271604938272,0,0,0.04938271604938272,10.370370370370372,0)" xlink:href="#ai"/><use transform="matrix(0.04938271604938272,0,0,0.04938271604938272,20.740740740740744,0)" xlink:href="#aj"/><use transform="matrix(0.04938271604938272,0,0,0.04938271604938272,30.617283950617285,0)" xlink:href="#ak"/><use transform="matrix(0.04938271604938272,0,0,0.04938271604938272,39.50617283950618,0)" xlink:href="#al"/><use transform="matrix(0.04938271604938272,0,0,0.04938271604938272,44.44444444444445,0)" xlink:href="#aj"/><use transform="matrix(0.04938271604938272,0,0,0.04938271604938272,54.320987654320994,0)" xlink:href="#am"/><use transform="matrix(0.04938271604938272,0,0,0.04938271604938272,64.19753086419755,0)" xlink:href="#an"/><use transform="matrix(0.04938271604938272,0,0,0.04938271604938272,74.07407407407409,0)" xlink:href="#ao"/><use transform="matrix(0.04938271604938272,0,0,0.04938271604938272,84.44444444444446,0)" xlink:href="#ao"/></g><g id="n"><use transform="matrix(0.05,0,0,0.05,0,0)" xlink:href="#H"/><use transform="matrix(0.05,0,0,0.05,12.950000000000001,0)" xlink:href="#W"/><use transform="matrix(0.05,0,0,0.05,22.950000000000003,0)" xlink:href="#I"/><use transform="matrix(0.05,0,0,0.05,32.95,0)" xlink:href="#I"/><use transform="matrix(0.05,0,0,0.05,42.95,0)" xlink:href="#U"/><use transform="matrix(0.05,0,0,0.05,51.95,0)" xlink:href="#K"/></g><path d="M30-248c87 1 191-15 191 75 0 78-77 80-158 76V0H30v-248zm33 125c57 0 124 11 124-50 0-59-68-47-124-48v98" id="ap"/><path d="M206 0h-36l-40-164L89 0H53L-1-190h32L70-26l43-164h34l41 164 42-164h31" id="aq"/><g id="o"><use transform="matrix(0.05,0,0,0.05,0,0)" xlink:href="#ap"/><use transform="matrix(0.05,0,0,0.05,12,0)" xlink:href="#I"/><use transform="matrix(0.05,0,0,0.05,22,0)" xlink:href="#aq"/><use transform="matrix(0.05,0,0,0.05,34.95,0)" xlink:href="#K"/><use transform="matrix(0.05,0,0,0.05,44.95,0)" xlink:href="#J"/><use transform="matrix(0.05,0,0,0.05,50.900000000000006,0)" xlink:href="#Y"/><use transform="matrix(0.05,0,0,0.05,60.900000000000006,0)" xlink:href="#O"/></g><g id="p"><use transform="matrix(0.05,0,0,0.05,0,0)" xlink:href="#ah"/><use transform="matrix(0.05,0,0,0.05,12.950000000000001,0)" xlink:href="#K"/><use transform="matrix(0.05,0,0,0.05,22.950000000000003,0)" xlink:href="#N"/><use transform="matrix(0.05,0,0,0.05,37.900000000000006,0)" xlink:href="#I"/><use transform="matrix(0.05,0,0,0.05,47.900000000000006,0)" xlink:href="#af"/><use transform="matrix(0.05,0,0,0.05,56.900000000000006,0)" xlink:href="#K"/></g><path d="M185-189c-5-48-123-54-124 2 14 75 158 14 163 119 3 78-121 87-175 55-17-10-28-26-33-46l33-7c5 56 141 63 141-1 0-78-155-14-162-118-5-82 145-84 179-34 5 7 8 16 11 25" id="ar"/><g id="q"><use transform="matrix(0.05,0,0,0.05,0,0)" xlink:href="#ar"/><use transform="matrix(0.05,0,0,0.05,12,0)" xlink:href="#M"/><use transform="matrix(0.05,0,0,0.05,22,0)" xlink:href="#af"/><use transform="matrix(0.05,0,0,0.05,31,0)" xlink:href="#K"/></g><g id="r"><use transform="matrix(0.05,0,0,0.05,0,0)" xlink:href="#M"/><use transform="matrix(0.05,0,0,0.05,10,0)" xlink:href="#U"/></g><g id="s"><use transform="matrix(0.05,0,0,0.05,0,0)" xlink:href="#H"/><use transform="matrix(0.05,0,0,0.05,12.950000000000001,0)" xlink:href="#W"/><use transform="matrix(0.05,0,0,0.05,22.950000000000003,0)" xlink:href="#M"/><use transform="matrix(0.05,0,0,0.05,32.95,0)" xlink:href="#Z"/><use transform="matrix(0.05,0,0,0.05,42.95,0)" xlink:href="#R"/><use transform="matrix(0.05,0,0,0.05,52.95,0)" xlink:href="#K"/></g><g id="t"><use transform="matrix(0.05,0,0,0.05,0,0)" xlink:href="#O"/><use transform="matrix(0.05,0,0,0.05,10,0)" xlink:href="#J"/><use transform="matrix(0.05,0,0,0.05,15.949999999999998,0)" xlink:href="#S"/><use transform="matrix(0.05,0,0,0.05,19.9,0)" xlink:href="#T"/><use transform="matrix(0.05,0,0,0.05,28.899999999999995,0)" xlink:href="#K"/><use transform="matrix(0.05,0,0,0.05,38.9,0)" xlink:href="#U"/></g><path d="M24-231v-30h32v30H24zM-9 49c24 4 33-6 33-30v-209h32V24c2 40-23 58-65 49V49" id="as"/><path d="M16-82v-28h88v28H16" id="at"/><path d="M101-234c-31-9-42 10-38 44h38v23H63V0H32v-167H5v-23h27c-7-52 17-82 69-68v24" id="au"/><path d="M27 0v-27h64v-190l-56 39v-29l58-41h29v221h61V0H27" id="av"/><g id="u"><use transform="matrix(0.05,0,0,0.05,0,0)" xlink:href="#as"/><use transform="matrix(0.05,0,0,0.05,3.95,0)" xlink:href="#I"/><use transform="matrix(0.05,0,0,0.05,13.949999999999998,0)" xlink:href="#P"/><use transform="matrix(0.05,0,0,0.05,17.9,0)" xlink:href="#O"/><use transform="matrix(0.05,0,0,0.05,27.899999999999995,0)" xlink:href="#S"/><use transform="matrix(0.05,0,0,0.05,31.849999999999994,0)" xlink:href="#T"/><use transform="matrix(0.05,0,0,0.05,40.849999999999994,0)" xlink:href="#M"/><use transform="matrix(0.05,0,0,0.05,50.849999999999994,0)" xlink:href="#at"/><use transform="matrix(0.05,0,0,0.05,56.79999999999999,0)" xlink:href="#au"/><use transform="matrix(0.05,0,0,0.05,61.79999999999999,0)" xlink:href="#av"/></g><path d="M33 0v-248h34V0H33" id="aw"/><g id="v"><use transform="matrix(0.05,0,0,0.05,0,0)" xlink:href="#ac"/><use transform="matrix(0.05,0,0,0.05,12,0)" xlink:href="#ap"/><use transform="matrix(0.05,0,0,0.05,24,0)" xlink:href="#aw"/></g><g id="w"><use transform="matrix(0.05,0,0,0.05,0,0)" xlink:href="#ap"/><use transform="matrix(0.05,0,0,0.05,12,0)" xlink:href="#P"/><use transform="matrix(0.05,0,0,0.05,15.949999999999998,0)" xlink:href="#M"/><use transform="matrix(0.05,0,0,0.05,25.950000000000003,0)" xlink:href="#Q"/><use transform="matrix(0.05,0,0,0.05,34.95,0)" xlink:href="#K"/><use transform="matrix(0.05,0,0,0.05,44.95,0)" xlink:href="#J"/></g><g id="x"><use transform="matrix(0.05,0,0,0.05,0,0)" xlink:href="#ac"/><use transform="matrix(0.05,0,0,0.05,12,0)" xlink:href="#ad"/><use transform="matrix(0.05,0,0,0.05,22,0)" xlink:href="#N"/><use transform="matrix(0.05,0,0,0.05,36.95,0)" xlink:href="#S"/><use transform="matrix(0.05,0,0,0.05,40.900000000000006,0)" xlink:href="#Z"/></g><g id="y"><use transform="matrix(0.05,0,0,0.05,0,0)" xlink:href="#H"/><use transform="matrix(0.05,0,0,0.05,12.950000000000001,0)" xlink:href="#M"/><use transform="matrix(0.05,0,0,0.05,22.950000000000003,0)" xlink:href="#P"/><use transform="matrix(0.05,0,0,0.05,26.900000000000002,0)" xlink:href="#T"/><use transform="matrix(0.05,0,0,0.05,35.900000000000006,0)" xlink:href="#Y"/><use transform="matrix(0.05,0,0,0.05,45.900000000000006,0)" xlink:href="#P"/><use transform="matrix(0.05,0,0,0.05,49.85000000000001,0)" xlink:href="#M"/><use transform="matrix(0.05,0,0,0.05,59.85,0)" xlink:href="#V"/><use transform="matrix(0.05,0,0,0.05,64.85000000000001,0)" xlink:href="#K"/></g><g id="z"><use transform="matrix(0.05,0,0,0.05,0,0)" xlink:href="#O"/><use transform="matrix(0.05,0,0,0.05,10,0)" xlink:href="#I"/><use transform="matrix(0.05,0,0,0.05,20,0)" xlink:href="#S"/><use transform="matrix(0.05,0,0,0.05,23.95,0)" xlink:href="#Z"/><use transform="matrix(0.05,0,0,0.05,33.95,0)" xlink:href="#V"/></g><g id="A"><use transform="matrix(0.05,0,0,0.05,0,0)" xlink:href="#R"/><use transform="matrix(0.05,0,0,0.05,10,0)" xlink:href="#M"/><use transform="matrix(0.05,0,0,0.05,20,0)" xlink:href="#S"/><use transform="matrix(0.05,0,0,0.05,23.95,0)" xlink:href="#Z"/></g><g id="B"><use transform="matrix(0.05,0,0,0.05,0,0)" xlink:href="#au"/><use transform="matrix(0.05,0,0,0.05,5,0)" xlink:href="#I"/><use transform="matrix(0.05,0,0,0.05,15,0)" xlink:href="#J"/></g><g id="C"><use transform="matrix(0.05,0,0,0.05,0,0)" xlink:href="#Z"/><use transform="matrix(0.05,0,0,0.05,10,0)" xlink:href="#K"/><use transform="matrix(0.05,0,0,0.05,20,0)" xlink:href="#aq"/></g><g id="D"><use transform="matrix(0.05,0,0,0.05,0,0)" xlink:href="#J"/><use transform="matrix(0.05,0,0,0.05,5.95,0)" xlink:href="#M"/><use transform="matrix(0.05,0,0,0.05,15.949999999999998,0)" xlink:href="#T"/><use transform="matrix(0.05,0,0,0.05,24.95,0)" xlink:href="#K"/></g><g id="E"><use transform="matrix(0.05,0,0,0.05,0,0)" xlink:href="#J"/><use transform="matrix(0.05,0,0,0.05,5.95,0)" xlink:href="#K"/><use transform="matrix(0.05,0,0,0.05,15.949999999999998,0)" xlink:href="#U"/><use transform="matrix(0.05,0,0,0.05,24.95,0)" xlink:href="#Y"/><use transform="matrix(0.05,0,0,0.05,34.95,0)" xlink:href="#P"/><use transform="matrix(0.05,0,0,0.05,38.900000000000006,0)" xlink:href="#V"/></g><path d="M232-93c-1 65-40 97-104 97C67 4 28-28 28-90v-158h33c8 89-33 224 67 224 102 0 64-133 71-224h33v155" id="ax"/><g id="F"><use transform="matrix(0.05,0,0,0.05,0,0)" xlink:href="#ax"/><use transform="matrix(0.05,0,0,0.05,12.950000000000001,0)" xlink:href="#O"/><use transform="matrix(0.05,0,0,0.05,22.950000000000003,0)" xlink:href="#ad"/><use transform="matrix(0.05,0,0,0.05,32.95,0)" xlink:href="#M"/><use transform="matrix(0.05,0,0,0.05,42.95,0)" xlink:href="#V"/><use transform="matrix(0.05,0,0,0.05,47.95,0)" xlink:href="#K"/></g><g id="G"><use transform="matrix(0.05,0,0,0.05,0,0)" xlink:href="#ad"/><use transform="matrix(0.05,0,0,0.05,10,0)" xlink:href="#M"/><use transform="matrix(0.05,0,0,0.05,20,0)" xlink:href="#V"/><use transform="matrix(0.05,0,0,0.05,25,0)" xlink:href="#M"/></g></defs></g></svg>