<svg xmlns="http://www.w3.org/2000/svg" xmlns:xlink="http://www.w3.org/1999/xlink" xmlns:lucid="lucid" width="938.95" height="683"><g transform="translate(261.5 -125.8915784341225)" lucid:page-tab-id="0_0"><path d="M-120 153.4a6 6 0 0 1 6-6h253a6 6 0 0 1 6 6v8a14.48 14.48 0 0 1-4.24 10.23l-1.52 1.52A14.48 14.48 0 0 1 129 177.4h-243a6 6 0 0 1-6-6z" fill="#fff"/><path d="M145 147.4v20l-10 10h-255" stroke="#3a414a" stroke-width="3" fill="none"/><path d="M-120 153.4a6 6 0 0 1 6-6h608a6 6 0 0 1 6 6v628a6 6 0 0 1-6 6h-608a6 6 0 0 1-6-6z" stroke="#3a414a" stroke-width="3" fill="none"/><use xlink:href="#a" transform="matrix(1,0,0,1,-112,147.3915784341225) translate(0 18.6)"/><use xlink:href="#b" transform="matrix(1,0,0,1,-112,147.3915784341225) translate(43.900000000000006 18.6)"/><use xlink:href="#c" transform="matrix(1,0,0,1,-112,147.3915784341225) translate(130.8 18.6)"/><use xlink:href="#d" transform="matrix(1,0,0,1,-112,147.3915784341225) translate(147.8 18.6)"/><path d="M599.75 474.48c0 10.9-8.84 19.75-19.75 19.75-10.9 0-19.75-8.84-19.75-19.75 0-10.9 8.84-19.75 19.75-19.75 10.9 0 19.75 8.84 19.75 19.75z" stroke="#3a414a" stroke-width="3" fill="#fff"/><path d="M580 494.23v49.3a20.7 20.7 0 0 0 3.2 11.07l36.8 58.13m-40-63.2l-40 63.2m0-98.75h80" stroke="#3a414a" stroke-width="3" fill="none"/><path d="M540 460.73a6 6 0 0 1 6-6h68a6 6 0 0 1 6 6v168a6 6 0 0 1-6 6h-68a6 6 0 0 1-6-6z" fill="none"/><use xlink:href="#e" transform="matrix(1,0,0,1,460,612.7329324104791) translate(43.599999999999994 14.6)"/><use xlink:href="#f" transform="matrix(1,0,0,1,460,612.7329324104791) translate(97.55 14.6)"/><use xlink:href="#g" transform="matrix(1,0,0,1,460,612.7329324104791) translate(139.45 14.6)"/><path d="M75.54 474.92c0 33.14-35.82 60-80 60s-80-26.86-80-60c0-33.13 35.82-60 80-60s80 26.87 80 60z" stroke="#3a414a" stroke-width="3" fill="#fff"/><use xlink:href="#h" transform="matrix(1,0,0,1,-84.4594158954942,414.923704272162) translate(24.07999999999999 51.9)"/><use xlink:href="#i" transform="matrix(1,0,0,1,-84.4594158954942,414.923704272162) translate(80.03 51.9)"/><use xlink:href="#j" transform="matrix(1,0,0,1,-84.4594158954942,414.923704272162) translate(18.554999999999986 73.5)"/><use xlink:href="#k" transform="matrix(1,0,0,1,-84.4594158954942,414.923704272162) translate(87.505 73.5)"/><path d="M-165.68 576.98l99.8-59.75M-165.65 576.96l-3.9 2.33" stroke="#3a414a" stroke-width="3" fill="none"/><path d="M-64.5 516.53l1.16.9-1.8 1.08-1.52-2.52.9-.54z" stroke="#3a414a" stroke-width=".05" fill="#3a414a"/><path d="M445.44 264.92c0 33.14-42.53 60-95 60s-95-26.86-95-60c0-33.13 42.53-60 95-60s95 26.87 95 60z" stroke="#3a414a" stroke-width="3" fill="#fff"/><use xlink:href="#l" transform="matrix(1,0,0,1,255.44058410450543,204.923704272162) translate(79.00500000000001 51.9)"/><use xlink:href="#m" transform="matrix(1,0,0,1,255.44058410450543,204.923704272162) translate(22.180000000000014 73.5)"/><path d="M455.44 398.04c0 33.13-42.53 60-95 60s-95-26.87-95-60c0-33.14 42.53-60 95-60s95 26.86 95 60z" stroke="#3a414a" stroke-width="3" fill="#fff"/><use xlink:href="#n" transform="matrix(1,0,0,1,265.44058410450543,338.03739003479245) translate(61.55499999999999 51.9)"/><use xlink:href="#m" transform="matrix(1,0,0,1,265.44058410450543,338.03739003479245) translate(22.180000000000014 73.5)"/><path d="M77.42 426.48l13.4-7.93m13.4-7.93l26.8-15.86m13.4-7.93l26.8-15.86m13.4-7.93l26.8-15.86m13.4-7.93l26.8-15.85m13.4-7.93l13.4-7.93" stroke="#3a414a" stroke-width="3" fill="none"/><path d="M63.85 434.5l9.9-11.25 4.73 7.98z" stroke="#3a414a" stroke-width="3" fill="#3a414a"/><path d="M281.05 307.7l-1.9 1.13-1.5-2.54.73-.45z" stroke="#3a414a" stroke-width=".05" fill="#3a414a"/><use xlink:href="#o" transform="matrix(1,0,0,1,127.39211342198621,322.2701364751755) translate(0.005000000000002558 14.222222222222223)"/><path d="M108.94 452.54l-14.42 3.04-.6-2.9 14.42-3.03zm43.28-9.12l-28.85 6.08-.6-2.9 28.84-6.07zm43.28-9.12l-28.85 6.08-.6-2.9 28.84-6.07zm43.27-9.12l-28.85 6.08-.6-2.9 28.84-6.07zm28.85-6.08l-14.42 3.04-.6-2.88 14.4-3.04z" stroke="#3a414a" stroke-width=".05" fill="#3a414a"/><path d="M93.7 458.98l-14.9-1.6 13-7.47z" fill="#3a414a"/><path d="M95.57 460.66l-21.45-2.3 18.7-10.75zm-12.1-4.26l8.37.9-1.07-5.1z" stroke="#3a414a" stroke-width=".05" fill="#3a414a"/><path d="M268.53 416.88l.98 1.82-1.92.4-.6-2.88 1.13-.24z" fill="#3a414a"/><path stroke="#3a414a" stroke-width=".05" fill="#3a414a"/><use xlink:href="#o" transform="matrix(1,0,0,1,186.93214367447905,432.6867423400529) translate(0.005000000000002558 14.222222222222223)"/><path d="M335.44 651.15c0 33.14-42.53 60-95 60s-95-26.86-95-60 42.53-60 95-60 95 26.86 95 60z" stroke="#3a414a" stroke-width="3" fill="#fff"/><use xlink:href="#p" transform="matrix(1,0,0,1,145.44058410450543,591.1510757974227) translate(26.07999999999999 63.15)"/><use xlink:href="#q" transform="matrix(1,0,0,1,145.44058410450543,591.1510757974227) translate(93.03 63.15)"/><path d="M115.04 667.4c0 33.13-42.53 60-95 60s-95-26.87-95-60c0-33.15 42.53-60 95-60s95 26.85 95 60z" stroke="#3a414a" stroke-width="3" fill="#fff"/><use xlink:href="#r" transform="matrix(1,0,0,1,-74.9594158954942,607.3915784341227) translate(23.604999999999997 63.15)"/><use xlink:href="#q" transform="matrix(1,0,0,1,-74.9594158954942,607.3915784341227) translate(95.50500000000001 63.15)"/><path d="M176.08 603.02l-1.72 2.4-11.55-8.32 1.73-2.4zm-23.1-16.63l-1.73 2.4-15.8-11.4h5.04zm-42.13-30.32h-5.05l-12.3-8.86 1.7-2.4zm-27.2-19.57l-1.72 2.4-11.55-8.3 1.72-2.4z" stroke="#3a414a" stroke-width=".05" fill="#3a414a"/><path d="M177.9 604.32l-1.84.97-1 .6-.73-.5 1.72-2.4z" fill="#3a414a"/><path stroke="#3a414a" stroke-width=".05" fill="#3a414a"/><path d="M72.73 524.76l-5.4 7.52-8.88-12.1z" fill="#3a414a"/><path d="M75.11 523.97l-7.77 10.82-12.76-17.4zm-7.8 5.8l3.05-4.22-8.03-2.57z" stroke="#3a414a" stroke-width=".05" fill="#3a414a"/><use xlink:href="#o" transform="matrix(1,0,0,1,75.73826277250993,556.0802671372408) translate(0.005000000000002558 14.222222222222223)"/><path d="M13.5 604.44l-2.9.37-2.05-16 2.93-.37zm-5.03-39.6H5.5l-1.03-8.05 2.93-.4z" stroke="#3a414a" stroke-width=".05" fill="#3a414a"/><path d="M13.72 606.03h-.52l-2.43.2-.2-1.46 2.94-.37z" fill="#3a414a"/><path stroke="#3a414a" stroke-width=".05" fill="#3a414a"/><path d="M10.35 554.53l-9.2 1.17 2.8-14.74z" fill="#3a414a"/><path d="M12.55 555.73l-13.23 1.7 4.02-21.2zm-9.57-1.75l5.17-.66-3.6-7.62z" stroke="#3a414a" stroke-width=".05" fill="#3a414a"/><use xlink:href="#o" transform="matrix(1,0,0,1,-39.06285635402471,564.8428457479584) translate(0.005000000000002558 14.222222222222223)"/><path d="M473.78 531.15c0 33.14-42.54 60-95 60-52.47 0-95-26.86-95-60s42.53-60 95-60c52.46 0 95 26.86 95 60z" stroke="#3a414a" stroke-width="3" fill="#fff"/><use xlink:href="#s" transform="matrix(1,0,0,1,283.77609377515637,471.15107579742266) translate(32.055 51.9)"/><use xlink:href="#t" transform="matrix(1,0,0,1,283.77609377515637,471.15107579742266) translate(78.055 51.9)"/><use xlink:href="#i" transform="matrix(1,0,0,1,283.77609377515637,471.15107579742266) translate(102.05499999999999 51.9)"/><use xlink:href="#j" transform="matrix(1,0,0,1,283.77609377515637,471.15107579742266) translate(33.554999999999986 73.5)"/><use xlink:href="#k" transform="matrix(1,0,0,1,283.77609377515637,471.15107579742266) translate(102.505 73.5)"/><path d="M283.45 515.67l-.43 2.92-15.6-2.3.42-2.92zm-31.2-4.57l-.44 2.9-24.25-3.55v-2.98zm-119.52-17.54v2.98l-5.77-.84.43-2.92zm-20.95-3.07l-.43 2.9-15.6-2.28.43-2.92z" stroke="#3a414a" stroke-width=".05" fill="#3a414a"/><path d="M285.25 515.94l-.17.4-.77 2.15-.07.27-1.25-.18.43-2.93z" fill="#3a414a"/><path stroke="#3a414a" stroke-width=".05" fill="#3a414a"/><path d="M93.8 494.03l-13.44-6.66 14.8-2.52z" fill="#3a414a"/><path d="M94.97 496.25l-19.33-9.57 21.26-3.62zm-9.9-8.2l7.57 3.75.76-5.15z" stroke="#3a414a" stroke-width=".05" fill="#3a414a"/><use xlink:href="#o" transform="matrix(1,0,0,1,132.7321701868335,491.3409479640541) translate(0.005000000000002558 14.222222222222223)"/><path d="M85.04 311.4c0 33.13-35.82 60-80 60s-80-26.87-80-60c0-33.15 35.82-60 80-60s80 26.85 80 60z" stroke="#3a414a" stroke-width="3" fill="#fff"/><g><use xlink:href="#u" transform="matrix(1,0,0,1,-74.9594158954942,251.39157843412272) translate(22.07999999999999 63.15)"/><use xlink:href="#v" transform="matrix(1,0,0,1,-74.9594158954942,251.39157843412272) translate(90.03 63.15)"/></g><path d="M-197 313.6l119.36 3.1M-196.96 313.6l-4.54-.12" stroke="#3a414a" stroke-width="3" fill="none"/><path d="M-76.3 315.27l.26 2.4.1.56-1.77-.05.06-2.95z" stroke="#3a414a" stroke-width=".05" fill="#3a414a"/><path d="M476.25 537.57L577 533.43" stroke="#3a414a" stroke-width="3" fill="none"/><path d="M476.34 539.04l-1.87.08.3-1.66.18-1.32 1.27-.05z" stroke="#3a414a" stroke-width=".05" fill="#3a414a"/><path d="M576.96 533.43l4.54-.2" stroke="#3a414a" stroke-width="3" fill="none"/><path d="M-180.25 539.75c0 10.9-8.84 19.75-19.75 19.75-10.9 0-19.75-8.84-19.75-19.75 0-10.9 8.84-19.75 19.75-19.75 10.9 0 19.75 8.84 19.75 19.75z" stroke="#3a414a" stroke-width="3" fill="#fff"/><path d="M-200 559.5v49.3a20.7 20.7 0 0 0 3.2 11.07L-160 678m-40-63.2l-40 63.2m0-98.75h80" stroke="#3a414a" stroke-width="3" fill="none"/><path d="M-240 526a6 6 0 0 1 6-6h68a6 6 0 0 1 6 6v168a6 6 0 0 1-6 6h-68a6 6 0 0 1-6-6z" fill="none"/><g><use xlink:href="#w" transform="matrix(1,0,0,1,-320,678) translate(94.55 14.6)"/></g><path d="M-180.25 254.67c0 10.9-8.84 19.75-19.75 19.75-10.9 0-19.75-8.84-19.75-19.75 0-10.9 8.84-19.75 19.75-19.75 10.9 0 19.75 8.85 19.75 19.75z" stroke="#3a414a" stroke-width="3" fill="#fff"/><path d="M-200 274.42v49.3a20.7 20.7 0 0 0 3.2 11.07l36.8 58.12m-40-63.2l-40 63.2m0-98.75h80" stroke="#3a414a" stroke-width="3" fill="none"/><path d="M-240 240.92a6 6 0 0 1 6-6h68a6 6 0 0 1 6 6v168a6 6 0 0 1-6 6h-68a6 6 0 0 1-6-6z" fill="none"/><g><use xlink:href="#x" transform="matrix(1,0,0,1,-320,392.923704272162) translate(94.55 14.6)"/></g><defs><path d="M212-179c-10-28-35-45-73-45-59 0-87 40-87 99 0 60 29 101 89 101 43 0 62-24 78-52l27 14C228-24 195 4 139 4 59 4 22-46 18-125c-6-104 99-153 187-111 19 9 31 26 39 46" id="y"/><path d="M100-194c62-1 85 37 85 99 1 63-27 99-86 99S16-35 15-95c0-66 28-99 85-99zM99-20c44 1 53-31 53-75 0-43-8-75-51-75s-53 32-53 75 10 74 51 75" id="z"/><path d="M114-163C36-179 61-72 57 0H25l-1-190h30c1 12-1 29 2 39 6-27 23-49 58-41v29" id="A"/><path d="M100-194c63 0 86 42 84 106H49c0 40 14 67 53 68 26 1 43-12 49-29l28 8c-11 28-37 45-77 45C44 4 14-33 15-96c1-61 26-98 85-98zm52 81c6-60-76-77-97-28-3 7-6 17-6 28h103" id="B"/><g id="a"><use transform="matrix(0.05,0,0,0.05,0,0)" xlink:href="#y"/><use transform="matrix(0.05,0,0,0.05,12.950000000000001,0)" xlink:href="#z"/><use transform="matrix(0.05,0,0,0.05,22.950000000000003,0)" xlink:href="#A"/><use transform="matrix(0.05,0,0,0.05,28.900000000000002,0)" xlink:href="#B"/></g><path d="M143 4C61 4 22-44 18-125c-5-107 100-154 193-111 17 8 29 25 37 43l-32 9c-13-25-37-40-76-40-61 0-88 39-88 99 0 61 29 100 91 101 35 0 62-11 79-27v-45h-74v-28h105v86C228-13 192 4 143 4" id="C"/><path d="M141-36C126-15 110 5 73 4 37 3 15-17 15-53c-1-64 63-63 125-63 3-35-9-54-41-54-24 1-41 7-42 31l-33-3c5-37 33-52 76-52 45 0 72 20 72 64v82c-1 20 7 32 28 27v20c-31 9-61-2-59-35zM48-53c0 20 12 33 32 33 41-3 63-29 60-74-43 2-92-5-92 41" id="D"/><path d="M210-169c-67 3-38 105-44 169h-31v-121c0-29-5-50-35-48C34-165 62-65 56 0H25l-1-190h30c1 10-1 24 2 32 10-44 99-50 107 0 11-21 27-35 58-36 85-2 47 119 55 194h-31v-121c0-29-5-49-35-48" id="E"/><path d="M115-194c55 1 70 41 70 98S169 2 115 4C84 4 66-9 55-30l1 105H24l-1-265h31l2 30c10-21 28-34 59-34zm-8 174c40 0 45-34 45-75s-6-73-45-74c-42 0-51 32-51 76 0 43 10 73 51 73" id="F"/><path d="M24 0v-261h32V0H24" id="G"/><path d="M179-190L93 31C79 59 56 82 12 73V49c39 6 53-20 64-50L1-190h34L92-34l54-156h33" id="H"/><g id="b"><use transform="matrix(0.05,0,0,0.05,0,0)" xlink:href="#C"/><use transform="matrix(0.05,0,0,0.05,14,0)" xlink:href="#D"/><use transform="matrix(0.05,0,0,0.05,24,0)" xlink:href="#E"/><use transform="matrix(0.05,0,0,0.05,38.95,0)" xlink:href="#B"/><use transform="matrix(0.05,0,0,0.05,48.95,0)" xlink:href="#F"/><use transform="matrix(0.05,0,0,0.05,58.95,0)" xlink:href="#G"/><use transform="matrix(0.05,0,0,0.05,62.900000000000006,0)" xlink:href="#D"/><use transform="matrix(0.05,0,0,0.05,72.9,0)" xlink:href="#H"/></g><path d="M234-2c-28 10-62 0-77-18C117 19 8 12 13-65c3-43 29-61 60-76-25-40-17-114 47-108 35 3 59 15 59 50 0 44-40 53-71 69 14 26 32 50 51 72 14-21 24-43 30-72l26 8c-9 33-21 57-38 82 13 13 33 22 57 15v23zM97-151c25-10 52-18 56-48-1-18-13-29-33-29-42 0-39 50-23 77zM42-66c-3 51 71 58 98 28-20-24-41-51-56-80-23 10-40 24-42 52" id="I"/><use transform="matrix(0.05,0,0,0.05,0,0)" xlink:href="#I" id="c"/><path d="M206 0h-36l-40-164L89 0H53L-1-190h32L70-26l43-164h34l41 164 42-164h31" id="J"/><path d="M84 4C-5 8 30-112 23-190h32v120c0 31 7 50 39 49 72-2 45-101 50-169h31l1 190h-30c-1-10 1-25-2-33-11 22-28 36-60 37" id="K"/><path d="M135-143c-3-34-86-38-87 0 15 53 115 12 119 90S17 21 10-45l28-5c4 36 97 45 98 0-10-56-113-15-118-90-4-57 82-63 122-42 12 7 21 19 24 35" id="L"/><g id="d"><use transform="matrix(0.05,0,0,0.05,0,0)" xlink:href="#F"/><use transform="matrix(0.05,0,0,0.05,10,0)" xlink:href="#z"/><use transform="matrix(0.05,0,0,0.05,20,0)" xlink:href="#J"/><use transform="matrix(0.05,0,0,0.05,32.95,0)" xlink:href="#B"/><use transform="matrix(0.05,0,0,0.05,42.95,0)" xlink:href="#A"/><use transform="matrix(0.05,0,0,0.05,48.900000000000006,0)" xlink:href="#K"/><use transform="matrix(0.05,0,0,0.05,58.900000000000006,0)" xlink:href="#F"/><use transform="matrix(0.05,0,0,0.05,68.9,0)" xlink:href="#L"/></g><g id="e"><use transform="matrix(0.05,0,0,0.05,0,0)" xlink:href="#C"/><use transform="matrix(0.05,0,0,0.05,14,0)" xlink:href="#D"/><use transform="matrix(0.05,0,0,0.05,24,0)" xlink:href="#E"/><use transform="matrix(0.05,0,0,0.05,38.95,0)" xlink:href="#B"/></g><path d="M177-190C167-65 218 103 67 71c-23-6-38-20-44-43l32-5c15 47 100 32 89-28v-30C133-14 115 1 83 1 29 1 15-40 15-95c0-56 16-97 71-98 29-1 48 16 59 35 1-10 0-23 2-32h30zM94-22c36 0 50-32 50-73 0-42-14-75-50-75-39 0-46 34-46 75s6 73 46 73" id="M"/><path d="M24-231v-30h32v30H24zM24 0v-190h32V0H24" id="N"/><path d="M96-169c-40 0-48 33-48 73s9 75 48 75c24 0 41-14 43-38l32 2c-6 37-31 61-74 61-59 0-76-41-82-99-10-93 101-131 147-64 4 7 5 14 7 22l-32 3c-4-21-16-35-41-35" id="O"/><g id="f"><use transform="matrix(0.05,0,0,0.05,0,0)" xlink:href="#G"/><use transform="matrix(0.05,0,0,0.05,3.95,0)" xlink:href="#z"/><use transform="matrix(0.05,0,0,0.05,13.949999999999998,0)" xlink:href="#M"/><use transform="matrix(0.05,0,0,0.05,23.95,0)" xlink:href="#N"/><use transform="matrix(0.05,0,0,0.05,27.899999999999995,0)" xlink:href="#O"/></g><path d="M59-47c-2 24 18 29 38 22v24C64 9 27 4 27-40v-127H5v-23h24l9-43h21v43h35v23H59v120" id="P"/><g id="g"><use transform="matrix(0.05,0,0,0.05,0,0)" xlink:href="#L"/><use transform="matrix(0.05,0,0,0.05,9,0)" xlink:href="#H"/><use transform="matrix(0.05,0,0,0.05,18,0)" xlink:href="#L"/><use transform="matrix(0.05,0,0,0.05,27,0)" xlink:href="#P"/><use transform="matrix(0.05,0,0,0.05,32,0)" xlink:href="#B"/><use transform="matrix(0.05,0,0,0.05,42,0)" xlink:href="#E"/></g><path d="M106-169C34-169 62-67 57 0H25v-261h32l-1 103c12-21 28-36 61-36 89 0 53 116 60 194h-32v-121c2-32-8-49-39-48" id="Q"/><path d="M143 0L79-87 56-68V0H24v-261h32v163l83-92h37l-77 82L181 0h-38" id="R"/><g id="h"><use transform="matrix(0.05,0,0,0.05,0,0)" xlink:href="#y"/><use transform="matrix(0.05,0,0,0.05,12.950000000000001,0)" xlink:href="#Q"/><use transform="matrix(0.05,0,0,0.05,22.950000000000003,0)" xlink:href="#B"/><use transform="matrix(0.05,0,0,0.05,32.95,0)" xlink:href="#O"/><use transform="matrix(0.05,0,0,0.05,41.95,0)" xlink:href="#R"/></g><path d="M117-194c89-4 53 116 60 194h-32v-121c0-31-8-49-39-48C34-167 62-67 57 0H25l-1-190h30c1 10-1 24 2 32 11-22 29-35 61-36" id="S"/><g id="i"><use transform="matrix(0.05,0,0,0.05,0,0)" xlink:href="#O"/><use transform="matrix(0.05,0,0,0.05,9,0)" xlink:href="#K"/><use transform="matrix(0.05,0,0,0.05,19,0)" xlink:href="#A"/><use transform="matrix(0.05,0,0,0.05,24.95,0)" xlink:href="#A"/><use transform="matrix(0.05,0,0,0.05,30.899999999999995,0)" xlink:href="#B"/><use transform="matrix(0.05,0,0,0.05,40.9,0)" xlink:href="#S"/><use transform="matrix(0.05,0,0,0.05,50.9,0)" xlink:href="#P"/></g><path d="M63-220v92h138v28H63V0H30v-248h175v28H63" id="T"/><g id="j"><use transform="matrix(0.05,0,0,0.05,0,0)" xlink:href="#T"/><use transform="matrix(0.05,0,0,0.05,10.950000000000001,0)" xlink:href="#D"/><use transform="matrix(0.05,0,0,0.05,20.950000000000003,0)" xlink:href="#S"/><use transform="matrix(0.05,0,0,0.05,30.950000000000003,0)" xlink:href="#P"/><use transform="matrix(0.05,0,0,0.05,35.95,0)" xlink:href="#D"/><use transform="matrix(0.05,0,0,0.05,45.95,0)" xlink:href="#L"/><use transform="matrix(0.05,0,0,0.05,54.95,0)" xlink:href="#H"/></g><path d="M30 0v-248h33v221h125V0H30" id="U"/><g id="k"><use transform="matrix(0.05,0,0,0.05,0,0)" xlink:href="#U"/><use transform="matrix(0.05,0,0,0.05,10,0)" xlink:href="#N"/><use transform="matrix(0.05,0,0,0.05,13.949999999999998,0)" xlink:href="#S"/><use transform="matrix(0.05,0,0,0.05,23.95,0)" xlink:href="#B"/><use transform="matrix(0.05,0,0,0.05,33.95,0)" xlink:href="#K"/><use transform="matrix(0.05,0,0,0.05,43.95,0)" xlink:href="#F"/></g><path d="M205 0l-28-72H64L36 0H1l101-248h38L239 0h-34zm-38-99l-47-123c-12 45-31 82-46 123h93" id="V"/><path d="M85-194c31 0 48 13 60 33l-1-100h32l1 261h-30c-2-10 0-23-3-31C134-8 116 4 85 4 32 4 16-35 15-94c0-66 23-100 70-100zm9 24c-40 0-46 34-46 75 0 40 6 74 45 74 42 0 51-32 51-76 0-42-9-74-50-73" id="W"/><g id="l"><use transform="matrix(0.05,0,0,0.05,0,0)" xlink:href="#V"/><use transform="matrix(0.05,0,0,0.05,12,0)" xlink:href="#W"/><use transform="matrix(0.05,0,0,0.05,22,0)" xlink:href="#W"/></g><path d="M30-248c118-7 216 8 213 122C240-48 200 0 122 0H30v-248zM63-27c89 8 146-16 146-99s-60-101-146-95v194" id="X"/><path d="M108 0H70L1-190h34L89-25l56-165h34" id="Y"/><path d="M0 4l72-265h28L28 4H0" id="Z"/><g id="m"><use transform="matrix(0.05,0,0,0.05,0,0)" xlink:href="#X"/><use transform="matrix(0.05,0,0,0.05,12.950000000000001,0)" xlink:href="#A"/><use transform="matrix(0.05,0,0,0.05,18.900000000000002,0)" xlink:href="#N"/><use transform="matrix(0.05,0,0,0.05,22.85,0)" xlink:href="#Y"/><use transform="matrix(0.05,0,0,0.05,31.85,0)" xlink:href="#B"/><use transform="matrix(0.05,0,0,0.05,41.85,0)" xlink:href="#A"/><use transform="matrix(0.05,0,0,0.05,47.800000000000004,0)" xlink:href="#Z"/><use transform="matrix(0.05,0,0,0.05,52.800000000000004,0)" xlink:href="#y"/><use transform="matrix(0.05,0,0,0.05,65.75,0)" xlink:href="#z"/><use transform="matrix(0.05,0,0,0.05,75.75,0)" xlink:href="#S"/><use transform="matrix(0.05,0,0,0.05,85.75,0)" xlink:href="#L"/><use transform="matrix(0.05,0,0,0.05,94.75,0)" xlink:href="#P"/><use transform="matrix(0.05,0,0,0.05,99.75,0)" xlink:href="#A"/><use transform="matrix(0.05,0,0,0.05,105.7,0)" xlink:href="#K"/><use transform="matrix(0.05,0,0,0.05,115.7,0)" xlink:href="#O"/><use transform="matrix(0.05,0,0,0.05,124.7,0)" xlink:href="#P"/><use transform="matrix(0.05,0,0,0.05,129.7,0)" xlink:href="#z"/><use transform="matrix(0.05,0,0,0.05,139.7,0)" xlink:href="#A"/></g><path d="M233-177c-1 41-23 64-60 70L243 0h-38l-65-103H63V0H30v-248c88 3 205-21 203 71zM63-129c60-2 137 13 137-47 0-61-80-42-137-45v92" id="aa"/><g id="n"><use transform="matrix(0.05,0,0,0.05,0,0)" xlink:href="#aa"/><use transform="matrix(0.05,0,0,0.05,12.950000000000001,0)" xlink:href="#B"/><use transform="matrix(0.05,0,0,0.05,22.950000000000003,0)" xlink:href="#E"/><use transform="matrix(0.05,0,0,0.05,37.900000000000006,0)" xlink:href="#z"/><use transform="matrix(0.05,0,0,0.05,47.900000000000006,0)" xlink:href="#Y"/><use transform="matrix(0.05,0,0,0.05,56.900000000000006,0)" xlink:href="#B"/></g><path fill="#333" d="M18-100v-36l175-74v27L42-118l151 64v27" id="ab"/><path fill="#333" d="M100-194c63 0 86 42 84 106H49c0 40 14 67 53 68 26 1 43-12 49-29l28 8c-11 28-37 45-77 45C44 4 14-33 15-96c1-61 26-98 85-98zm52 81c6-60-76-77-97-28-3 7-6 17-6 28h103" id="ac"/><path fill="#333" d="M141 0L90-78 38 0H4l68-98-65-92h35l48 74 47-74h35l-64 92 68 98h-35" id="ad"/><path fill="#333" d="M59-47c-2 24 18 29 38 22v24C64 9 27 4 27-40v-127H5v-23h24l9-43h21v43h35v23H59v120" id="ae"/><path fill="#333" d="M117-194c89-4 53 116 60 194h-32v-121c0-31-8-49-39-48C34-167 62-67 57 0H25l-1-190h30c1 10-1 24 2 32 11-22 29-35 61-36" id="af"/><path fill="#333" d="M85-194c31 0 48 13 60 33l-1-100h32l1 261h-30c-2-10 0-23-3-31C134-8 116 4 85 4 32 4 16-35 15-94c0-66 23-100 70-100zm9 24c-40 0-46 34-46 75 0 40 6 74 45 74 42 0 51-32 51-76 0-42-9-74-50-73" id="ag"/><path fill="#333" d="M18-27v-27l151-64-151-65v-27l175 74v36" id="ah"/><g id="o"><use transform="matrix(0.04938271604938272,0,0,0.04938271604938272,0,0)" xlink:href="#ab"/><use transform="matrix(0.04938271604938272,0,0,0.04938271604938272,10.370370370370372,0)" xlink:href="#ab"/><use transform="matrix(0.04938271604938272,0,0,0.04938271604938272,20.740740740740744,0)" xlink:href="#ac"/><use transform="matrix(0.04938271604938272,0,0,0.04938271604938272,30.617283950617285,0)" xlink:href="#ad"/><use transform="matrix(0.04938271604938272,0,0,0.04938271604938272,39.50617283950618,0)" xlink:href="#ae"/><use transform="matrix(0.04938271604938272,0,0,0.04938271604938272,44.44444444444445,0)" xlink:href="#ac"/><use transform="matrix(0.04938271604938272,0,0,0.04938271604938272,54.320987654320994,0)" xlink:href="#af"/><use transform="matrix(0.04938271604938272,0,0,0.04938271604938272,64.19753086419755,0)" xlink:href="#ag"/><use transform="matrix(0.04938271604938272,0,0,0.04938271604938272,74.07407407407409,0)" xlink:href="#ah"/><use transform="matrix(0.04938271604938272,0,0,0.04938271604938272,84.44444444444446,0)" xlink:href="#ah"/></g><g id="p"><use transform="matrix(0.05,0,0,0.05,0,0)" xlink:href="#y"/><use transform="matrix(0.05,0,0,0.05,12.950000000000001,0)" xlink:href="#Q"/><use transform="matrix(0.05,0,0,0.05,22.950000000000003,0)" xlink:href="#z"/><use transform="matrix(0.05,0,0,0.05,32.95,0)" xlink:href="#z"/><use transform="matrix(0.05,0,0,0.05,42.95,0)" xlink:href="#L"/><use transform="matrix(0.05,0,0,0.05,51.95,0)" xlink:href="#B"/></g><path d="M30-248c87 1 191-15 191 75 0 78-77 80-158 76V0H30v-248zm33 125c57 0 124 11 124-50 0-59-68-47-124-48v98" id="ai"/><g id="q"><use transform="matrix(0.05,0,0,0.05,0,0)" xlink:href="#ai"/><use transform="matrix(0.05,0,0,0.05,12,0)" xlink:href="#z"/><use transform="matrix(0.05,0,0,0.05,22,0)" xlink:href="#J"/><use transform="matrix(0.05,0,0,0.05,34.95,0)" xlink:href="#B"/><use transform="matrix(0.05,0,0,0.05,44.95,0)" xlink:href="#A"/><use transform="matrix(0.05,0,0,0.05,50.900000000000006,0)" xlink:href="#K"/><use transform="matrix(0.05,0,0,0.05,60.900000000000006,0)" xlink:href="#F"/></g><g id="r"><use transform="matrix(0.05,0,0,0.05,0,0)" xlink:href="#aa"/><use transform="matrix(0.05,0,0,0.05,12.950000000000001,0)" xlink:href="#B"/><use transform="matrix(0.05,0,0,0.05,22.950000000000003,0)" xlink:href="#E"/><use transform="matrix(0.05,0,0,0.05,37.900000000000006,0)" xlink:href="#z"/><use transform="matrix(0.05,0,0,0.05,47.900000000000006,0)" xlink:href="#Y"/><use transform="matrix(0.05,0,0,0.05,56.900000000000006,0)" xlink:href="#B"/></g><path d="M185-189c-5-48-123-54-124 2 14 75 158 14 163 119 3 78-121 87-175 55-17-10-28-26-33-46l33-7c5 56 141 63 141-1 0-78-155-14-162-118-5-82 145-84 179-34 5 7 8 16 11 25" id="aj"/><g id="s"><use transform="matrix(0.05,0,0,0.05,0,0)" xlink:href="#aj"/><use transform="matrix(0.05,0,0,0.05,12,0)" xlink:href="#D"/><use transform="matrix(0.05,0,0,0.05,22,0)" xlink:href="#Y"/><use transform="matrix(0.05,0,0,0.05,31,0)" xlink:href="#B"/></g><g id="t"><use transform="matrix(0.05,0,0,0.05,0,0)" xlink:href="#D"/><use transform="matrix(0.05,0,0,0.05,10,0)" xlink:href="#L"/></g><g id="u"><use transform="matrix(0.05,0,0,0.05,0,0)" xlink:href="#y"/><use transform="matrix(0.05,0,0,0.05,12.950000000000001,0)" xlink:href="#Q"/><use transform="matrix(0.05,0,0,0.05,22.950000000000003,0)" xlink:href="#D"/><use transform="matrix(0.05,0,0,0.05,32.95,0)" xlink:href="#S"/><use transform="matrix(0.05,0,0,0.05,42.95,0)" xlink:href="#M"/><use transform="matrix(0.05,0,0,0.05,52.95,0)" xlink:href="#B"/></g><g id="v"><use transform="matrix(0.05,0,0,0.05,0,0)" xlink:href="#F"/><use transform="matrix(0.05,0,0,0.05,10,0)" xlink:href="#A"/><use transform="matrix(0.05,0,0,0.05,15.949999999999998,0)" xlink:href="#N"/><use transform="matrix(0.05,0,0,0.05,19.9,0)" xlink:href="#O"/><use transform="matrix(0.05,0,0,0.05,28.899999999999995,0)" xlink:href="#B"/><use transform="matrix(0.05,0,0,0.05,38.9,0)" xlink:href="#L"/></g><g id="w"><use transform="matrix(0.05,0,0,0.05,0,0)" xlink:href="#ai"/><use transform="matrix(0.05,0,0,0.05,12,0)" xlink:href="#G"/><use transform="matrix(0.05,0,0,0.05,15.949999999999998,0)" xlink:href="#D"/><use transform="matrix(0.05,0,0,0.05,25.950000000000003,0)" xlink:href="#H"/><use transform="matrix(0.05,0,0,0.05,34.95,0)" xlink:href="#B"/><use transform="matrix(0.05,0,0,0.05,44.95,0)" xlink:href="#A"/></g><g id="x"><use transform="matrix(0.05,0,0,0.05,0,0)" xlink:href="#V"/><use transform="matrix(0.05,0,0,0.05,12,0)" xlink:href="#W"/><use transform="matrix(0.05,0,0,0.05,22,0)" xlink:href="#E"/><use transform="matrix(0.05,0,0,0.05,36.95,0)" xlink:href="#N"/><use transform="matrix(0.05,0,0,0.05,40.900000000000006,0)" xlink:href="#S"/></g></defs></g></svg>