<svg xmlns="http://www.w3.org/2000/svg" xmlns:xlink="http://www.w3.org/1999/xlink" xmlns:lucid="lucid" width="892.07" height="805.77"><g transform="translate(-1622.824210481027 -990.6245629556131)" lucid:page-tab-id="0_0"><path d="M1813.4 1018.13a6 6 0 0 1 6-6h78.25a6 6 0 0 1 6 6v8a14.48 14.48 0 0 1-4.24 10.24l-1.5 1.5a14.48 14.48 0 0 1-10.25 4.26h-68.26a6 6 0 0 1-6-6z" fill="#fff"/><path d="M1903.65 1012.13v20l-10 10h-80.26" stroke="#3a414a" stroke-width="3" fill="none"/><path d="M1813.4 1018.13a6 6 0 0 1 6-6h668a6 6 0 0 1 6 6v750.77a6 6 0 0 1-6 6h-668a6 6 0 0 1-6-6z" stroke="#3a414a" stroke-width="3" fill="none"/><use xlink:href="#a" transform="matrix(1,0,0,1,1821.3922807470435,1012.1245629556131) translate(0 18.6)"/><path d="M2116.24 1363.5c0 30.4-38.05 55-85 55-46.94 0-85-24.6-85-55 0-30.37 38.06-55 85-55 46.95 0 85 24.63 85 55z" stroke="#3a414a" stroke-width="3" fill="#fff"/><use xlink:href="#b" transform="matrix(1,0,0,1,1946.2454705358787,1308.5108771929827) translate(28.604999999999997 48.775)"/><use xlink:href="#c" transform="matrix(1,0,0,1,1946.2454705358787,1308.5108771929827) translate(87.50500000000001 48.775)"/><use xlink:href="#d" transform="matrix(1,0,0,1,1946.2454705358787,1308.5108771929827) translate(55.004999999999995 70.375)"/><path d="M1687.3 1430.2l260.73-47.9M1687.34 1430.2l-4.47.83" stroke="#3a414a" stroke-width="3" fill="none"/><path d="M1948.8 1380.7l1.23 2.34.2.36-1.97.36-.54-2.9 1.07-.2z" stroke="#3a414a" stroke-width=".05" fill="#3a414a"/><path d="M2473.23 1469.9c0 30.37-38.06 55-85 55-46.95 0-85-24.63-85-55 0-30.38 38.05-55 85-55 46.94 0 85 24.62 85 55z" stroke="#3a414a" stroke-width="3" fill="#fff"/><use xlink:href="#e" transform="matrix(1,0,0,1,2303.2277904176945,1414.8971914303522) translate(36.029999999999994 59.0875)"/><use xlink:href="#d" transform="matrix(1,0,0,1,2303.2277904176945,1414.8971914303522) translate(73.97999999999999 59.0875)"/><path d="M2052.05 1499.9c0 30.37-38.06 55-85 55s-85-24.63-85-55c0-30.38 38.06-55 85-55s85 24.62 85 55z" stroke="#3a414a" stroke-width="3" fill="#fff"/><use xlink:href="#f" transform="matrix(1,0,0,1,1882.0490504725458,1444.8971914303522) translate(11.079999999999993 59.0875)"/><use xlink:href="#g" transform="matrix(1,0,0,1,1882.0490504725458,1444.8971914303522) translate(67.03 59.0875)"/><use xlink:href="#h" transform="matrix(1,0,0,1,1882.0490504725458,1444.8971914303522) translate(104.98 59.0875)"/><path d="M1883.02 1482.64l-195.74-51.12" stroke="#3a414a" stroke-width="3" fill="none"/><path d="M1885.14 1481.67l-.18.34-1.1 2.3-.02.08-1.23-.32.76-2.85z" stroke="#3a414a" stroke-width=".05" fill="#3a414a"/><path d="M1687.3 1431.53l-4.38-1.15" stroke="#3a414a" stroke-width="3" fill="none"/><path d="M2433.23 1609.9c0 30.37-38.06 55-85 55-46.95 0-85-24.63-85-55 0-30.38 38.05-55 85-55 46.94 0 85 24.62 85 55z" stroke="#3a414a" stroke-width="3" fill="#fff"/><use xlink:href="#i" transform="matrix(1,0,0,1,2263.2277904176945,1554.8971914303522) translate(34.555 48.775)"/><use xlink:href="#c" transform="matrix(1,0,0,1,2263.2277904176945,1554.8971914303522) translate(81.555 48.775)"/><use xlink:href="#j" transform="matrix(1,0,0,1,2263.2277904176945,1554.8971914303522) translate(17.079999999999995 70.375)"/><use xlink:href="#k" transform="matrix(1,0,0,1,2263.2277904176945,1554.8971914303522) translate(82.08 70.375)"/><path d="M2268.04 1585.22l-.82 2.84-13.44-3.88.82-2.84zm-26.88-7.76l-.82 2.84-26.88-7.76.8-2.83zm-40.33-11.63l-.8 2.83-10.75-3.1h10.64zm-80.64-23.27l-.5 1.67h-4.34l-22.87-6.6.8-2.83zm-40.33-11.64l-.82 2.83-13.44-3.88.83-2.83z" stroke="#3a414a" stroke-width=".05" fill="#3a414a"/><path d="M2269.97 1585.78l-1.07 1.5-.66 1.07-1.06-.3.82-2.84z" fill="#3a414a"/><path stroke="#3a414a" stroke-width=".05" fill="#3a414a"/><path d="M2063.3 1532.5l-12.43-8.4 15-.5z" fill="#3a414a"/><path d="M2064.15 1534.86l-17.86-12.1 21.54-.7zm-8.7-9.45l7 4.74 1.43-5z" stroke="#3a414a" stroke-width=".05" fill="#3a414a"/><use xlink:href="#l" transform="matrix(1,0,0,1,2110.2310130377127,1544.2305247636855) translate(0.005000000000002558 14.222222222222223)"/><path d="M2088.86 1492.7l-15.14 1.08-.2-2.94 15.13-1.08zm41.37-2.95l-26.23 1.87-.2-2.94 26.43-1.88zm94.9-6.76h-.08v-1.23zm45.43-3.24l-30.3 2.15-.2-2.93 30.3-2.15zm30.28-2.16l-15.14 1.08-.2-2.94 15.13-1.08z" stroke="#3a414a" stroke-width=".05" fill="#3a414a"/><path d="M2302.2 1475.88l.3 1.6-1.7.12-.2-2.94 1.43-.1z" fill="#3a414a"/><path stroke="#3a414a" stroke-width=".05" fill="#3a414a"/><path d="M2072.45 1497.04l-14.56-3.6 13.9-5.65z" fill="#3a414a"/><path d="M2074.06 1498.96l-20.93-5.2 19.98-8.1zm-11.4-5.87l8.17 2.02-.37-5.2z" stroke="#3a414a" stroke-width=".05" fill="#3a414a"/><use xlink:href="#l" transform="matrix(1,0,0,1,2130.2310130377127,1474.2305247636855) translate(0.005000000000002558 14.222222222222223)"/><path d="M2263.23 1669.9c0 30.37-38.06 55-85 55-46.95 0-85-24.63-85-55 0-30.38 38.05-55 85-55 46.94 0 85 24.62 85 55z" stroke="#3a414a" stroke-width="3" fill="#fff"/><use xlink:href="#m" transform="matrix(1,0,0,1,2093.2277904176945,1614.8971914303522) translate(28.005000000000003 59.0875)"/><use xlink:href="#d" transform="matrix(1,0,0,1,2093.2277904176945,1614.8971914303522) translate(82.005 59.0875)"/><path d="M2123.5 1623.94l-1.86 2.3-14.16-11.4 1.85-2.3zm-28.33-22.8l-1.85 2.3-9.78-7.88h4.7zm-42.48-34.2l-1.86 2.3-14.16-11.4 1.85-2.3z" stroke="#3a414a" stroke-width=".05" fill="#3a414a"/><path d="M2125.16 1625.28l-2.85 1.5-.7-.57 1.86-2.3z" fill="#3a414a"/><path stroke="#3a414a" stroke-width=".05" fill="#3a414a"/><path d="M2039.35 1552.15l-5.82 7.22-8.2-12.56z" fill="#3a414a"/><path d="M2041.77 1551.5l-8.36 10.37-11.8-18.05zm-8.1 5.36l3.25-4.06-7.88-3z" stroke="#3a414a" stroke-width=".05" fill="#3a414a"/><use xlink:href="#l" transform="matrix(1,0,0,1,2025.2310130377127,1574.2305247636855) translate(0.005000000000002558 14.222222222222223)"/><path d="M1704.07 1121.88c0 10.9-8.84 19.74-19.75 19.74-10.9 0-19.75-8.84-19.75-19.74 0-10.9 8.85-19.76 19.75-19.76s19.75 8.85 19.75 19.76z" stroke="#3a414a" stroke-width="3" fill="#fff"/><path d="M1684.32 1141.63v49.3a20.7 20.7 0 0 0 3.2 11.06l36.8 58.13m-40-63.2l-40 63.2m0-98.76h80" stroke="#3a414a" stroke-width="3" fill="none"/><path d="M1644.32 1108.13a6 6 0 0 1 6-6h68a6 6 0 0 1 6 6v168a6 6 0 0 1-6 6h-68a6 6 0 0 1-6-6z" fill="none"/><use xlink:href="#n" transform="matrix(1,0,0,1,1564.324210481027,1260.124562955613) translate(94.55 14.6)"/><path d="M2032.57 1693.5c0 32.38-44.96 58.63-100.42 58.63s-100.42-26.25-100.42-58.62c0-32.36 44.96-58.6 100.42-58.6s100.42 26.24 100.42 58.6z" stroke="#3a414a" stroke-width="3" fill="#fff"/><use xlink:href="#o" transform="matrix(1,0,0,1,1831.7277904176945,1634.8971914303522) translate(31.079999999999995 40.2125)"/><use xlink:href="#p" transform="matrix(1,0,0,1,1831.7277904176945,1634.8971914303522) translate(70.03 40.2125)"/><use xlink:href="#q" transform="matrix(1,0,0,1,1831.7277904176945,1634.8971914303522) translate(123.93 40.2125)"/><use xlink:href="#r" transform="matrix(1,0,0,1,1831.7277904176945,1634.8971914303522) translate(153.93 40.2125)"/><use xlink:href="#s" transform="matrix(1,0,0,1,1831.7277904176945,1634.8971914303522) translate(41.07999999999999 61.8125)"/><use xlink:href="#c" transform="matrix(1,0,0,1,1831.7277904176945,1634.8971914303522) translate(106.03 61.8125)"/><use xlink:href="#d" transform="matrix(1,0,0,1,1831.7277904176945,1634.8971914303522) translate(70.505 83.41250000000001)"/><path d="M1948 1613.88l-3.36 18.67-2.9-.52 3.36-18.68zm6.74-37.35l-2.22 12.3h-3l2.3-12.83z" stroke="#3a414a" stroke-width=".05" fill="#3a414a"/><path d="M1944.64 1632.5l-.24 1.38-2.96-.23.3-1.66z" fill="#3a414a"/><path stroke="#3a414a" stroke-width=".05" fill="#3a414a"/><path d="M1958.1 1575.6l-9.1-1.63 7.08-13.22z" fill="#3a414a"/><path d="M1959.85 1577.42l-13.12-2.36 10.2-19zm-8.6-4.55l5.13.93-1.15-8.35z" stroke="#3a414a" stroke-width=".05" fill="#3a414a"/><use xlink:href="#l" transform="matrix(1,0,0,1,1901.6886384222419,1588.8334366153777) translate(0.005000000000002558 14.222222222222223)"/><path d="M2250.82 1227.13c0 30.37-38.05 55-85 55-46.94 0-85-24.63-85-55 0-30.38 38.06-55 85-55 46.95 0 85 24.62 85 55z" stroke="#3a414a" stroke-width="3" fill="#fff"/><g><use xlink:href="#b" transform="matrix(1,0,0,1,2080.824210481027,1172.124562955613) translate(32.10499999999999 48.775)"/><use xlink:href="#t" transform="matrix(1,0,0,1,2080.824210481027,1172.124562955613) translate(91.005 48.775)"/><use xlink:href="#d" transform="matrix(1,0,0,1,2080.824210481027,1172.124562955613) translate(55.004999999999995 70.375)"/></g><path d="M2077.83 1226.95l-390.52-45.98" stroke="#3a414a" stroke-width="3" fill="none"/><path d="M2079.37 1225.64l-.05 1.48.03 1.5-1.73-.2.35-2.94z" stroke="#3a414a" stroke-width=".05" fill="#3a414a"/><path d="M1687.35 1180.98l-4.5-.53" stroke="#3a414a" stroke-width="3" fill="none"/><path d="M1704.07 1371.88c0 10.9-8.84 19.74-19.75 19.74-10.9 0-19.75-8.84-19.75-19.74 0-10.9 8.85-19.76 19.75-19.76s19.75 8.85 19.75 19.76z" stroke="#3a414a" stroke-width="3" fill="#fff"/><path d="M1684.32 1391.63v49.3a20.7 20.7 0 0 0 3.2 11.06l36.8 58.13m-40-63.2l-40 63.2m0-98.76h80" stroke="#3a414a" stroke-width="3" fill="none"/><path d="M1644.32 1358.13a6 6 0 0 1 6-6h68a6 6 0 0 1 6 6v168a6 6 0 0 1-6 6h-68a6 6 0 0 1-6-6z" fill="none"/><g><use xlink:href="#u" transform="matrix(1,0,0,1,1564.324210481027,1510.124562955613) translate(94.55 14.6)"/></g><path d="M2145.1 1103.33c0 30.37-38.04 55-85 55-46.93 0-85-24.63-85-55 0-30.38 38.07-55 85-55 46.96 0 85 24.62 85 55z" stroke="#3a414a" stroke-width="3" fill="#fff"/><g><use xlink:href="#v" transform="matrix(1,0,0,1,1975.1133820065843,1048.325514976152) translate(19.054999999999986 59.0875)"/><use xlink:href="#w" transform="matrix(1,0,0,1,1975.1133820065843,1048.325514976152) translate(75.955 59.0875)"/><use xlink:href="#d" transform="matrix(1,0,0,1,1975.1133820065843,1048.325514976152) translate(90.955 59.0875)"/></g><path d="M1687.3 1180.17l289.97-57.33M1687.33 1180.17l-4.45.88" stroke="#3a414a" stroke-width="3" fill="none"/><path d="M1978.9 1122.86l.63 1.04-2 .4-.6-2.9 1.1-.2z" stroke="#3a414a" stroke-width=".05" fill="#3a414a"/><defs><path d="M30 0v-248h33v221h125V0H30" id="x"/><path d="M100-194c63 0 86 42 84 106H49c0 40 14 67 53 68 26 1 43-12 49-29l28 8c-11 28-37 45-77 45C44 4 14-33 15-96c1-61 26-98 85-98zm52 81c6-60-76-77-97-28-3 7-6 17-6 28h103" id="y"/><path d="M141-36C126-15 110 5 73 4 37 3 15-17 15-53c-1-64 63-63 125-63 3-35-9-54-41-54-24 1-41 7-42 31l-33-3c5-37 33-52 76-52 45 0 72 20 72 64v82c-1 20 7 32 28 27v20c-31 9-61-2-59-35zM48-53c0 20 12 33 32 33 41-3 63-29 60-74-43 2-92-5-92 41" id="z"/><path d="M177-190C167-65 218 103 67 71c-23-6-38-20-44-43l32-5c15 47 100 32 89-28v-30C133-14 115 1 83 1 29 1 15-40 15-95c0-56 16-97 71-98 29-1 48 16 59 35 1-10 0-23 2-32h30zM94-22c36 0 50-32 50-73 0-42-14-75-50-75-39 0-46 34-46 75s6 73 46 73" id="A"/><path d="M84 4C-5 8 30-112 23-190h32v120c0 31 7 50 39 49 72-2 45-101 50-169h31l1 190h-30c-1-10 1-25-2-33-11 22-28 36-60 37" id="B"/><path d="M135-143c-3-34-86-38-87 0 15 53 115 12 119 90S17 21 10-45l28-5c4 36 97 45 98 0-10-56-113-15-118-90-4-57 82-63 122-42 12 7 21 19 24 35" id="C"/><g id="a"><use transform="matrix(0.05,0,0,0.05,0,0)" xlink:href="#x"/><use transform="matrix(0.05,0,0,0.05,10,0)" xlink:href="#y"/><use transform="matrix(0.05,0,0,0.05,20,0)" xlink:href="#z"/><use transform="matrix(0.05,0,0,0.05,30,0)" xlink:href="#A"/><use transform="matrix(0.05,0,0,0.05,40,0)" xlink:href="#B"/><use transform="matrix(0.05,0,0,0.05,50,0)" xlink:href="#y"/><use transform="matrix(0.05,0,0,0.05,60,0)" xlink:href="#C"/></g><path d="M212-179c-10-28-35-45-73-45-59 0-87 40-87 99 0 60 29 101 89 101 43 0 62-24 78-52l27 14C228-24 195 4 139 4 59 4 22-46 18-125c-6-104 99-153 187-111 19 9 31 26 39 46" id="D"/><path d="M114-163C36-179 61-72 57 0H25l-1-190h30c1 12-1 29 2 39 6-27 23-49 58-41v29" id="E"/><path d="M59-47c-2 24 18 29 38 22v24C64 9 27 4 27-40v-127H5v-23h24l9-43h21v43h35v23H59v120" id="F"/><g id="b"><use transform="matrix(0.05,0,0,0.05,0,0)" xlink:href="#D"/><use transform="matrix(0.05,0,0,0.05,12.950000000000001,0)" xlink:href="#E"/><use transform="matrix(0.05,0,0,0.05,18.900000000000002,0)" xlink:href="#y"/><use transform="matrix(0.05,0,0,0.05,28.900000000000002,0)" xlink:href="#z"/><use transform="matrix(0.05,0,0,0.05,38.900000000000006,0)" xlink:href="#F"/><use transform="matrix(0.05,0,0,0.05,43.900000000000006,0)" xlink:href="#y"/></g><path d="M115-194c55 1 70 41 70 98S169 2 115 4C84 4 66-9 55-30l1 105H24l-1-265h31l2 30c10-21 28-34 59-34zm-8 174c40 0 45-34 45-75s-6-73-45-74c-42 0-51 32-51 76 0 43 10 73 51 73" id="G"/><path d="M24-231v-30h32v30H24zM24 0v-190h32V0H24" id="H"/><path d="M108 0H70L1-190h34L89-25l56-165h34" id="I"/><g id="c"><use transform="matrix(0.05,0,0,0.05,0,0)" xlink:href="#G"/><use transform="matrix(0.05,0,0,0.05,10,0)" xlink:href="#E"/><use transform="matrix(0.05,0,0,0.05,15.949999999999998,0)" xlink:href="#H"/><use transform="matrix(0.05,0,0,0.05,19.9,0)" xlink:href="#I"/><use transform="matrix(0.05,0,0,0.05,28.899999999999995,0)" xlink:href="#z"/><use transform="matrix(0.05,0,0,0.05,38.9,0)" xlink:href="#F"/><use transform="matrix(0.05,0,0,0.05,43.9,0)" xlink:href="#y"/></g><g id="d"><use transform="matrix(0.05,0,0,0.05,0,0)" xlink:href="#x"/><use transform="matrix(0.05,0,0,0.05,10,0)" xlink:href="#y"/><use transform="matrix(0.05,0,0,0.05,20,0)" xlink:href="#z"/><use transform="matrix(0.05,0,0,0.05,30,0)" xlink:href="#A"/><use transform="matrix(0.05,0,0,0.05,40,0)" xlink:href="#B"/><use transform="matrix(0.05,0,0,0.05,50,0)" xlink:href="#y"/></g><path d="M153-248C145-148 188 4 80 4 36 3 13-21 6-62l32-5c4 25 16 42 43 43 27 0 39-20 39-49v-147H72v-28h81" id="J"/><path d="M100-194c62-1 85 37 85 99 1 63-27 99-86 99S16-35 15-95c0-66 28-99 85-99zM99-20c44 1 53-31 53-75 0-43-8-75-51-75s-53 32-53 75 10 74 51 75" id="K"/><path d="M117-194c89-4 53 116 60 194h-32v-121c0-31-8-49-39-48C34-167 62-67 57 0H25l-1-190h30c1 10-1 24 2 32 11-22 29-35 61-36" id="L"/><g id="e"><use transform="matrix(0.05,0,0,0.05,0,0)" xlink:href="#J"/><use transform="matrix(0.05,0,0,0.05,9,0)" xlink:href="#K"/><use transform="matrix(0.05,0,0,0.05,19,0)" xlink:href="#H"/><use transform="matrix(0.05,0,0,0.05,22.95,0)" xlink:href="#L"/></g><path d="M106-169C34-169 62-67 57 0H25v-261h32l-1 103c12-21 28-36 61-36 89 0 53 116 60 194h-32v-121c2-32-8-49-39-48" id="M"/><path d="M96-169c-40 0-48 33-48 73s9 75 48 75c24 0 41-14 43-38l32 2c-6 37-31 61-74 61-59 0-76-41-82-99-10-93 101-131 147-64 4 7 5 14 7 22l-32 3c-4-21-16-35-41-35" id="N"/><path d="M143 0L79-87 56-68V0H24v-261h32v163l83-92h37l-77 82L181 0h-38" id="O"/><g id="f"><use transform="matrix(0.05,0,0,0.05,0,0)" xlink:href="#D"/><use transform="matrix(0.05,0,0,0.05,12.950000000000001,0)" xlink:href="#M"/><use transform="matrix(0.05,0,0,0.05,22.950000000000003,0)" xlink:href="#y"/><use transform="matrix(0.05,0,0,0.05,32.95,0)" xlink:href="#N"/><use transform="matrix(0.05,0,0,0.05,41.95,0)" xlink:href="#O"/></g><path d="M206 0h-36l-40-164L89 0H53L-1-190h32L70-26l43-164h34l41 164 42-164h31" id="P"/><g id="g"><use transform="matrix(0.05,0,0,0.05,0,0)" xlink:href="#K"/><use transform="matrix(0.05,0,0,0.05,10,0)" xlink:href="#P"/><use transform="matrix(0.05,0,0,0.05,22.950000000000003,0)" xlink:href="#L"/></g><path d="M24 0v-261h32V0H24" id="Q"/><g id="h"><use transform="matrix(0.05,0,0,0.05,0,0)" xlink:href="#Q"/><use transform="matrix(0.05,0,0,0.05,3.95,0)" xlink:href="#y"/><use transform="matrix(0.05,0,0,0.05,13.949999999999998,0)" xlink:href="#z"/><use transform="matrix(0.05,0,0,0.05,23.95,0)" xlink:href="#A"/><use transform="matrix(0.05,0,0,0.05,33.95,0)" xlink:href="#B"/><use transform="matrix(0.05,0,0,0.05,43.95,0)" xlink:href="#y"/></g><path d="M185-189c-5-48-123-54-124 2 14 75 158 14 163 119 3 78-121 87-175 55-17-10-28-26-33-46l33-7c5 56 141 63 141-1 0-78-155-14-162-118-5-82 145-84 179-34 5 7 8 16 11 25" id="R"/><path d="M85-194c31 0 48 13 60 33l-1-100h32l1 261h-30c-2-10 0-23-3-31C134-8 116 4 85 4 32 4 16-35 15-94c0-66 23-100 70-100zm9 24c-40 0-46 34-46 75 0 40 6 74 45 74 42 0 51-32 51-76 0-42-9-74-50-73" id="S"/><g id="i"><use transform="matrix(0.05,0,0,0.05,0,0)" xlink:href="#R"/><use transform="matrix(0.05,0,0,0.05,12,0)" xlink:href="#y"/><use transform="matrix(0.05,0,0,0.05,22,0)" xlink:href="#L"/><use transform="matrix(0.05,0,0,0.05,32,0)" xlink:href="#S"/></g><g id="j"><use transform="matrix(0.05,0,0,0.05,0,0)" xlink:href="#x"/><use transform="matrix(0.05,0,0,0.05,10,0)" xlink:href="#y"/><use transform="matrix(0.05,0,0,0.05,20,0)" xlink:href="#z"/><use transform="matrix(0.05,0,0,0.05,30,0)" xlink:href="#A"/><use transform="matrix(0.05,0,0,0.05,40,0)" xlink:href="#B"/><use transform="matrix(0.05,0,0,0.05,50,0)" xlink:href="#y"/></g><g id="k"><use transform="matrix(0.05,0,0,0.05,0,0)" xlink:href="#H"/><use transform="matrix(0.05,0,0,0.05,3.95,0)" xlink:href="#L"/><use transform="matrix(0.05,0,0,0.05,13.949999999999998,0)" xlink:href="#I"/><use transform="matrix(0.05,0,0,0.05,22.95,0)" xlink:href="#H"/><use transform="matrix(0.05,0,0,0.05,26.899999999999995,0)" xlink:href="#F"/><use transform="matrix(0.05,0,0,0.05,31.899999999999995,0)" xlink:href="#z"/><use transform="matrix(0.05,0,0,0.05,41.9,0)" xlink:href="#F"/><use transform="matrix(0.05,0,0,0.05,46.9,0)" xlink:href="#H"/><use transform="matrix(0.05,0,0,0.05,50.85,0)" xlink:href="#K"/><use transform="matrix(0.05,0,0,0.05,60.85,0)" xlink:href="#L"/></g><path fill="#333" d="M18-100v-36l175-74v27L42-118l151 64v27" id="T"/><path fill="#333" d="M100-194c63 0 86 42 84 106H49c0 40 14 67 53 68 26 1 43-12 49-29l28 8c-11 28-37 45-77 45C44 4 14-33 15-96c1-61 26-98 85-98zm52 81c6-60-76-77-97-28-3 7-6 17-6 28h103" id="U"/><path fill="#333" d="M141 0L90-78 38 0H4l68-98-65-92h35l48 74 47-74h35l-64 92 68 98h-35" id="V"/><path fill="#333" d="M59-47c-2 24 18 29 38 22v24C64 9 27 4 27-40v-127H5v-23h24l9-43h21v43h35v23H59v120" id="W"/><path fill="#333" d="M117-194c89-4 53 116 60 194h-32v-121c0-31-8-49-39-48C34-167 62-67 57 0H25l-1-190h30c1 10-1 24 2 32 11-22 29-35 61-36" id="X"/><path fill="#333" d="M85-194c31 0 48 13 60 33l-1-100h32l1 261h-30c-2-10 0-23-3-31C134-8 116 4 85 4 32 4 16-35 15-94c0-66 23-100 70-100zm9 24c-40 0-46 34-46 75 0 40 6 74 45 74 42 0 51-32 51-76 0-42-9-74-50-73" id="Y"/><path fill="#333" d="M18-27v-27l151-64-151-65v-27l175 74v36" id="Z"/><g id="l"><use transform="matrix(0.04938271604938272,0,0,0.04938271604938272,0,0)" xlink:href="#T"/><use transform="matrix(0.04938271604938272,0,0,0.04938271604938272,10.370370370370372,0)" xlink:href="#T"/><use transform="matrix(0.04938271604938272,0,0,0.04938271604938272,20.740740740740744,0)" xlink:href="#U"/><use transform="matrix(0.04938271604938272,0,0,0.04938271604938272,30.617283950617285,0)" xlink:href="#V"/><use transform="matrix(0.04938271604938272,0,0,0.04938271604938272,39.50617283950618,0)" xlink:href="#W"/><use transform="matrix(0.04938271604938272,0,0,0.04938271604938272,44.44444444444445,0)" xlink:href="#U"/><use transform="matrix(0.04938271604938272,0,0,0.04938271604938272,54.320987654320994,0)" xlink:href="#X"/><use transform="matrix(0.04938271604938272,0,0,0.04938271604938272,64.19753086419755,0)" xlink:href="#Y"/><use transform="matrix(0.04938271604938272,0,0,0.04938271604938272,74.07407407407409,0)" xlink:href="#Z"/><use transform="matrix(0.04938271604938272,0,0,0.04938271604938272,84.44444444444446,0)" xlink:href="#Z"/></g><g id="m"><use transform="matrix(0.05,0,0,0.05,0,0)" xlink:href="#x"/><use transform="matrix(0.05,0,0,0.05,10,0)" xlink:href="#y"/><use transform="matrix(0.05,0,0,0.05,20,0)" xlink:href="#z"/><use transform="matrix(0.05,0,0,0.05,30,0)" xlink:href="#I"/><use transform="matrix(0.05,0,0,0.05,39,0)" xlink:href="#y"/></g><path d="M205 0l-28-72H64L36 0H1l101-248h38L239 0h-34zm-38-99l-47-123c-12 45-31 82-46 123h93" id="aa"/><path d="M210-169c-67 3-38 105-44 169h-31v-121c0-29-5-50-35-48C34-165 62-65 56 0H25l-1-190h30c1 10-1 24 2 32 10-44 99-50 107 0 11-21 27-35 58-36 85-2 47 119 55 194h-31v-121c0-29-5-49-35-48" id="ab"/><g id="n"><use transform="matrix(0.05,0,0,0.05,0,0)" xlink:href="#aa"/><use transform="matrix(0.05,0,0,0.05,12,0)" xlink:href="#S"/><use transform="matrix(0.05,0,0,0.05,22,0)" xlink:href="#ab"/><use transform="matrix(0.05,0,0,0.05,36.95,0)" xlink:href="#H"/><use transform="matrix(0.05,0,0,0.05,40.900000000000006,0)" xlink:href="#L"/></g><path d="M194 0L95-120 63-95V0H30v-248h33v124l119-124h40L117-140 236 0h-42" id="ac"/><g id="o"><use transform="matrix(0.05,0,0,0.05,0,0)" xlink:href="#ac"/><use transform="matrix(0.05,0,0,0.05,12,0)" xlink:href="#H"/><use transform="matrix(0.05,0,0,0.05,15.949999999999998,0)" xlink:href="#N"/><use transform="matrix(0.05,0,0,0.05,24.95,0)" xlink:href="#O"/></g><path d="M179-190L93 31C79 59 56 82 12 73V49c39 6 53-20 64-50L1-190h34L92-34l54-156h33" id="ad"/><g id="p"><use transform="matrix(0.05,0,0,0.05,0,0)" xlink:href="#G"/><use transform="matrix(0.05,0,0,0.05,10,0)" xlink:href="#Q"/><use transform="matrix(0.05,0,0,0.05,13.949999999999998,0)" xlink:href="#z"/><use transform="matrix(0.05,0,0,0.05,23.95,0)" xlink:href="#ad"/><use transform="matrix(0.05,0,0,0.05,32.95,0)" xlink:href="#y"/><use transform="matrix(0.05,0,0,0.05,42.95,0)" xlink:href="#E"/></g><g id="q"><use transform="matrix(0.05,0,0,0.05,0,0)" xlink:href="#K"/><use transform="matrix(0.05,0,0,0.05,10,0)" xlink:href="#B"/><use transform="matrix(0.05,0,0,0.05,20,0)" xlink:href="#F"/></g><path d="M101-234c-31-9-42 10-38 44h38v23H63V0H32v-167H5v-23h27c-7-52 17-82 69-68v24" id="ae"/><g id="r"><use transform="matrix(0.05,0,0,0.05,0,0)" xlink:href="#K"/><use transform="matrix(0.05,0,0,0.05,10,0)" xlink:href="#ae"/></g><g id="s"><use transform="matrix(0.05,0,0,0.05,0,0)" xlink:href="#N"/><use transform="matrix(0.05,0,0,0.05,9,0)" xlink:href="#E"/><use transform="matrix(0.05,0,0,0.05,14.949999999999998,0)" xlink:href="#y"/><use transform="matrix(0.05,0,0,0.05,24.95,0)" xlink:href="#z"/><use transform="matrix(0.05,0,0,0.05,34.95,0)" xlink:href="#F"/><use transform="matrix(0.05,0,0,0.05,39.95,0)" xlink:href="#y"/><use transform="matrix(0.05,0,0,0.05,49.95,0)" xlink:href="#S"/></g><path d="M115-194c53 0 69 39 70 98 0 66-23 100-70 100C84 3 66-7 56-30L54 0H23l1-261h32v101c10-23 28-34 59-34zm-8 174c40 0 45-34 45-75 0-40-5-75-45-74-42 0-51 32-51 76 0 43 10 73 51 73" id="af"/><g id="t"><use transform="matrix(0.05,0,0,0.05,0,0)" xlink:href="#G"/><use transform="matrix(0.05,0,0,0.05,10,0)" xlink:href="#B"/><use transform="matrix(0.05,0,0,0.05,20,0)" xlink:href="#af"/><use transform="matrix(0.05,0,0,0.05,30,0)" xlink:href="#Q"/><use transform="matrix(0.05,0,0,0.05,33.95,0)" xlink:href="#H"/><use transform="matrix(0.05,0,0,0.05,37.900000000000006,0)" xlink:href="#N"/></g><path d="M30-248c87 1 191-15 191 75 0 78-77 80-158 76V0H30v-248zm33 125c57 0 124 11 124-50 0-59-68-47-124-48v98" id="ag"/><g id="u"><use transform="matrix(0.05,0,0,0.05,0,0)" xlink:href="#ag"/><use transform="matrix(0.05,0,0,0.05,12,0)" xlink:href="#Q"/><use transform="matrix(0.05,0,0,0.05,15.949999999999998,0)" xlink:href="#z"/><use transform="matrix(0.05,0,0,0.05,25.950000000000003,0)" xlink:href="#ad"/><use transform="matrix(0.05,0,0,0.05,34.95,0)" xlink:href="#y"/><use transform="matrix(0.05,0,0,0.05,44.95,0)" xlink:href="#E"/></g><path d="M30-248c118-7 216 8 213 122C240-48 200 0 122 0H30v-248zM63-27c89 8 146-16 146-99s-60-101-146-95v194" id="ah"/><g id="v"><use transform="matrix(0.05,0,0,0.05,0,0)" xlink:href="#ah"/><use transform="matrix(0.05,0,0,0.05,12.950000000000001,0)" xlink:href="#y"/><use transform="matrix(0.05,0,0,0.05,22.950000000000003,0)" xlink:href="#Q"/><use transform="matrix(0.05,0,0,0.05,26.900000000000002,0)" xlink:href="#y"/><use transform="matrix(0.05,0,0,0.05,36.900000000000006,0)" xlink:href="#F"/><use transform="matrix(0.05,0,0,0.05,41.900000000000006,0)" xlink:href="#y"/></g><use transform="matrix(0.05,0,0,0.05,0,0)" xlink:href="#z" id="w"/></defs></g></svg>