<svg xmlns="http://www.w3.org/2000/svg" xmlns:xlink="http://www.w3.org/1999/xlink" xmlns:lucid="lucid" width="785.77" height="543"><g transform="translate(681.5 250.13871335116073)" lucid:page-tab-id="0_0"><path d="M-509.53-222.64a6 6 0 0 1 6-6h113.32a6 6 0 0 1 6 6v8a14.48 14.48 0 0 1-4.25 10.24l-1.52 1.52a14.48 14.48 0 0 1-10.24 4.24h-103.33a6 6 0 0 1-6-6z" fill="#fff"/><path d="M-384.2-228.64v20l-10 10h-115.33" stroke="#3a414a" stroke-width="3" fill="none"/><path d="M-509.53-222.64a6 6 0 0 1 6-6h580.3a6 6 0 0 1 6 6v488a6 6 0 0 1-6 6h-580.3a6 6 0 0 1-6-6z" stroke="#3a414a" stroke-width="3" fill="none"/><use xlink:href="#a" transform="matrix(1,0,0,1,-501.53238152639824,-228.63871335116073) translate(0 18.6)"/><path d="M-175.34-128.64c0 33.14-44.78 60-100 60-55.23 0-100-26.86-100-60s44.77-60 100-60c55.22 0 100 26.86 100 60z" stroke="#3a414a" stroke-width="3" fill="#fff"/><use xlink:href="#b" transform="matrix(1,0,0,1,-375.3432100008413,-188.63871335116073) translate(52.05499999999999 51.9)"/><use xlink:href="#c" transform="matrix(1,0,0,1,-375.3432100008413,-188.63871335116073) translate(89.055 51.9)"/><use xlink:href="#d" transform="matrix(1,0,0,1,-375.3432100008413,-188.63871335116073) translate(27.180000000000014 73.5)"/><path d="M-7.88-8.63c0 35.16-44.77 63.67-100 63.67s-100-28.5-100-63.67c0-35.16 44.77-63.67 100-63.67s100 28.5 100 63.67z" stroke="#3a414a" stroke-width="3" fill="#fff"/><use xlink:href="#e" transform="matrix(1,0,0,1,-207.8823815263986,-72.30002195740178) translate(34.605 58.4)"/><use xlink:href="#c" transform="matrix(1,0,0,1,-207.8823815263986,-72.30002195740178) translate(106.50500000000001 58.4)"/><use xlink:href="#d" transform="matrix(1,0,0,1,-207.8823815263986,-72.30002195740178) translate(27.180000000000017 80)"/><path d="M-617.08-9.66l254.35-85.75M-617.04-9.68l-4.3 1.45" stroke="#3a414a" stroke-width="3" fill="none"/><path d="M-360.5-95.1l.4.36-2.2.74-.93-2.8.74-.24z" stroke="#3a414a" stroke-width=".05" fill="#3a414a"/><path d="M-617-8.66l406.2 2.26M-616.96-8.65l-4.54-.03" stroke="#3a414a" stroke-width="3" fill="none"/><path d="M-209.38-7.87v.14l.1 2.12.07.68h-1.66l.02-2.95z" stroke="#3a414a" stroke-width=".05" fill="#3a414a"/><path d="M-600.25-67.56c0 10.9-8.84 19.75-19.75 19.75-10.9 0-19.75-8.86-19.75-19.76 0-10.9 8.84-19.75 19.75-19.75 10.9 0 19.75 8.83 19.75 19.74z" stroke="#3a414a" stroke-width="3" fill="#fff"/><path d="M-620-47.8V1.5a20.7 20.7 0 0 0 3.2 11.06L-580 70.7m-40-63.2l-40 63.2m0-98.76h80" stroke="#3a414a" stroke-width="3" fill="none"/><path d="M-660-81.3a6 6 0 0 1 6-6h68a6 6 0 0 1 6 6v168a6 6 0 0 1-6 6h-68a6 6 0 0 1-6-6z" fill="none"/><use xlink:href="#f" transform="matrix(1,0,0,1,-740,70.68612927513414) translate(94.55 14.6)"/><path d="M-27.88 141.37c0 33.13-44.77 60-100 60s-100-26.87-100-60c0-33.14 44.77-60 100-60s100 26.86 100 60z" stroke="#3a414a" stroke-width="3" fill="#fff"/><use xlink:href="#g" transform="matrix(1,0,0,1,-227.8823815263986,81.36785220455897) translate(23.154999999999983 51.9)"/><use xlink:href="#h" transform="matrix(1,0,0,1,-227.8823815263986,81.36785220455897) translate(108.05499999999999 51.9)"/><use xlink:href="#i" transform="matrix(1,0,0,1,-227.8823815263986,81.36785220455897) translate(134.005 51.9)"/><use xlink:href="#j" transform="matrix(1,0,0,1,-227.8823815263986,81.36785220455897) translate(57.07999999999999 73.5)"/><path d="M-269.63 194.13c0 33.14-44.77 60-100 60s-100-26.86-100-60c0-33.13 44.77-60 100-60s100 26.87 100 60z" stroke="#3a414a" stroke-width="3" fill="#fff"/><use xlink:href="#k" transform="matrix(1,0,0,1,-469.6323815263986,134.13391512357862) translate(37.105000000000004 51.9)"/><use xlink:href="#l" transform="matrix(1,0,0,1,-469.6323815263986,134.13391512357862) translate(141.955 51.9)"/><use xlink:href="#m" transform="matrix(1,0,0,1,-469.6323815263986,134.13391512357862) translate(33.154999999999994 73.5)"/><use xlink:href="#j" transform="matrix(1,0,0,1,-469.6323815263986,134.13391512357862) translate(81.005 73.5)"/><path d="M-617.07-7.76l395.67 122.73M-617.03-7.75l-4.34-1.35" stroke="#3a414a" stroke-width="3" fill="none"/><path d="M-218.98 114.18l-1.13 1.4-.8 1.1-.98-.3.88-2.83z" stroke="#3a414a" stroke-width=".05" fill="#3a414a"/><path d="M-617.34-6.5l183.5 151.47M-617.3-6.47l-3.5-2.9" stroke="#3a414a" stroke-width="3" fill="none"/><path d="M-431.2 145.23l-2.94 1.4-.66-.54 1.88-2.3z" stroke="#3a414a" stroke-width=".05" fill="#3a414a"/><defs><path d="M190 0L58-211 59 0H30v-248h39L202-35l-2-213h31V0h-41" id="n"/><path d="M100-194c62-1 85 37 85 99 1 63-27 99-86 99S16-35 15-95c0-66 28-99 85-99zM99-20c44 1 53-31 53-75 0-43-8-75-51-75s-53 32-53 75 10 74 51 75" id="o"/><path d="M59-47c-2 24 18 29 38 22v24C64 9 27 4 27-40v-127H5v-23h24l9-43h21v43h35v23H59v120" id="p"/><path d="M24-231v-30h32v30H24zM24 0v-190h32V0H24" id="q"/><path d="M101-234c-31-9-42 10-38 44h38v23H63V0H32v-167H5v-23h27c-7-52 17-82 69-68v24" id="r"/><path d="M96-169c-40 0-48 33-48 73s9 75 48 75c24 0 41-14 43-38l32 2c-6 37-31 61-74 61-59 0-76-41-82-99-10-93 101-131 147-64 4 7 5 14 7 22l-32 3c-4-21-16-35-41-35" id="s"/><path d="M141-36C126-15 110 5 73 4 37 3 15-17 15-53c-1-64 63-63 125-63 3-35-9-54-41-54-24 1-41 7-42 31l-33-3c5-37 33-52 76-52 45 0 72 20 72 64v82c-1 20 7 32 28 27v20c-31 9-61-2-59-35zM48-53c0 20 12 33 32 33 41-3 63-29 60-74-43 2-92-5-92 41" id="t"/><path d="M117-194c89-4 53 116 60 194h-32v-121c0-31-8-49-39-48C34-167 62-67 57 0H25l-1-190h30c1 10-1 24 2 32 11-22 29-35 61-36" id="u"/><g id="a"><use transform="matrix(0.05,0,0,0.05,0,0)" xlink:href="#n"/><use transform="matrix(0.05,0,0,0.05,12.950000000000001,0)" xlink:href="#o"/><use transform="matrix(0.05,0,0,0.05,22.950000000000003,0)" xlink:href="#p"/><use transform="matrix(0.05,0,0,0.05,27.950000000000003,0)" xlink:href="#q"/><use transform="matrix(0.05,0,0,0.05,31.900000000000002,0)" xlink:href="#r"/><use transform="matrix(0.05,0,0,0.05,36.900000000000006,0)" xlink:href="#q"/><use transform="matrix(0.05,0,0,0.05,40.85000000000001,0)" xlink:href="#s"/><use transform="matrix(0.05,0,0,0.05,49.85000000000001,0)" xlink:href="#t"/><use transform="matrix(0.05,0,0,0.05,59.85,0)" xlink:href="#p"/><use transform="matrix(0.05,0,0,0.05,64.85000000000001,0)" xlink:href="#q"/><use transform="matrix(0.05,0,0,0.05,68.80000000000001,0)" xlink:href="#o"/><use transform="matrix(0.05,0,0,0.05,78.80000000000001,0)" xlink:href="#u"/></g><path d="M205 0l-28-72H64L36 0H1l101-248h38L239 0h-34zm-38-99l-47-123c-12 45-31 82-46 123h93" id="v"/><path d="M85-194c31 0 48 13 60 33l-1-100h32l1 261h-30c-2-10 0-23-3-31C134-8 116 4 85 4 32 4 16-35 15-94c0-66 23-100 70-100zm9 24c-40 0-46 34-46 75 0 40 6 74 45 74 42 0 51-32 51-76 0-42-9-74-50-73" id="w"/><g id="b"><use transform="matrix(0.05,0,0,0.05,0,0)" xlink:href="#v"/><use transform="matrix(0.05,0,0,0.05,12,0)" xlink:href="#w"/><use transform="matrix(0.05,0,0,0.05,22,0)" xlink:href="#w"/></g><path d="M108 0H70L1-190h34L89-25l56-165h34" id="x"/><path d="M114-163C36-179 61-72 57 0H25l-1-190h30c1 12-1 29 2 39 6-27 23-49 58-41v29" id="y"/><path d="M100-194c63 0 86 42 84 106H49c0 40 14 67 53 68 26 1 43-12 49-29l28 8c-11 28-37 45-77 45C44 4 14-33 15-96c1-61 26-98 85-98zm52 81c6-60-76-77-97-28-3 7-6 17-6 28h103" id="z"/><g id="c"><use transform="matrix(0.05,0,0,0.05,0,0)" xlink:href="#r"/><use transform="matrix(0.05,0,0,0.05,5,0)" xlink:href="#t"/><use transform="matrix(0.05,0,0,0.05,15,0)" xlink:href="#x"/><use transform="matrix(0.05,0,0,0.05,24,0)" xlink:href="#o"/><use transform="matrix(0.05,0,0,0.05,34,0)" xlink:href="#y"/><use transform="matrix(0.05,0,0,0.05,39.95,0)" xlink:href="#q"/><use transform="matrix(0.05,0,0,0.05,43.900000000000006,0)" xlink:href="#p"/><use transform="matrix(0.05,0,0,0.05,48.900000000000006,0)" xlink:href="#z"/></g><path d="M30-248c118-7 216 8 213 122C240-48 200 0 122 0H30v-248zM63-27c89 8 146-16 146-99s-60-101-146-95v194" id="A"/><path d="M0 4l72-265h28L28 4H0" id="B"/><path d="M212-179c-10-28-35-45-73-45-59 0-87 40-87 99 0 60 29 101 89 101 43 0 62-24 78-52l27 14C228-24 195 4 139 4 59 4 22-46 18-125c-6-104 99-153 187-111 19 9 31 26 39 46" id="C"/><path d="M135-143c-3-34-86-38-87 0 15 53 115 12 119 90S17 21 10-45l28-5c4 36 97 45 98 0-10-56-113-15-118-90-4-57 82-63 122-42 12 7 21 19 24 35" id="D"/><path d="M84 4C-5 8 30-112 23-190h32v120c0 31 7 50 39 49 72-2 45-101 50-169h31l1 190h-30c-1-10 1-25-2-33-11 22-28 36-60 37" id="E"/><g id="d"><use transform="matrix(0.05,0,0,0.05,0,0)" xlink:href="#A"/><use transform="matrix(0.05,0,0,0.05,12.950000000000001,0)" xlink:href="#y"/><use transform="matrix(0.05,0,0,0.05,18.900000000000002,0)" xlink:href="#q"/><use transform="matrix(0.05,0,0,0.05,22.85,0)" xlink:href="#x"/><use transform="matrix(0.05,0,0,0.05,31.85,0)" xlink:href="#z"/><use transform="matrix(0.05,0,0,0.05,41.85,0)" xlink:href="#y"/><use transform="matrix(0.05,0,0,0.05,47.800000000000004,0)" xlink:href="#B"/><use transform="matrix(0.05,0,0,0.05,52.800000000000004,0)" xlink:href="#C"/><use transform="matrix(0.05,0,0,0.05,65.75,0)" xlink:href="#o"/><use transform="matrix(0.05,0,0,0.05,75.75,0)" xlink:href="#u"/><use transform="matrix(0.05,0,0,0.05,85.75,0)" xlink:href="#D"/><use transform="matrix(0.05,0,0,0.05,94.75,0)" xlink:href="#p"/><use transform="matrix(0.05,0,0,0.05,99.75,0)" xlink:href="#y"/><use transform="matrix(0.05,0,0,0.05,105.7,0)" xlink:href="#E"/><use transform="matrix(0.05,0,0,0.05,115.7,0)" xlink:href="#s"/><use transform="matrix(0.05,0,0,0.05,124.7,0)" xlink:href="#p"/><use transform="matrix(0.05,0,0,0.05,129.7,0)" xlink:href="#o"/><use transform="matrix(0.05,0,0,0.05,139.7,0)" xlink:href="#y"/></g><path d="M233-177c-1 41-23 64-60 70L243 0h-38l-65-103H63V0H30v-248c88 3 205-21 203 71zM63-129c60-2 137 13 137-47 0-61-80-42-137-45v92" id="F"/><path d="M210-169c-67 3-38 105-44 169h-31v-121c0-29-5-50-35-48C34-165 62-65 56 0H25l-1-190h30c1 10-1 24 2 32 10-44 99-50 107 0 11-21 27-35 58-36 85-2 47 119 55 194h-31v-121c0-29-5-49-35-48" id="G"/><g id="e"><use transform="matrix(0.05,0,0,0.05,0,0)" xlink:href="#F"/><use transform="matrix(0.05,0,0,0.05,12.950000000000001,0)" xlink:href="#z"/><use transform="matrix(0.05,0,0,0.05,22.950000000000003,0)" xlink:href="#G"/><use transform="matrix(0.05,0,0,0.05,37.900000000000006,0)" xlink:href="#o"/><use transform="matrix(0.05,0,0,0.05,47.900000000000006,0)" xlink:href="#x"/><use transform="matrix(0.05,0,0,0.05,56.900000000000006,0)" xlink:href="#z"/></g><path d="M30-248c87 1 191-15 191 75 0 78-77 80-158 76V0H30v-248zm33 125c57 0 124 11 124-50 0-59-68-47-124-48v98" id="H"/><path d="M24 0v-261h32V0H24" id="I"/><path d="M179-190L93 31C79 59 56 82 12 73V49c39 6 53-20 64-50L1-190h34L92-34l54-156h33" id="J"/><g id="f"><use transform="matrix(0.05,0,0,0.05,0,0)" xlink:href="#H"/><use transform="matrix(0.05,0,0,0.05,12,0)" xlink:href="#I"/><use transform="matrix(0.05,0,0,0.05,15.949999999999998,0)" xlink:href="#t"/><use transform="matrix(0.05,0,0,0.05,25.950000000000003,0)" xlink:href="#J"/><use transform="matrix(0.05,0,0,0.05,34.95,0)" xlink:href="#z"/><use transform="matrix(0.05,0,0,0.05,44.95,0)" xlink:href="#y"/></g><path d="M185-189c-5-48-123-54-124 2 14 75 158 14 163 119 3 78-121 87-175 55-17-10-28-26-33-46l33-7c5 56 141 63 141-1 0-78-155-14-162-118-5-82 145-84 179-34 5 7 8 16 11 25" id="K"/><path d="M115-194c53 0 69 39 70 98 0 66-23 100-70 100C84 3 66-7 56-30L54 0H23l1-261h32v101c10-23 28-34 59-34zm-8 174c40 0 45-34 45-75 0-40-5-75-45-74-42 0-51 32-51 76 0 43 10 73 51 73" id="L"/><g id="g"><use transform="matrix(0.05,0,0,0.05,0,0)" xlink:href="#K"/><use transform="matrix(0.05,0,0,0.05,12,0)" xlink:href="#E"/><use transform="matrix(0.05,0,0,0.05,22,0)" xlink:href="#L"/><use transform="matrix(0.05,0,0,0.05,32,0)" xlink:href="#D"/><use transform="matrix(0.05,0,0,0.05,41,0)" xlink:href="#s"/><use transform="matrix(0.05,0,0,0.05,50,0)" xlink:href="#y"/><use transform="matrix(0.05,0,0,0.05,55.95,0)" xlink:href="#q"/><use transform="matrix(0.05,0,0,0.05,59.900000000000006,0)" xlink:href="#L"/><use transform="matrix(0.05,0,0,0.05,69.9,0)" xlink:href="#z"/></g><g id="h"><use transform="matrix(0.05,0,0,0.05,0,0)" xlink:href="#r"/><use transform="matrix(0.05,0,0,0.05,5,0)" xlink:href="#o"/><use transform="matrix(0.05,0,0,0.05,15,0)" xlink:href="#y"/></g><g id="i"><use transform="matrix(0.05,0,0,0.05,0,0)" xlink:href="#z"/><use transform="matrix(0.05,0,0,0.05,10,0)" xlink:href="#G"/><use transform="matrix(0.05,0,0,0.05,24.950000000000003,0)" xlink:href="#t"/><use transform="matrix(0.05,0,0,0.05,34.95,0)" xlink:href="#q"/><use transform="matrix(0.05,0,0,0.05,38.900000000000006,0)" xlink:href="#I"/></g><g id="j"><use transform="matrix(0.05,0,0,0.05,0,0)" xlink:href="#u"/><use transform="matrix(0.05,0,0,0.05,10,0)" xlink:href="#o"/><use transform="matrix(0.05,0,0,0.05,20,0)" xlink:href="#p"/><use transform="matrix(0.05,0,0,0.05,25,0)" xlink:href="#q"/><use transform="matrix(0.05,0,0,0.05,28.950000000000003,0)" xlink:href="#r"/><use transform="matrix(0.05,0,0,0.05,33.95,0)" xlink:href="#q"/><use transform="matrix(0.05,0,0,0.05,37.900000000000006,0)" xlink:href="#s"/><use transform="matrix(0.05,0,0,0.05,46.900000000000006,0)" xlink:href="#t"/><use transform="matrix(0.05,0,0,0.05,56.900000000000006,0)" xlink:href="#p"/><use transform="matrix(0.05,0,0,0.05,61.900000000000006,0)" xlink:href="#q"/><use transform="matrix(0.05,0,0,0.05,65.85000000000001,0)" xlink:href="#o"/><use transform="matrix(0.05,0,0,0.05,75.85000000000001,0)" xlink:href="#u"/></g><path d="M232-93c-1 65-40 97-104 97C67 4 28-28 28-90v-158h33c8 89-33 224 67 224 102 0 64-133 71-224h33v155" id="M"/><g id="k"><use transform="matrix(0.05,0,0,0.05,0,0)" xlink:href="#M"/><use transform="matrix(0.05,0,0,0.05,12.950000000000001,0)" xlink:href="#u"/><use transform="matrix(0.05,0,0,0.05,22.950000000000003,0)" xlink:href="#D"/><use transform="matrix(0.05,0,0,0.05,31.950000000000003,0)" xlink:href="#E"/><use transform="matrix(0.05,0,0,0.05,41.95,0)" xlink:href="#L"/><use transform="matrix(0.05,0,0,0.05,51.95,0)" xlink:href="#D"/><use transform="matrix(0.05,0,0,0.05,60.95,0)" xlink:href="#s"/><use transform="matrix(0.05,0,0,0.05,69.95,0)" xlink:href="#y"/><use transform="matrix(0.05,0,0,0.05,75.9,0)" xlink:href="#q"/><use transform="matrix(0.05,0,0,0.05,79.85000000000001,0)" xlink:href="#L"/><use transform="matrix(0.05,0,0,0.05,89.85000000000001,0)" xlink:href="#z"/></g><g id="l"><use transform="matrix(0.05,0,0,0.05,0,0)" xlink:href="#r"/><use transform="matrix(0.05,0,0,0.05,5,0)" xlink:href="#o"/><use transform="matrix(0.05,0,0,0.05,15,0)" xlink:href="#y"/></g><g id="m"><use transform="matrix(0.05,0,0,0.05,0,0)" xlink:href="#z"/><use transform="matrix(0.05,0,0,0.05,10,0)" xlink:href="#G"/><use transform="matrix(0.05,0,0,0.05,24.950000000000003,0)" xlink:href="#t"/><use transform="matrix(0.05,0,0,0.05,34.95,0)" xlink:href="#q"/><use transform="matrix(0.05,0,0,0.05,38.900000000000006,0)" xlink:href="#I"/></g></defs></g></svg>