<svg xmlns="http://www.w3.org/2000/svg" xmlns:xlink="http://www.w3.org/1999/xlink" xmlns:lucid="lucid" width="886.76" height="763"><g transform="translate(-184.2962719071811 -288.1091228070177)" lucid:page-tab-id="0_0"><path d="M369.56 315.6a6 6 0 0 1 6-6H509a6 6 0 0 1 6 6v8a14.48 14.48 0 0 1-4.24 10.25l-1.52 1.52A14.48 14.48 0 0 1 499 339.6H375.56a6 6 0 0 1-6-6z" fill="#fff"/><path d="M515 309.6v20l-10 10H369.56" stroke="#3a414a" stroke-width="3" fill="none"/><path d="M369.56 315.6a6 6 0 0 1 6-6h668a6 6 0 0 1 6 6v708a6 6 0 0 1-6 6h-668a6 6 0 0 1-6-6z" stroke="#3a414a" stroke-width="3" fill="none"/><use xlink:href="#a" transform="matrix(1,0,0,1,377.5553070401893,309.6091228070177) translate(0 18.6)"/><use xlink:href="#b" transform="matrix(1,0,0,1,377.5553070401893,309.6091228070177) translate(55.85000000000001 18.6)"/><use xlink:href="#c" transform="matrix(1,0,0,1,377.5553070401893,309.6091228070177) translate(72.85000000000001 18.6)"/><path d="M267.3 504.36c0 10.9-8.85 19.75-19.75 19.75s-19.75-8.83-19.75-19.74c0-10.9 8.84-19.75 19.75-19.75 10.9 0 19.75 8.85 19.75 19.76z" stroke="#3a414a" stroke-width="3" fill="#fff"/><path d="M247.55 524.1v49.3a20.7 20.7 0 0 0 3.2 11.08l36.8 58.13m-40-63.2l-40 63.2m0-98.74h80" stroke="#3a414a" stroke-width="3" fill="none"/><path d="M207.55 490.6a6 6 0 0 1 6-6h68a6 6 0 0 1 6 6v168a6 6 0 0 1-6 6h-68a6 6 0 0 1-6-6z" fill="none"/><use xlink:href="#d" transform="matrix(1,0,0,1,127.54627190718111,642.6091228070177) translate(94.55 14.6)"/><path d="M250.22 565.38l221.95 177.1M250.25 565.4l-3.55-2.83" stroke="#3a414a" stroke-width="3" fill="none"/><path d="M474.75 742.66l-.92.48-1.83 1.1-.78-.62 1.84-2.3z" stroke="#3a414a" stroke-width=".05" fill="#3a414a"/><path d="M248.8 919.8l181.85 11.1M248.83 919.8l-4.53-.28" stroke="#3a414a" stroke-width="3" fill="none"/><path d="M432.2 929.5l-.05 1.48.03 1.5-1.66-.1.18-2.96z" stroke="#3a414a" stroke-width=".05" fill="#3a414a"/><path d="M603.65 931c0 30.37-38.06 55-85 55-46.95 0-85-24.63-85-55 0-30.4 38.05-55 85-55 46.94 0 85 24.6 85 55z" stroke="#3a414a" stroke-width="3" fill="#fff"/><use xlink:href="#e" transform="matrix(1,0,0,1,433.6462719071815,875.9891613683235) translate(26.07999999999999 48.775)"/><use xlink:href="#f" transform="matrix(1,0,0,1,433.6462719071815,875.9891613683235) translate(82.98 48.775)"/><use xlink:href="#g" transform="matrix(1,0,0,1,433.6462719071815,875.9891613683235) translate(53.504999999999995 70.375)"/><path d="M615.27 786c0 30.37-38.05 55-85 55-46.94 0-85-24.63-85-55 0-30.4 38.06-55 85-55 46.95 0 85 24.6 85 55z" stroke="#3a414a" stroke-width="3" fill="#fff"/><use xlink:href="#h" transform="matrix(1,0,0,1,445.2711118986999,730.9891613683235) translate(12.654999999999996 59.0875)"/><use xlink:href="#i" transform="matrix(1,0,0,1,445.2711118986999,730.9891613683235) translate(70.555 59.0875)"/><use xlink:href="#j" transform="matrix(1,0,0,1,445.2711118986999,730.9891613683235) translate(108.50500000000001 59.0875)"/><path d="M1029.4 641.84c0 30.37-38.07 55-85 55-46.95 0-85-24.63-85-55 0-30.38 38.05-55 85-55 46.94 0 85 24.62 85 55z" stroke="#3a414a" stroke-width="3" fill="#fff"/><use xlink:href="#k" transform="matrix(1,0,0,1,859.3908167108402,586.8364943322781) translate(32.555 48.775)"/><use xlink:href="#l" transform="matrix(1,0,0,1,859.3908167108402,586.8364943322781) translate(92.555 48.775)"/><use xlink:href="#m" transform="matrix(1,0,0,1,859.3908167108402,586.8364943322781) translate(55.03 70.375)"/><path d="M1029.4 484.6c0 30.38-38.07 55-85 55-46.95 0-85-24.62-85-55 0-30.37 38.05-55 85-55 46.94 0 85 24.63 85 55z" stroke="#3a414a" stroke-width="3" fill="#fff"/><use xlink:href="#n" transform="matrix(1,0,0,1,859.3908167108402,429.6091228070177) translate(39.055 48.775)"/><use xlink:href="#l" transform="matrix(1,0,0,1,859.3908167108402,429.6091228070177) translate(86.055 48.775)"/><use xlink:href="#m" transform="matrix(1,0,0,1,859.3908167108402,429.6091228070177) translate(55.03 70.375)"/><path d="M952.38 804.6c0 30.38-38.05 55-85 55-46.94 0-85-24.62-85-55 0-30.37 38.06-55 85-55 46.95 0 85 24.63 85 55z" stroke="#3a414a" stroke-width="3" fill="#fff"/><use xlink:href="#o" transform="matrix(1,0,0,1,782.381781577832,749.6091228070177) translate(30.12999999999999 48.775)"/><use xlink:href="#l" transform="matrix(1,0,0,1,782.381781577832,749.6091228070177) translate(94.98 48.775)"/><use xlink:href="#m" transform="matrix(1,0,0,1,782.381781577832,749.6091228070177) translate(55.03 70.375)"/><path d="M754.05 624.6c0 30.38-38.06 55-85 55-46.95 0-85-24.62-85-55 0-30.37 38.05-55 85-55 46.94 0 85 24.63 85 55z" stroke="#3a414a" stroke-width="3" fill="#fff"/><use xlink:href="#p" transform="matrix(1,0,0,1,584.0462719071811,569.6091228070177) translate(23.07999999999999 48.775)"/><use xlink:href="#q" transform="matrix(1,0,0,1,584.0462719071811,569.6091228070177) translate(79.03 48.775)"/><use xlink:href="#r" transform="matrix(1,0,0,1,584.0462719071811,569.6091228070177) translate(30.080000000000002 70.375)"/><use xlink:href="#m" transform="matrix(1,0,0,1,584.0462719071811,569.6091228070177) translate(79.97999999999999 70.375)"/><path d="M856.9 634.88l-.2 2.95-2.57-.16v-2.96z" stroke="#3a414a" stroke-width=".05" fill="#3a414a"/><path d="M858.52 635l-.04.2-.33 2.2-.04.52-1.44-.1.2-2.94z" fill="#3a414a"/><path stroke="#3a414a" stroke-width=".05" fill="#3a414a"/><path fill="#3a414a"/><path d="M759.3 631.62l-4.07-1.62 4.08-1.05z" stroke="#3a414a" stroke-width=".05" fill="#3a414a"/><use xlink:href="#s" transform="matrix(1,0,0,1,759.3111369016033,622.5561419029813) translate(0.005000000000002558 14.222222222222223)"/><path d="M816.73 756.65l-1.98 2.18-13.48-12.23 1.98-2.2zm-26.96-24.47l-2 2.18-10-9.08h4.4zm-40.45-36.7l-1.98 2.17-13.5-12.23 2-2.2z" stroke="#3a414a" stroke-width=".05" fill="#3a414a"/><path d="M818.32 758.1l-2.66 1.18-.26.14-.68-.6 1.98-2.2z" fill="#3a414a"/><path stroke="#3a414a" stroke-width=".05" fill="#3a414a"/><path d="M736.85 679.9l-6.23 6.85-7.45-13.02z" fill="#3a414a"/><path d="M739.3 679.37l-8.95 9.88-10.7-18.73zm-8.4 4.88l3.5-3.85-7.7-3.46z" stroke="#3a414a" stroke-width=".05" fill="#3a414a"/><use xlink:href="#s" transform="matrix(1,0,0,1,720.8066193350992,703.942456140351) translate(0.005000000000002558 14.222222222222223)"/><path d="M596.85 502l-346.33 60.73" stroke="#3a414a" stroke-width="3" fill="none"/><path d="M598.36 501.8l.68 1.3-1.97.36-.5-2.9 1.13-.2z" stroke="#3a414a" stroke-width=".05" fill="#3a414a"/><path d="M250.56 562.72l-4.47.78" stroke="#3a414a" stroke-width="3" fill="none"/><path d="M765.8 484.6c0 30.38-38.06 55-85 55-46.95 0-85-24.62-85-55 0-30.37 38.05-55 85-55 46.94 0 85 24.63 85 55z" stroke="#3a414a" stroke-width="3" fill="#fff"/><use xlink:href="#p" transform="matrix(1,0,0,1,595.7962719071811,429.6091228070177) translate(12.62999999999999 59.0875)"/><use xlink:href="#t" transform="matrix(1,0,0,1,595.7962719071811,429.6091228070177) translate(68.58 59.0875)"/><use xlink:href="#j" transform="matrix(1,0,0,1,595.7962719071811,429.6091228070177) translate(108.53 59.0875)"/><path d="M856.4 484.6H787.9" stroke="#3a414a" stroke-width="3" fill="none"/><path d="M857.9 484.6l.02 1.48h-1.57v-2.95h1.58z" stroke="#3a414a" stroke-width=".05" fill="#3a414a"/><path d="M772.15 484.6l14.27-4.63v9.27z" stroke="#3a414a" stroke-width="3" fill="#3a414a"/><path d="M582.45 614.3l-331.92-50.6" stroke="#3a414a" stroke-width="3" fill="none"/><path d="M584.35 613.08l-.15.45-.6 2.23-.04.2-1.37-.22.43-2.92z" stroke="#3a414a" stroke-width=".05" fill="#3a414a"/><path d="M250.57 563.7l-4.5-.68" stroke="#3a414a" stroke-width="3" fill="none"/><path d="M265.55 860.74c0 10.9-8.85 19.75-19.75 19.75s-19.75-8.85-19.75-19.76c0-10.9 8.84-19.75 19.75-19.75 10.9 0 19.75 8.83 19.75 19.74z" stroke="#3a414a" stroke-width="3" fill="#fff"/><path d="M245.8 880.5v49.3a20.7 20.7 0 0 0 3.2 11.06L285.8 999m-40-63.2l-40 63.2m0-98.76h80" stroke="#3a414a" stroke-width="3" fill="none"/><path d="M205.8 847a6 6 0 0 1 6-6h68a6 6 0 0 1 6 6v168a6 6 0 0 1-6 6h-68a6 6 0 0 1-6-6z" fill="none"/><g><use xlink:href="#u" transform="matrix(1,0,0,1,125.79627190718111,998.9891613683235) translate(94.55 14.6)"/></g><path d="M598.23 397.73c0 30.37-38.05 55-85 55-46.94 0-85-24.63-85-55 0-30.38 38.06-55 85-55 46.95 0 85 24.62 85 55z" stroke="#3a414a" stroke-width="3" fill="#fff"/><g><use xlink:href="#n" transform="matrix(1,0,0,1,428.23396306257655,342.7252491445488) translate(15.029999999999996 48.775)"/><use xlink:href="#v" transform="matrix(1,0,0,1,428.23396306257655,342.7252491445488) translate(62.029999999999994 48.775)"/><use xlink:href="#w" transform="matrix(1,0,0,1,428.23396306257655,342.7252491445488) translate(139.98000000000002 48.775)"/><use xlink:href="#x" transform="matrix(1,0,0,1,428.23396306257655,342.7252491445488) translate(62.55500000000001 70.375)"/></g><path d="M282.37 541.58l169-102.74M282.4 541.56l-3.87 2.36" stroke="#3a414a" stroke-width="3" fill="none"/><path d="M451.4 437.27l2.65 1.66-1.94 1.2-1.53-2.53.7-.42z" stroke="#3a414a" stroke-width=".05" fill="#3a414a"/><defs><path d="M30-248c87 1 191-15 191 75 0 78-77 80-158 76V0H30v-248zm33 125c57 0 124 11 124-50 0-59-68-47-124-48v98" id="y"/><path d="M114-163C36-179 61-72 57 0H25l-1-190h30c1 12-1 29 2 39 6-27 23-49 58-41v29" id="z"/><path d="M100-194c62-1 85 37 85 99 1 63-27 99-86 99S16-35 15-95c0-66 28-99 85-99zM99-20c44 1 53-31 53-75 0-43-8-75-51-75s-53 32-53 75 10 74 51 75" id="A"/><path d="M101-234c-31-9-42 10-38 44h38v23H63V0H32v-167H5v-23h27c-7-52 17-82 69-68v24" id="B"/><path d="M24-231v-30h32v30H24zM24 0v-190h32V0H24" id="C"/><path d="M24 0v-261h32V0H24" id="D"/><path d="M100-194c63 0 86 42 84 106H49c0 40 14 67 53 68 26 1 43-12 49-29l28 8c-11 28-37 45-77 45C44 4 14-33 15-96c1-61 26-98 85-98zm52 81c6-60-76-77-97-28-3 7-6 17-6 28h103" id="E"/><g id="a"><use transform="matrix(0.05,0,0,0.05,0,0)" xlink:href="#y"/><use transform="matrix(0.05,0,0,0.05,12,0)" xlink:href="#z"/><use transform="matrix(0.05,0,0,0.05,17.95,0)" xlink:href="#A"/><use transform="matrix(0.05,0,0,0.05,27.950000000000003,0)" xlink:href="#B"/><use transform="matrix(0.05,0,0,0.05,32.95,0)" xlink:href="#C"/><use transform="matrix(0.05,0,0,0.05,36.900000000000006,0)" xlink:href="#D"/><use transform="matrix(0.05,0,0,0.05,40.85000000000001,0)" xlink:href="#E"/></g><path d="M234-2c-28 10-62 0-77-18C117 19 8 12 13-65c3-43 29-61 60-76-25-40-17-114 47-108 35 3 59 15 59 50 0 44-40 53-71 69 14 26 32 50 51 72 14-21 24-43 30-72l26 8c-9 33-21 57-38 82 13 13 33 22 57 15v23zM97-151c25-10 52-18 56-48-1-18-13-29-33-29-42 0-39 50-23 77zM42-66c-3 51 71 58 98 28-20-24-41-51-56-80-23 10-40 24-42 52" id="F"/><use transform="matrix(0.05,0,0,0.05,0,0)" xlink:href="#F" id="b"/><path d="M96-169c-40 0-48 33-48 73s9 75 48 75c24 0 41-14 43-38l32 2c-6 37-31 61-74 61-59 0-76-41-82-99-10-93 101-131 147-64 4 7 5 14 7 22l-32 3c-4-21-16-35-41-35" id="G"/><path d="M106-169C34-169 62-67 57 0H25v-261h32l-1 103c12-21 28-36 61-36 89 0 53 116 60 194h-32v-121c2-32-8-49-39-48" id="H"/><path d="M141-36C126-15 110 5 73 4 37 3 15-17 15-53c-1-64 63-63 125-63 3-35-9-54-41-54-24 1-41 7-42 31l-33-3c5-37 33-52 76-52 45 0 72 20 72 64v82c-1 20 7 32 28 27v20c-31 9-61-2-59-35zM48-53c0 20 12 33 32 33 41-3 63-29 60-74-43 2-92-5-92 41" id="I"/><path d="M59-47c-2 24 18 29 38 22v24C64 9 27 4 27-40v-127H5v-23h24l9-43h21v43h35v23H59v120" id="J"/><g id="c"><use transform="matrix(0.05,0,0,0.05,0,0)" xlink:href="#G"/><use transform="matrix(0.05,0,0,0.05,9,0)" xlink:href="#H"/><use transform="matrix(0.05,0,0,0.05,19,0)" xlink:href="#I"/><use transform="matrix(0.05,0,0,0.05,29,0)" xlink:href="#J"/></g><path d="M179-190L93 31C79 59 56 82 12 73V49c39 6 53-20 64-50L1-190h34L92-34l54-156h33" id="K"/><g id="d"><use transform="matrix(0.05,0,0,0.05,0,0)" xlink:href="#y"/><use transform="matrix(0.05,0,0,0.05,12,0)" xlink:href="#D"/><use transform="matrix(0.05,0,0,0.05,15.949999999999998,0)" xlink:href="#I"/><use transform="matrix(0.05,0,0,0.05,25.950000000000003,0)" xlink:href="#K"/><use transform="matrix(0.05,0,0,0.05,34.95,0)" xlink:href="#E"/><use transform="matrix(0.05,0,0,0.05,44.95,0)" xlink:href="#z"/></g><path d="M30-248c118-7 216 8 213 122C240-48 200 0 122 0H30v-248zM63-27c89 8 146-16 146-99s-60-101-146-95v194" id="L"/><g id="e"><use transform="matrix(0.05,0,0,0.05,0,0)" xlink:href="#L"/><use transform="matrix(0.05,0,0,0.05,12.950000000000001,0)" xlink:href="#E"/><use transform="matrix(0.05,0,0,0.05,22.950000000000003,0)" xlink:href="#D"/><use transform="matrix(0.05,0,0,0.05,26.900000000000002,0)" xlink:href="#E"/><use transform="matrix(0.05,0,0,0.05,36.900000000000006,0)" xlink:href="#J"/><use transform="matrix(0.05,0,0,0.05,41.900000000000006,0)" xlink:href="#E"/></g><path d="M117-194c89-4 53 116 60 194h-32v-121c0-31-8-49-39-48C34-167 62-67 57 0H25l-1-190h30c1 10-1 24 2 32 11-22 29-35 61-36" id="M"/><g id="f"><use transform="matrix(0.05,0,0,0.05,0,0)" xlink:href="#I"/><use transform="matrix(0.05,0,0,0.05,10,0)" xlink:href="#M"/><use transform="matrix(0.05,0,0,0.05,20,0)" xlink:href="#A"/><use transform="matrix(0.05,0,0,0.05,30,0)" xlink:href="#J"/><use transform="matrix(0.05,0,0,0.05,35,0)" xlink:href="#H"/><use transform="matrix(0.05,0,0,0.05,45,0)" xlink:href="#E"/><use transform="matrix(0.05,0,0,0.05,55,0)" xlink:href="#z"/></g><path d="M84 4C-5 8 30-112 23-190h32v120c0 31 7 50 39 49 72-2 45-101 50-169h31l1 190h-30c-1-10 1-25-2-33-11 22-28 36-60 37" id="N"/><g id="g"><use transform="matrix(0.05,0,0,0.05,0,0)" xlink:href="#I"/><use transform="matrix(0.05,0,0,0.05,10,0)" xlink:href="#G"/><use transform="matrix(0.05,0,0,0.05,19,0)" xlink:href="#G"/><use transform="matrix(0.05,0,0,0.05,28,0)" xlink:href="#A"/><use transform="matrix(0.05,0,0,0.05,38,0)" xlink:href="#N"/><use transform="matrix(0.05,0,0,0.05,48,0)" xlink:href="#M"/><use transform="matrix(0.05,0,0,0.05,58,0)" xlink:href="#J"/></g><path d="M240 0l2-218c-23 76-54 145-80 218h-23L58-218 59 0H30v-248h44l77 211c21-75 51-140 76-211h43V0h-30" id="O"/><path d="M85-194c31 0 48 13 60 33l-1-100h32l1 261h-30c-2-10 0-23-3-31C134-8 116 4 85 4 32 4 16-35 15-94c0-66 23-100 70-100zm9 24c-40 0-46 34-46 75 0 40 6 74 45 74 42 0 51-32 51-76 0-42-9-74-50-73" id="P"/><g id="h"><use transform="matrix(0.05,0,0,0.05,0,0)" xlink:href="#O"/><use transform="matrix(0.05,0,0,0.05,14.950000000000001,0)" xlink:href="#A"/><use transform="matrix(0.05,0,0,0.05,24.950000000000003,0)" xlink:href="#P"/><use transform="matrix(0.05,0,0,0.05,34.95,0)" xlink:href="#C"/><use transform="matrix(0.05,0,0,0.05,38.900000000000006,0)" xlink:href="#B"/><use transform="matrix(0.05,0,0,0.05,43.900000000000006,0)" xlink:href="#K"/></g><path d="M206 0h-36l-40-164L89 0H53L-1-190h32L70-26l43-164h34l41 164 42-164h31" id="Q"/><g id="i"><use transform="matrix(0.05,0,0,0.05,0,0)" xlink:href="#A"/><use transform="matrix(0.05,0,0,0.05,10,0)" xlink:href="#Q"/><use transform="matrix(0.05,0,0,0.05,22.950000000000003,0)" xlink:href="#M"/></g><path d="M115-194c55 1 70 41 70 98S169 2 115 4C84 4 66-9 55-30l1 105H24l-1-265h31l2 30c10-21 28-34 59-34zm-8 174c40 0 45-34 45-75s-6-73-45-74c-42 0-51 32-51 76 0 43 10 73 51 73" id="R"/><g id="j"><use transform="matrix(0.05,0,0,0.05,0,0)" xlink:href="#R"/><use transform="matrix(0.05,0,0,0.05,10,0)" xlink:href="#z"/><use transform="matrix(0.05,0,0,0.05,15.949999999999998,0)" xlink:href="#A"/><use transform="matrix(0.05,0,0,0.05,25.950000000000003,0)" xlink:href="#B"/><use transform="matrix(0.05,0,0,0.05,30.950000000000003,0)" xlink:href="#C"/><use transform="matrix(0.05,0,0,0.05,34.9,0)" xlink:href="#D"/><use transform="matrix(0.05,0,0,0.05,38.85,0)" xlink:href="#E"/></g><path d="M205 0l-28-72H64L36 0H1l101-248h38L239 0h-34zm-38-99l-47-123c-12 45-31 82-46 123h93" id="S"/><g id="k"><use transform="matrix(0.05,0,0,0.05,0,0)" xlink:href="#S"/><use transform="matrix(0.05,0,0,0.05,12,0)" xlink:href="#G"/><use transform="matrix(0.05,0,0,0.05,21,0)" xlink:href="#G"/><use transform="matrix(0.05,0,0,0.05,30,0)" xlink:href="#E"/><use transform="matrix(0.05,0,0,0.05,40,0)" xlink:href="#R"/><use transform="matrix(0.05,0,0,0.05,50,0)" xlink:href="#J"/></g><g id="l"><use transform="matrix(0.05,0,0,0.05,0,0)" xlink:href="#B"/><use transform="matrix(0.05,0,0,0.05,5,0)" xlink:href="#z"/><use transform="matrix(0.05,0,0,0.05,10.95,0)" xlink:href="#C"/><use transform="matrix(0.05,0,0,0.05,14.899999999999999,0)" xlink:href="#E"/><use transform="matrix(0.05,0,0,0.05,24.9,0)" xlink:href="#M"/><use transform="matrix(0.05,0,0,0.05,34.9,0)" xlink:href="#P"/></g><path d="M145-31C134-9 116 4 85 4 32 4 16-35 15-94c0-59 17-99 70-100 32-1 48 14 60 33 0-11-1-24 2-32h30l-1 268h-32zM93-21c41 0 51-33 51-76s-8-73-50-73c-40 0-46 35-46 75s5 74 45 74" id="T"/><path d="M135-143c-3-34-86-38-87 0 15 53 115 12 119 90S17 21 10-45l28-5c4 36 97 45 98 0-10-56-113-15-118-90-4-57 82-63 122-42 12 7 21 19 24 35" id="U"/><g id="m"><use transform="matrix(0.05,0,0,0.05,0,0)" xlink:href="#z"/><use transform="matrix(0.05,0,0,0.05,5.95,0)" xlink:href="#E"/><use transform="matrix(0.05,0,0,0.05,15.949999999999998,0)" xlink:href="#T"/><use transform="matrix(0.05,0,0,0.05,25.950000000000003,0)" xlink:href="#N"/><use transform="matrix(0.05,0,0,0.05,35.95,0)" xlink:href="#E"/><use transform="matrix(0.05,0,0,0.05,45.95,0)" xlink:href="#U"/><use transform="matrix(0.05,0,0,0.05,54.95,0)" xlink:href="#J"/></g><path d="M185-189c-5-48-123-54-124 2 14 75 158 14 163 119 3 78-121 87-175 55-17-10-28-26-33-46l33-7c5 56 141 63 141-1 0-78-155-14-162-118-5-82 145-84 179-34 5 7 8 16 11 25" id="V"/><g id="n"><use transform="matrix(0.05,0,0,0.05,0,0)" xlink:href="#V"/><use transform="matrix(0.05,0,0,0.05,12,0)" xlink:href="#E"/><use transform="matrix(0.05,0,0,0.05,22,0)" xlink:href="#M"/><use transform="matrix(0.05,0,0,0.05,32,0)" xlink:href="#P"/></g><g id="o"><use transform="matrix(0.05,0,0,0.05,0,0)" xlink:href="#L"/><use transform="matrix(0.05,0,0,0.05,12.950000000000001,0)" xlink:href="#E"/><use transform="matrix(0.05,0,0,0.05,22.950000000000003,0)" xlink:href="#G"/><use transform="matrix(0.05,0,0,0.05,31.950000000000003,0)" xlink:href="#D"/><use transform="matrix(0.05,0,0,0.05,35.900000000000006,0)" xlink:href="#C"/><use transform="matrix(0.05,0,0,0.05,39.85000000000001,0)" xlink:href="#M"/><use transform="matrix(0.05,0,0,0.05,49.85000000000001,0)" xlink:href="#E"/></g><path d="M212-179c-10-28-35-45-73-45-59 0-87 40-87 99 0 60 29 101 89 101 43 0 62-24 78-52l27 14C228-24 195 4 139 4 59 4 22-46 18-125c-6-104 99-153 187-111 19 9 31 26 39 46" id="W"/><path d="M143 0L79-87 56-68V0H24v-261h32v163l83-92h37l-77 82L181 0h-38" id="X"/><g id="p"><use transform="matrix(0.05,0,0,0.05,0,0)" xlink:href="#W"/><use transform="matrix(0.05,0,0,0.05,12.950000000000001,0)" xlink:href="#H"/><use transform="matrix(0.05,0,0,0.05,22.950000000000003,0)" xlink:href="#E"/><use transform="matrix(0.05,0,0,0.05,32.95,0)" xlink:href="#G"/><use transform="matrix(0.05,0,0,0.05,41.95,0)" xlink:href="#X"/></g><path d="M108 0H70L1-190h34L89-25l56-165h34" id="Y"/><g id="q"><use transform="matrix(0.05,0,0,0.05,0,0)" xlink:href="#z"/><use transform="matrix(0.05,0,0,0.05,5.95,0)" xlink:href="#E"/><use transform="matrix(0.05,0,0,0.05,15.949999999999998,0)" xlink:href="#G"/><use transform="matrix(0.05,0,0,0.05,24.95,0)" xlink:href="#E"/><use transform="matrix(0.05,0,0,0.05,34.95,0)" xlink:href="#C"/><use transform="matrix(0.05,0,0,0.05,38.900000000000006,0)" xlink:href="#Y"/><use transform="matrix(0.05,0,0,0.05,47.900000000000006,0)" xlink:href="#E"/><use transform="matrix(0.05,0,0,0.05,57.900000000000006,0)" xlink:href="#P"/></g><g id="r"><use transform="matrix(0.05,0,0,0.05,0,0)" xlink:href="#B"/><use transform="matrix(0.05,0,0,0.05,5,0)" xlink:href="#z"/><use transform="matrix(0.05,0,0,0.05,10.95,0)" xlink:href="#C"/><use transform="matrix(0.05,0,0,0.05,14.899999999999999,0)" xlink:href="#E"/><use transform="matrix(0.05,0,0,0.05,24.9,0)" xlink:href="#M"/><use transform="matrix(0.05,0,0,0.05,34.9,0)" xlink:href="#P"/></g><path fill="#333" d="M18-100v-36l175-74v27L42-118l151 64v27" id="Z"/><path fill="#333" d="M100-194c63 0 86 42 84 106H49c0 40 14 67 53 68 26 1 43-12 49-29l28 8c-11 28-37 45-77 45C44 4 14-33 15-96c1-61 26-98 85-98zm52 81c6-60-76-77-97-28-3 7-6 17-6 28h103" id="aa"/><path fill="#333" d="M141 0L90-78 38 0H4l68-98-65-92h35l48 74 47-74h35l-64 92 68 98h-35" id="ab"/><path fill="#333" d="M59-47c-2 24 18 29 38 22v24C64 9 27 4 27-40v-127H5v-23h24l9-43h21v43h35v23H59v120" id="ac"/><path fill="#333" d="M117-194c89-4 53 116 60 194h-32v-121c0-31-8-49-39-48C34-167 62-67 57 0H25l-1-190h30c1 10-1 24 2 32 11-22 29-35 61-36" id="ad"/><path fill="#333" d="M85-194c31 0 48 13 60 33l-1-100h32l1 261h-30c-2-10 0-23-3-31C134-8 116 4 85 4 32 4 16-35 15-94c0-66 23-100 70-100zm9 24c-40 0-46 34-46 75 0 40 6 74 45 74 42 0 51-32 51-76 0-42-9-74-50-73" id="ae"/><path fill="#333" d="M18-27v-27l151-64-151-65v-27l175 74v36" id="af"/><g id="s"><use transform="matrix(0.04938271604938272,0,0,0.04938271604938272,0,0)" xlink:href="#Z"/><use transform="matrix(0.04938271604938272,0,0,0.04938271604938272,10.370370370370372,0)" xlink:href="#Z"/><use transform="matrix(0.04938271604938272,0,0,0.04938271604938272,20.740740740740744,0)" xlink:href="#aa"/><use transform="matrix(0.04938271604938272,0,0,0.04938271604938272,30.617283950617285,0)" xlink:href="#ab"/><use transform="matrix(0.04938271604938272,0,0,0.04938271604938272,39.50617283950618,0)" xlink:href="#ac"/><use transform="matrix(0.04938271604938272,0,0,0.04938271604938272,44.44444444444445,0)" xlink:href="#aa"/><use transform="matrix(0.04938271604938272,0,0,0.04938271604938272,54.320987654320994,0)" xlink:href="#ad"/><use transform="matrix(0.04938271604938272,0,0,0.04938271604938272,64.19753086419755,0)" xlink:href="#ae"/><use transform="matrix(0.04938271604938272,0,0,0.04938271604938272,74.07407407407409,0)" xlink:href="#af"/><use transform="matrix(0.04938271604938272,0,0,0.04938271604938272,84.44444444444446,0)" xlink:href="#af"/></g><g id="t"><use transform="matrix(0.05,0,0,0.05,0,0)" xlink:href="#N"/><use transform="matrix(0.05,0,0,0.05,10,0)" xlink:href="#U"/><use transform="matrix(0.05,0,0,0.05,19,0)" xlink:href="#E"/><use transform="matrix(0.05,0,0,0.05,29,0)" xlink:href="#z"/></g><path d="M210-169c-67 3-38 105-44 169h-31v-121c0-29-5-50-35-48C34-165 62-65 56 0H25l-1-190h30c1 10-1 24 2 32 10-44 99-50 107 0 11-21 27-35 58-36 85-2 47 119 55 194h-31v-121c0-29-5-49-35-48" id="ag"/><g id="u"><use transform="matrix(0.05,0,0,0.05,0,0)" xlink:href="#S"/><use transform="matrix(0.05,0,0,0.05,12,0)" xlink:href="#P"/><use transform="matrix(0.05,0,0,0.05,22,0)" xlink:href="#ag"/><use transform="matrix(0.05,0,0,0.05,36.95,0)" xlink:href="#C"/><use transform="matrix(0.05,0,0,0.05,40.900000000000006,0)" xlink:href="#M"/></g><path d="M177-190C167-65 218 103 67 71c-23-6-38-20-44-43l32-5c15 47 100 32 89-28v-30C133-14 115 1 83 1 29 1 15-40 15-95c0-56 16-97 71-98 29-1 48 16 59 35 1-10 0-23 2-32h30zM94-22c36 0 50-32 50-73 0-42-14-75-50-75-39 0-46 34-46 75s6 73 46 73" id="ah"/><g id="v"><use transform="matrix(0.05,0,0,0.05,0,0)" xlink:href="#ag"/><use transform="matrix(0.05,0,0,0.05,14.950000000000001,0)" xlink:href="#E"/><use transform="matrix(0.05,0,0,0.05,24.950000000000003,0)" xlink:href="#U"/><use transform="matrix(0.05,0,0,0.05,33.95,0)" xlink:href="#U"/><use transform="matrix(0.05,0,0,0.05,42.95,0)" xlink:href="#I"/><use transform="matrix(0.05,0,0,0.05,52.95,0)" xlink:href="#ah"/><use transform="matrix(0.05,0,0,0.05,62.95,0)" xlink:href="#E"/></g><g id="w"><use transform="matrix(0.05,0,0,0.05,0,0)" xlink:href="#J"/><use transform="matrix(0.05,0,0,0.05,5,0)" xlink:href="#A"/></g><g id="x"><use transform="matrix(0.05,0,0,0.05,0,0)" xlink:href="#B"/><use transform="matrix(0.05,0,0,0.05,5,0)" xlink:href="#z"/><use transform="matrix(0.05,0,0,0.05,10.95,0)" xlink:href="#C"/><use transform="matrix(0.05,0,0,0.05,14.899999999999999,0)" xlink:href="#E"/><use transform="matrix(0.05,0,0,0.05,24.9,0)" xlink:href="#M"/><use transform="matrix(0.05,0,0,0.05,34.9,0)" xlink:href="#P"/></g></defs></g></svg>